<svg width="538" height="538" viewBox="0 0 538 538" fill="none" xmlns="http://www.w3.org/2000/svg">
<g clip-path="url(#clip0_734_2388)">
<rect width="538" height="538" rx="35" fill="url(#paint0_linear_734_2388)"/>
<path d="M260.833 207.012C262.513 207.012 263.728 206.697 264.478 206.067C265.258 205.407 265.648 204.597 265.648 203.637V203.322C265.648 202.182 265.273 201.267 264.523 200.577C263.803 199.887 262.768 199.542 261.418 199.542C260.158 199.542 258.973 199.872 257.863 200.532C256.753 201.162 255.808 202.077 255.028 203.277L250.798 199.317C251.398 198.537 252.043 197.832 252.733 197.202C253.423 196.542 254.203 195.987 255.073 195.537C255.943 195.057 256.918 194.697 257.998 194.457C259.078 194.187 260.293 194.052 261.643 194.052C263.323 194.052 264.838 194.247 266.188 194.637C267.568 195.027 268.738 195.597 269.698 196.347C270.688 197.067 271.438 197.937 271.948 198.957C272.488 199.977 272.758 201.117 272.758 202.377C272.758 203.367 272.593 204.267 272.263 205.077C271.963 205.887 271.528 206.592 270.958 207.192C270.418 207.792 269.788 208.287 269.068 208.677C268.348 209.037 267.583 209.292 266.773 209.442V209.712C267.703 209.892 268.558 210.192 269.338 210.612C270.148 211.002 270.838 211.512 271.408 212.142C272.008 212.772 272.473 213.522 272.803 214.392C273.133 215.232 273.298 216.192 273.298 217.272C273.298 218.682 273.013 219.957 272.443 221.097C271.873 222.237 271.063 223.212 270.013 224.022C268.963 224.832 267.703 225.462 266.233 225.912C264.763 226.332 263.143 226.542 261.373 226.542C259.783 226.542 258.373 226.377 257.143 226.047C255.913 225.717 254.833 225.282 253.903 224.742C253.003 224.172 252.208 223.527 251.518 222.807C250.858 222.087 250.273 221.322 249.763 220.512L254.758 216.642C255.448 217.932 256.288 218.997 257.278 219.837C258.298 220.647 259.663 221.052 261.373 221.052C262.903 221.052 264.088 220.677 264.928 219.927C265.798 219.147 266.233 218.097 266.233 216.777V216.507C266.233 215.217 265.738 214.257 264.748 213.627C263.788 212.967 262.453 212.637 260.743 212.637H257.908V207.012H260.833ZM283.001 226.497C281.651 226.497 280.646 226.167 279.986 225.507C279.356 224.817 279.041 223.947 279.041 222.897V221.997C279.041 220.947 279.356 220.092 279.986 219.432C280.646 218.742 281.651 218.397 283.001 218.397C284.351 218.397 285.341 218.742 285.971 219.432C286.631 220.092 286.961 220.947 286.961 221.997V222.897C286.961 223.947 286.631 224.817 285.971 225.507C285.341 226.167 284.351 226.497 283.001 226.497Z" fill="#3C3C3B"/>
<path d="M142.513 277.002C141.47 277.002 140.586 276.923 139.861 276.764C139.158 276.583 138.58 276.299 138.127 275.914C137.696 275.506 137.379 274.996 137.175 274.384C136.971 273.749 136.869 272.967 136.869 272.038V271.46H136.699C136.381 272.48 135.837 273.251 135.067 273.772C134.319 274.271 133.412 274.52 132.347 274.52C130.828 274.52 129.638 274.112 128.777 273.296C127.938 272.48 127.519 271.324 127.519 269.828C127.519 269.193 127.621 268.604 127.825 268.06C128.029 267.493 128.357 266.949 128.811 266.428C129.287 265.884 129.887 265.351 130.613 264.83C131.338 264.286 132.222 263.719 133.265 263.13L136.699 261.158V259.458H139.079V271.698C139.079 272.627 139.317 273.262 139.793 273.602C140.269 273.919 141.005 274.078 142.003 274.078H143.193V276.322L142.513 277.002ZM132.857 271.596C134.239 271.596 135.225 271.403 135.815 271.018C136.404 270.61 136.699 269.896 136.699 268.876V263.912L133.265 265.748C132.063 266.405 131.202 267.017 130.681 267.584C130.159 268.128 129.899 268.763 129.899 269.488C129.899 270.213 130.114 270.746 130.545 271.086C130.998 271.426 131.769 271.596 132.857 271.596ZM137.787 256.636C137.333 256.636 136.971 256.511 136.699 256.262C136.427 255.99 136.291 255.559 136.291 254.97C136.291 254.381 136.427 253.961 136.699 253.712C136.971 253.44 137.333 253.304 137.787 253.304H138.161C138.614 253.304 138.977 253.44 139.249 253.712C139.521 253.961 139.657 254.381 139.657 254.97C139.657 255.559 139.521 255.99 139.249 256.262C138.977 256.511 138.614 256.636 138.161 256.636H137.787ZM133.401 256.636C132.947 256.636 132.585 256.511 132.313 256.262C132.041 255.99 131.905 255.559 131.905 254.97C131.905 254.381 132.041 253.961 132.313 253.712C132.585 253.44 132.947 253.304 133.401 253.304H133.775C134.228 253.304 134.591 253.44 134.863 253.712C135.135 253.961 135.271 254.381 135.271 254.97C135.271 255.559 135.135 255.99 134.863 256.262C134.591 256.511 134.228 256.636 133.775 256.636H133.401ZM142.499 274.758L143.179 274.078H149.469L149.503 273.942L144.709 268.026V265.102C145.706 264.581 146.783 264.184 147.939 263.912C149.117 263.617 150.262 263.47 151.373 263.47C153.435 263.47 155.033 263.889 156.167 264.728C157.323 265.567 157.901 266.734 157.901 268.23C157.901 268.819 157.821 269.341 157.663 269.794C157.527 270.225 157.289 270.655 156.949 271.086C156.609 271.517 156.167 271.959 155.623 272.412C155.079 272.865 154.421 273.387 153.651 273.976L153.685 274.078H159.431V276.322L158.751 277.002H156.541C155.634 277.002 154.75 276.877 153.889 276.628C153.05 276.356 152.268 275.959 151.543 275.438C150.817 275.959 150.024 276.356 149.163 276.628C148.324 276.877 147.451 277.002 146.545 277.002H142.499V274.758ZM146.987 267.21L151.781 272.922L152.155 272.616C152.699 272.163 153.175 271.766 153.583 271.426C154.013 271.086 154.376 270.769 154.671 270.474C154.965 270.157 155.192 269.862 155.351 269.59C155.509 269.295 155.589 268.978 155.589 268.638C155.589 267.913 155.215 267.357 154.467 266.972C153.719 266.587 152.665 266.394 151.305 266.394C150.647 266.394 149.956 266.451 149.231 266.564C148.528 266.655 147.78 266.825 146.987 267.074V267.21ZM158.735 274.758L159.415 274.078H160.571C161.568 274.078 162.486 274.044 163.325 273.976C164.186 273.908 165.059 273.783 165.943 273.602C166.827 273.398 167.756 273.115 168.731 272.752C169.728 272.389 170.85 271.913 172.097 271.324L175.225 269.828V269.692L170.193 268.57L163.155 266.836V269.76H160.775V267.142C160.775 266.19 161.036 265.476 161.557 265C162.101 264.501 162.781 264.252 163.597 264.252C163.846 264.252 164.141 264.286 164.481 264.354C164.844 264.399 165.399 264.513 166.147 264.694L174.443 266.836C175.69 267.153 176.732 267.38 177.571 267.516C178.41 267.629 179.135 267.686 179.747 267.686H180.291V270.61H177.639L173.015 273.398C171.61 274.237 170.363 274.905 169.275 275.404C168.187 275.88 167.167 276.243 166.215 276.492C165.263 276.719 164.334 276.866 163.427 276.934C162.543 276.979 161.591 277.002 160.571 277.002H158.735V274.758ZM169.581 283.802C169.128 283.802 168.765 283.666 168.493 283.394C168.221 283.145 168.085 282.725 168.085 282.136C168.085 281.547 168.221 281.116 168.493 280.844C168.765 280.595 169.128 280.47 169.581 280.47H169.955C170.408 280.47 170.771 280.595 171.043 280.844C171.315 281.116 171.451 281.547 171.451 282.136C171.451 282.725 171.315 283.145 171.043 283.394C170.771 283.666 170.408 283.802 169.955 283.802H169.581ZM183.514 251.842H186.03V277.002H183.514V251.842ZM186.527 282.238H187.785C189.032 282.238 190.052 282.057 190.845 281.694C191.639 281.331 192.262 280.844 192.715 280.232C193.169 279.643 193.486 278.94 193.667 278.124C193.849 277.331 193.939 276.492 193.939 275.608C193.939 274.951 193.905 274.271 193.837 273.568C193.769 272.843 193.679 272.151 193.565 271.494L192.851 267.652L195.231 267.176L195.673 269.76C195.809 270.553 195.911 271.301 195.979 272.004C196.07 272.707 196.138 273.398 196.183 274.078H199.413V276.322L198.733 277.002H196.149C196.059 278.113 195.843 279.155 195.503 280.13C195.186 281.127 194.699 282 194.041 282.748C193.407 283.496 192.568 284.085 191.525 284.516C190.505 284.947 189.259 285.162 187.785 285.162H186.527V282.238ZM206.021 278.158C205.295 277.75 204.627 277.455 204.015 277.274C203.403 277.115 202.666 277.025 201.805 277.002H198.745V274.758L199.425 274.078H201.975V251.842H204.491V274.384C204.989 274.497 205.477 274.656 205.953 274.86C206.429 275.064 206.939 275.313 207.483 275.608L209.217 276.594L207.755 279.144L206.021 278.158ZM210.475 251.842H212.991V277.002H210.475V251.842ZM216.684 282.238H219.03C221.773 282.238 223.802 281.637 225.116 280.436C226.431 279.235 227.088 277.557 227.088 275.404V274.656H226.918C226.601 275.404 226.068 275.993 225.32 276.424C224.595 276.855 223.734 277.07 222.736 277.07C220.923 277.07 219.518 276.594 218.52 275.642C217.523 274.667 217.024 273.307 217.024 271.562C217.024 270.542 217.172 269.579 217.466 268.672C217.784 267.765 218.214 266.983 218.758 266.326C219.302 265.646 219.948 265.113 220.696 264.728C221.467 264.32 222.306 264.116 223.212 264.116C225.162 264.116 226.692 264.955 227.802 266.632C228.913 268.309 229.468 270.667 229.468 273.704C229.468 277.308 228.596 280.119 226.85 282.136C225.128 284.153 222.521 285.162 219.03 285.162H216.684V282.238ZM223.416 274.078C224.391 274.078 225.162 273.999 225.728 273.84C226.318 273.659 226.771 273.387 227.088 273.024C227.088 271.188 226.726 269.737 226 268.672C225.275 267.584 224.278 267.04 223.008 267.04C221.852 267.04 220.957 267.425 220.322 268.196C219.71 268.967 219.404 269.975 219.404 271.222C219.404 272.219 219.665 272.945 220.186 273.398C220.73 273.851 221.58 274.078 222.736 274.078H223.416ZM253.248 277.41C250.868 277.41 248.862 277.285 247.23 277.036C245.621 276.787 244.317 276.39 243.32 275.846C242.323 275.302 241.597 274.588 241.144 273.704C240.713 272.797 240.498 271.698 240.498 270.406C240.498 269.499 240.611 268.57 240.838 267.618C241.087 266.666 241.461 265.612 241.96 264.456L244.068 265.102C243.139 267.029 242.674 268.683 242.674 270.066C242.674 271.539 243.331 272.627 244.646 273.33C245.961 274.01 248.035 274.35 250.868 274.35H255.628C257.26 274.35 258.609 274.305 259.674 274.214C260.739 274.123 261.578 273.965 262.19 273.738C262.802 273.489 263.221 273.16 263.448 272.752C263.697 272.344 263.822 271.823 263.822 271.188V265.816H266.202V271.188C266.202 273.115 267.165 274.078 269.092 274.078H270.282V276.322L269.602 277.002C266.474 277.002 264.638 275.846 264.094 273.534H263.924C263.788 274.305 263.527 274.939 263.142 275.438C262.757 275.937 262.156 276.333 261.34 276.628C260.547 276.923 259.493 277.127 258.178 277.24C256.886 277.353 255.243 277.41 253.248 277.41ZM255.152 264.456C254.699 264.456 254.336 264.331 254.064 264.082C253.792 263.81 253.656 263.379 253.656 262.79C253.656 262.201 253.792 261.781 254.064 261.532C254.336 261.26 254.699 261.124 255.152 261.124H255.526C255.979 261.124 256.342 261.26 256.614 261.532C256.886 261.781 257.022 262.201 257.022 262.79C257.022 263.379 256.886 263.81 256.614 264.082C256.342 264.331 255.979 264.456 255.526 264.456H255.152ZM250.766 264.456C250.313 264.456 249.95 264.331 249.678 264.082C249.406 263.81 249.27 263.379 249.27 262.79C249.27 262.201 249.406 261.781 249.678 261.532C249.95 261.26 250.313 261.124 250.766 261.124H251.14C251.593 261.124 251.956 261.26 252.228 261.532C252.5 261.781 252.636 262.201 252.636 262.79C252.636 263.379 252.5 263.81 252.228 264.082C251.956 264.331 251.593 264.456 251.14 264.456H250.766ZM269.6 274.758L270.28 274.078H271.47C273.397 274.078 274.36 273.115 274.36 271.188V265.816H276.74V271.188C276.74 273.115 277.704 274.078 279.63 274.078H280.82V276.322L280.14 277.002C277.012 277.002 275.176 275.891 274.632 273.67H274.462C274.213 274.917 273.726 275.789 273 276.288C272.275 276.764 271.142 277.002 269.6 277.002V274.758ZM277.556 283.802C277.103 283.802 276.74 283.666 276.468 283.394C276.196 283.145 276.06 282.725 276.06 282.136C276.06 281.547 276.196 281.116 276.468 280.844C276.74 280.595 277.103 280.47 277.556 280.47H277.93C278.384 280.47 278.746 280.595 279.018 280.844C279.29 281.116 279.426 281.547 279.426 282.136C279.426 282.725 279.29 283.145 279.018 283.394C278.746 283.666 278.384 283.802 277.93 283.802H277.556ZM273.17 283.802C272.717 283.802 272.354 283.666 272.082 283.394C271.81 283.145 271.674 282.725 271.674 282.136C271.674 281.547 271.81 281.116 272.082 280.844C272.354 280.595 272.717 280.47 273.17 280.47H273.544C273.998 280.47 274.36 280.595 274.632 280.844C274.904 281.116 275.04 281.547 275.04 282.136C275.04 282.725 274.904 283.145 274.632 283.394C274.36 283.666 273.998 283.802 273.544 283.802H273.17ZM280.126 274.758L280.806 274.078H281.996C283.922 274.078 284.886 273.115 284.886 271.188V265.816H287.266V271.188C287.266 273.115 288.229 274.078 290.156 274.078H291.346V276.322L290.666 277.002C287.538 277.002 285.702 275.891 285.158 273.67H284.988C284.738 274.917 284.251 275.789 283.526 276.288C282.8 276.764 281.667 277.002 280.126 277.002V274.758ZM285.872 283.802C285.418 283.802 285.056 283.666 284.784 283.394C284.512 283.145 284.376 282.725 284.376 282.136C284.376 281.547 284.512 281.116 284.784 280.844C285.056 280.595 285.418 280.47 285.872 280.47H286.246C286.699 280.47 287.062 280.595 287.334 280.844C287.606 281.116 287.742 281.547 287.742 282.136C287.742 282.725 287.606 283.145 287.334 283.394C287.062 283.666 286.699 283.802 286.246 283.802H285.872ZM290.651 274.758L291.331 274.078H292.521C294.448 274.078 295.411 273.115 295.411 271.188V265.816H297.791V271.188C297.791 273.115 298.754 274.078 300.681 274.078H301.871V276.322L301.191 277.002C298.063 277.002 296.227 275.891 295.683 273.67H295.513C295.264 274.917 294.776 275.789 294.051 276.288C293.326 276.764 292.192 277.002 290.651 277.002V274.758ZM298.607 261.736C298.154 261.736 297.791 261.611 297.519 261.362C297.247 261.09 297.111 260.659 297.111 260.07C297.111 259.481 297.247 259.061 297.519 258.812C297.791 258.54 298.154 258.404 298.607 258.404H298.981C299.434 258.404 299.797 258.54 300.069 258.812C300.341 259.061 300.477 259.481 300.477 260.07C300.477 260.659 300.341 261.09 300.069 261.362C299.797 261.611 299.434 261.736 298.981 261.736H298.607ZM294.221 261.736C293.768 261.736 293.405 261.611 293.133 261.362C292.861 261.09 292.725 260.659 292.725 260.07C292.725 259.481 292.861 259.061 293.133 258.812C293.405 258.54 293.768 258.404 294.221 258.404H294.595C295.048 258.404 295.411 258.54 295.683 258.812C295.955 259.061 296.091 259.481 296.091 260.07C296.091 260.659 295.955 261.09 295.683 261.362C295.411 261.611 295.048 261.736 294.595 261.736H294.221ZM296.397 257.622C295.966 257.622 295.615 257.497 295.343 257.248C295.094 256.976 294.969 256.568 294.969 256.024C294.969 255.48 295.094 255.083 295.343 254.834C295.615 254.562 295.966 254.426 296.397 254.426H296.805C297.236 254.426 297.576 254.562 297.825 254.834C298.097 255.083 298.233 255.48 298.233 256.024C298.233 256.568 298.097 256.976 297.825 257.248C297.576 257.497 297.236 257.622 296.805 257.622H296.397ZM301.176 274.758L301.856 274.078H303.046C304.973 274.078 305.936 273.115 305.936 271.188V265.816H308.316V271.188C308.316 273.115 309.28 274.078 311.206 274.078H312.396V276.322L311.716 277.002C308.588 277.002 306.752 275.891 306.208 273.67H306.038C305.789 274.917 305.302 275.789 304.576 276.288C303.851 276.764 302.718 277.002 301.176 277.002V274.758ZM309.03 261.736C308.577 261.736 308.214 261.611 307.942 261.362C307.67 261.09 307.534 260.659 307.534 260.07C307.534 259.481 307.67 259.061 307.942 258.812C308.214 258.54 308.577 258.404 309.03 258.404H309.404C309.858 258.404 310.22 258.54 310.492 258.812C310.764 259.061 310.9 259.481 310.9 260.07C310.9 260.659 310.764 261.09 310.492 261.362C310.22 261.611 309.858 261.736 309.404 261.736H309.03ZM304.644 261.736C304.191 261.736 303.828 261.611 303.556 261.362C303.284 261.09 303.148 260.659 303.148 260.07C303.148 259.481 303.284 259.061 303.556 258.812C303.828 258.54 304.191 258.404 304.644 258.404H305.018C305.472 258.404 305.834 258.54 306.106 258.812C306.378 259.061 306.514 259.481 306.514 260.07C306.514 260.659 306.378 261.09 306.106 261.362C305.834 261.611 305.472 261.736 305.018 261.736H304.644ZM311.702 274.758L312.382 274.078H313.572C315.499 274.078 316.462 273.115 316.462 271.188V251.842H318.978V271.188C318.978 273.115 319.941 274.078 321.868 274.078H323.058V276.322L322.378 277.002C319.159 277.002 317.278 275.891 316.734 273.67H316.564C316.315 274.917 315.827 275.789 315.102 276.288C314.377 276.764 313.243 277.002 311.702 277.002V274.758ZM322.393 274.758L323.073 274.078H324.059C325.147 274.078 325.929 273.829 326.405 273.33C326.904 272.831 327.153 272.038 327.153 270.95V251.842H329.669V270.95C329.669 273.035 329.216 274.565 328.309 275.54C327.425 276.515 326.009 277.002 324.059 277.002H322.393V274.758ZM366.317 277.002C365.456 277.002 364.731 276.934 364.141 276.798C363.575 276.639 363.053 276.345 362.577 275.914C361.399 276.639 359.744 277.002 357.613 277.002H341.939V274.078H345.339L346.597 271.936V251.842H349.113V264.286L348.705 268.264L348.875 268.332C349.623 267.335 350.371 266.507 351.119 265.85C351.867 265.17 352.627 264.626 353.397 264.218C354.191 263.81 354.984 263.515 355.777 263.334C356.593 263.153 357.432 263.062 358.293 263.062C360.492 263.062 362.203 263.674 363.427 264.898C364.651 266.099 365.263 267.765 365.263 269.896C365.263 271.483 365.003 272.797 364.481 273.84C364.957 273.999 365.569 274.078 366.317 274.078H366.997V276.322L366.317 277.002ZM357.613 274.078C359.313 274.078 360.617 273.795 361.523 273.228C362.43 272.661 362.883 271.664 362.883 270.236C362.883 268.831 362.521 267.777 361.795 267.074C361.093 266.349 360.095 265.986 358.803 265.986H357.783C356.877 265.986 356.049 266.077 355.301 266.258C354.576 266.417 353.873 266.711 353.193 267.142C352.536 267.55 351.879 268.128 351.221 268.876C350.587 269.601 349.907 270.519 349.181 271.63L347.719 273.908L347.821 274.078H357.613ZM389.747 277.002C388.886 277.002 388.16 276.934 387.571 276.798C387.004 276.639 386.483 276.345 386.007 275.914C384.828 276.639 383.174 277.002 381.043 277.002H366.321V274.758L367.001 274.078H368.769L370.027 271.936V251.842H372.543V264.286L372.135 268.264L372.305 268.332C373.053 267.335 373.801 266.507 374.549 265.85C375.297 265.17 376.056 264.626 376.827 264.218C377.62 263.81 378.414 263.515 379.207 263.334C380.023 263.153 380.862 263.062 381.723 263.062C383.922 263.062 385.633 263.674 386.857 264.898C388.081 266.099 388.693 267.765 388.693 269.896C388.693 271.483 388.432 272.797 387.911 273.84C388.387 273.999 388.999 274.078 389.747 274.078H390.427V276.322L389.747 277.002ZM381.043 274.078C382.743 274.078 384.046 273.795 384.953 273.228C385.86 272.661 386.313 271.664 386.313 270.236C386.313 268.831 385.95 267.777 385.225 267.074C384.522 266.349 383.525 265.986 382.233 265.986H381.213C380.306 265.986 379.479 266.077 378.731 266.258C378.006 266.417 377.303 266.711 376.623 267.142C375.966 267.55 375.308 268.128 374.651 268.876C374.016 269.601 373.336 270.519 372.611 271.63L371.149 273.908L371.251 274.078H381.043ZM389.762 274.758L390.442 274.078H391.598C392.596 274.078 393.514 274.044 394.352 273.976C395.214 273.908 396.086 273.783 396.97 273.602C397.854 273.398 398.784 273.115 399.758 272.752C400.756 272.389 401.878 271.913 403.124 271.324L406.252 269.828V269.692L401.22 268.57L394.182 266.836V269.76H391.802V267.142C391.802 266.19 392.063 265.476 392.584 265C393.128 264.501 393.808 264.252 394.624 264.252C394.874 264.252 395.168 264.286 395.508 264.354C395.871 264.399 396.426 264.513 397.174 264.694L405.47 266.836C406.717 267.153 407.76 267.38 408.598 267.516C409.437 267.629 410.162 267.686 410.774 267.686H411.318V270.61H408.666L404.042 273.398C402.637 274.237 401.39 274.905 400.302 275.404C399.214 275.88 398.194 276.243 397.242 276.492C396.29 276.719 395.361 276.866 394.454 276.934C393.57 276.979 392.618 277.002 391.598 277.002H389.762V274.758ZM398.874 260.376C398.421 260.376 398.058 260.251 397.786 260.002C397.514 259.73 397.378 259.299 397.378 258.71C397.378 258.121 397.514 257.701 397.786 257.452C398.058 257.18 398.421 257.044 398.874 257.044H399.248C399.702 257.044 400.064 257.18 400.336 257.452C400.608 257.701 400.744 258.121 400.744 258.71C400.744 259.299 400.608 259.73 400.336 260.002C400.064 260.251 399.702 260.376 399.248 260.376H398.874Z" fill="#3C3C3B"/>
<path d="M91.2365 335.447H94.3482L94.4469 335.249C93.8872 334.393 93.4921 333.603 93.2616 332.879C93.0311 332.121 92.9158 331.282 92.9158 330.36C92.9158 329.273 93.1134 328.252 93.5085 327.298C93.9366 326.343 94.5128 325.52 95.2372 324.828C95.9945 324.104 96.8671 323.544 97.8549 323.149C98.8756 322.721 99.9952 322.507 101.213 322.507C102.926 322.507 104.49 322.885 105.906 323.643C107.321 324.4 108.49 325.47 109.412 326.853L104.918 330.903C104.391 330.146 103.782 329.619 103.09 329.323C102.399 328.993 101.625 328.829 100.769 328.829C99.8799 328.829 99.1391 329.059 98.5464 329.52C97.9537 329.981 97.6573 330.623 97.6573 331.446C97.6573 332.401 98.1677 333.208 99.1884 333.867C100.209 334.525 101.658 334.854 103.535 334.854H110.252V341.127H91.2365V335.447ZM114.674 304.578H119.958V341.127H114.674V304.578ZM120.173 346.511H122.1C125.261 346.511 127.516 345.786 128.866 344.337C130.216 342.921 130.875 340.847 130.842 338.114C130.842 337.291 130.792 336.435 130.694 335.546C130.595 334.624 130.463 333.685 130.298 332.731L129.261 326.458L134.052 325.668L134.793 330.014C135.089 331.66 135.287 333.208 135.386 334.657H139.979V339.793L138.645 341.127H135.386C135.155 342.905 134.711 344.518 134.052 345.967C133.394 347.416 132.521 348.651 131.434 349.672C130.348 350.725 129.031 351.532 127.483 352.092C125.936 352.684 124.157 352.981 122.149 352.981H120.173V346.511ZM130.496 321.124C129.706 321.124 129.047 320.893 128.52 320.432C128.026 319.938 127.779 319.165 127.779 318.111C127.779 317.024 128.026 316.251 128.52 315.79C129.047 315.296 129.706 315.049 130.496 315.049H131.336C132.126 315.049 132.768 315.296 133.262 315.79C133.789 316.251 134.052 317.024 134.052 318.111C134.052 319.165 133.789 319.938 133.262 320.432C132.768 320.893 132.126 321.124 131.336 321.124H130.496ZM138.637 335.99L139.97 334.657H142.884C144.596 334.657 146.16 334.624 147.576 334.558C148.992 334.492 150.342 334.36 151.626 334.163C152.91 333.932 154.195 333.603 155.479 333.175C156.796 332.747 158.228 332.154 159.776 331.397L162.393 330.113V329.866L154.689 328.236L146.391 326.162V330.063H141.402V326.26C141.402 322.243 143.246 320.235 146.934 320.235C147.165 320.235 147.412 320.251 147.675 320.284C147.938 320.284 148.235 320.317 148.564 320.383C148.926 320.449 149.354 320.548 149.848 320.679C150.342 320.778 150.935 320.926 151.626 321.124L161.9 323.791C163.381 324.153 164.83 324.433 166.246 324.63C167.695 324.828 169.061 324.927 170.345 324.927H171.284V331.446H167.382L162.146 334.854C160.006 336.237 158.096 337.357 156.417 338.213C154.738 339.036 153.141 339.662 151.626 340.09C150.145 340.518 148.696 340.798 147.28 340.929C145.897 341.061 144.432 341.127 142.884 341.127H138.637V335.99ZM155.281 351.499C154.491 351.499 153.832 351.252 153.306 350.758C152.812 350.297 152.565 349.54 152.565 348.486C152.565 347.4 152.812 346.609 153.306 346.115C153.832 345.654 154.491 345.424 155.281 345.424H156.121C156.911 345.424 157.553 345.654 158.047 346.115C158.574 346.609 158.837 347.4 158.837 348.486C158.837 349.54 158.574 350.297 158.047 350.758C157.553 351.252 156.911 351.499 156.121 351.499H155.281ZM174.657 334.706L183.399 326.655L171.545 314.802L175.398 310.85L187.449 322.902C188.272 322.079 188.832 321.255 189.128 320.432C189.458 319.576 189.622 318.424 189.622 316.975V304.578H194.858V316.975C194.858 317.963 194.775 318.852 194.611 319.642C194.479 320.399 194.249 321.14 193.919 321.865C193.59 322.556 193.146 323.231 192.586 323.89C192.026 324.548 191.335 325.24 190.511 325.964L192.685 328.088C193.343 328.746 193.886 329.356 194.314 329.915C194.775 330.475 195.138 331.035 195.401 331.595C195.697 332.121 195.895 332.665 195.994 333.224C196.125 333.784 196.191 334.377 196.191 335.003C196.191 335.859 196.043 336.665 195.747 337.423C195.45 338.147 195.022 338.789 194.463 339.349C193.936 339.909 193.294 340.353 192.536 340.682C191.779 340.979 190.939 341.127 190.017 341.127H174.657V334.706ZM186.363 329.57L180.781 334.459L180.831 334.657H191.499L186.363 329.57ZM173.966 304.973H175.941L175.991 304.775C175.365 304.051 175.052 303.178 175.052 302.158C175.052 300.808 175.53 299.688 176.484 298.799C177.472 297.91 178.707 297.466 180.189 297.466C181.078 297.466 181.95 297.663 182.806 298.058C183.695 298.453 184.42 298.98 184.98 299.639L182.757 302.652C182 301.861 181.144 301.466 180.189 301.466C179.629 301.466 179.168 301.614 178.806 301.911C178.444 302.174 178.263 302.503 178.263 302.899C178.263 304.084 179.415 304.677 181.72 304.677H185.227V308.677H173.966V304.973ZM201.252 304.578H206.537V341.127H201.252V304.578ZM242.477 341.72C238.921 341.72 235.925 341.522 233.488 341.127C231.085 340.765 229.125 340.156 227.611 339.299C226.129 338.41 225.059 337.258 224.4 335.842C223.742 334.426 223.413 332.698 223.413 330.656C223.413 329.339 223.577 327.923 223.906 326.409C224.269 324.861 224.779 323.297 225.438 321.716L229.685 322.951C229.092 324.169 228.631 325.322 228.302 326.409C227.973 327.495 227.808 328.466 227.808 329.323C227.808 330.31 228.006 331.15 228.401 331.842C228.829 332.533 229.504 333.093 230.426 333.521C231.348 333.949 232.533 334.262 233.982 334.459C235.464 334.657 237.258 334.756 239.366 334.756H246.28C248.618 334.756 250.544 334.706 252.059 334.607C253.574 334.476 254.759 334.278 255.615 334.015C256.504 333.718 257.113 333.323 257.443 332.829C257.805 332.335 257.986 331.71 257.986 330.952V323.692H262.826V330.952C262.826 333.422 264.176 334.657 266.876 334.657H268.407V339.793L267.074 341.127C264.604 341.127 262.678 340.633 261.295 339.645C259.945 338.657 259.04 337.093 258.579 334.953H258.282C258.019 336.237 257.558 337.307 256.899 338.164C256.274 339.02 255.335 339.711 254.084 340.238C252.866 340.765 251.302 341.143 249.392 341.374C247.515 341.604 245.21 341.72 242.477 341.72ZM246.033 323.099C245.243 323.099 244.585 322.869 244.058 322.408C243.564 321.914 243.317 321.14 243.317 320.087C243.317 319 243.564 318.226 244.058 317.765C244.585 317.271 245.243 317.024 246.033 317.024H246.873C247.663 317.024 248.305 317.271 248.799 317.765C249.326 318.226 249.59 319 249.59 320.087C249.59 321.14 249.326 321.914 248.799 322.408C248.305 322.869 247.663 323.099 246.873 323.099H246.033ZM238.674 323.099C237.884 323.099 237.225 322.869 236.699 322.408C236.205 321.914 235.958 321.14 235.958 320.087C235.958 319 236.205 318.226 236.699 317.765C237.225 317.271 237.884 317.024 238.674 317.024H239.514C240.304 317.024 240.946 317.271 241.44 317.765C241.967 318.226 242.23 319 242.23 320.087C242.23 321.14 241.967 321.914 241.44 322.408C240.946 322.869 240.304 323.099 239.514 323.099H238.674ZM267.081 335.99L268.415 334.657H269.946C272.646 334.657 273.996 333.422 273.996 330.952V323.692H278.836V330.952C278.836 333.422 280.071 334.657 282.54 334.657H284.417V339.793L283.084 341.127C280.548 341.127 278.606 340.633 277.256 339.645C275.906 338.657 275 337.11 274.539 335.003H274.292C273.864 337.176 273.09 338.74 271.971 339.695C270.884 340.65 269.254 341.127 267.081 341.127V335.99ZM279.676 351.499C278.886 351.499 278.227 351.252 277.7 350.758C277.206 350.297 276.959 349.54 276.959 348.486C276.959 347.4 277.206 346.609 277.7 346.115C278.227 345.654 278.886 345.424 279.676 345.424H280.515C281.306 345.424 281.948 345.654 282.442 346.115C282.969 346.609 283.232 347.4 283.232 348.486C283.232 349.54 282.969 350.297 282.442 350.758C281.948 351.252 281.306 351.499 280.515 351.499H279.676ZM272.317 351.499C271.526 351.499 270.868 351.252 270.341 350.758C269.847 350.297 269.6 349.54 269.6 348.486C269.6 347.4 269.847 346.609 270.341 346.115C270.868 345.654 271.526 345.424 272.317 345.424H273.156C273.947 345.424 274.589 345.654 275.082 346.115C275.609 346.609 275.873 347.4 275.873 348.486C275.873 349.54 275.609 350.297 275.082 350.758C274.589 351.252 273.947 351.499 273.156 351.499H272.317ZM283.095 335.99L284.428 334.657H285.959C288.659 334.657 290.009 333.422 290.009 330.952V323.692H294.85V330.952C294.85 333.422 296.084 334.657 298.554 334.657H300.431V339.793L299.097 341.127C296.562 341.127 294.619 340.633 293.269 339.645C291.919 338.657 291.014 337.11 290.553 335.003H290.306C289.878 337.176 289.104 338.74 287.984 339.695C286.898 340.65 285.268 341.127 283.095 341.127V335.99ZM291.985 351.499C291.195 351.499 290.536 351.252 290.009 350.758C289.515 350.297 289.268 349.54 289.268 348.486C289.268 347.4 289.515 346.609 290.009 346.115C290.536 345.654 291.195 345.424 291.985 345.424H292.825C293.615 345.424 294.257 345.654 294.751 346.115C295.278 346.609 295.541 347.4 295.541 348.486C295.541 349.54 295.278 350.297 294.751 350.758C294.257 351.252 293.615 351.499 292.825 351.499H291.985ZM299.108 335.99L300.442 334.657H301.973C304.673 334.657 306.023 333.422 306.023 330.952V323.692H310.863V330.952C310.863 333.422 312.098 334.657 314.567 334.657H316.444V339.793L315.111 341.127C312.575 341.127 310.632 340.633 309.282 339.645C307.932 338.657 307.027 337.11 306.566 335.003H306.319C305.891 337.176 305.117 338.74 303.998 339.695C302.911 340.65 301.281 341.127 299.108 341.127V335.99ZM311.703 319.148C310.945 319.148 310.303 318.918 309.776 318.457C309.282 317.963 309.035 317.189 309.035 316.135C309.035 315.049 309.282 314.275 309.776 313.814C310.303 313.32 310.945 313.073 311.703 313.073H312.592C313.349 313.073 313.975 313.32 314.468 313.814C314.995 314.275 315.259 315.049 315.259 316.135C315.259 317.189 314.995 317.963 314.468 318.457C313.975 318.918 313.349 319.148 312.592 319.148H311.703ZM304.343 319.148C303.553 319.148 302.895 318.918 302.368 318.457C301.874 317.963 301.627 317.189 301.627 316.135C301.627 315.049 301.874 314.275 302.368 313.814C302.895 313.32 303.553 313.073 304.343 313.073H305.183C305.973 313.073 306.615 313.32 307.109 313.814C307.636 314.275 307.9 315.049 307.9 316.135C307.9 317.189 307.636 317.963 307.109 318.457C306.615 318.918 305.973 319.148 305.183 319.148H304.343ZM308.048 312.332C307.257 312.332 306.615 312.102 306.121 311.641C305.628 311.147 305.381 310.373 305.381 309.319C305.381 308.266 305.628 307.492 306.121 306.998C306.615 306.504 307.257 306.257 308.048 306.257H308.887C309.678 306.257 310.32 306.504 310.814 306.998C311.307 307.492 311.554 308.266 311.554 309.319C311.554 310.373 311.307 311.147 310.814 311.641C310.32 312.102 309.678 312.332 308.887 312.332H308.048ZM315.121 335.99L316.455 334.657H317.69C319.995 334.657 321.575 334.426 322.431 333.965C323.32 333.471 323.765 332.599 323.765 331.348C323.765 330.821 323.715 330.162 323.617 329.372C323.551 328.549 323.403 327.462 323.172 326.112L322.382 321.667L327.222 320.877L327.914 325.322C328.078 326.441 328.21 327.545 328.309 328.631C328.407 329.685 328.457 330.59 328.457 331.348C328.457 334.706 327.601 337.176 325.889 338.756C324.176 340.337 321.443 341.127 317.69 341.127H315.121V335.99ZM327.321 316.333C326.531 316.333 325.872 316.102 325.345 315.641C324.851 315.147 324.604 314.374 324.604 313.32C324.604 312.233 324.851 311.46 325.345 310.999C325.872 310.505 326.531 310.258 327.321 310.258H328.16C328.951 310.258 329.593 310.505 330.087 310.999C330.614 311.46 330.877 312.233 330.877 313.32C330.877 314.374 330.614 315.147 330.087 315.641C329.593 316.102 328.951 316.333 328.16 316.333H327.321ZM319.962 316.333C319.171 316.333 318.513 316.102 317.986 315.641C317.492 315.147 317.245 314.374 317.245 313.32C317.245 312.233 317.492 311.46 317.986 310.999C318.513 310.505 319.171 310.258 319.962 310.258H320.801C321.592 310.258 322.234 310.505 322.728 310.999C323.254 311.46 323.518 312.233 323.518 313.32C323.518 314.374 323.254 315.147 322.728 315.641C322.234 316.102 321.592 316.333 320.801 316.333H319.962ZM379.905 341.127C378.719 341.127 377.633 340.995 376.645 340.732C375.69 340.468 374.784 339.991 373.928 339.299C371.92 340.518 369.088 341.127 365.433 341.127H343.652V334.657H348.048L349.48 332.187V304.578H354.715V318.802L354.123 324.581L354.419 324.729C356.263 322.655 358.173 321.19 360.148 320.333C362.157 319.477 364.363 319.049 366.767 319.049C370.454 319.049 373.237 320.054 375.114 322.062C377.023 324.071 377.978 326.87 377.978 330.459C377.978 331.216 377.929 331.94 377.83 332.632C377.764 333.29 377.649 333.899 377.484 334.459C377.88 334.525 378.275 334.574 378.67 334.607C379.065 334.64 379.476 334.657 379.905 334.657H381.238V339.793L379.905 341.127ZM365.433 334.657C368.364 334.657 370.438 334.36 371.656 333.768C372.875 333.142 373.484 331.99 373.484 330.31C373.484 328.697 373.006 327.495 372.051 326.705C371.097 325.915 369.582 325.52 367.507 325.52H366.026C364.577 325.52 363.309 325.602 362.223 325.766C361.136 325.898 360.132 326.178 359.21 326.606C358.321 327.001 357.498 327.577 356.74 328.335C355.983 329.059 355.226 329.998 354.468 331.15L352.345 334.36L352.493 334.657H365.433ZM415.41 341.127C414.225 341.127 413.138 340.995 412.15 340.732C411.196 340.468 410.29 339.991 409.434 339.299C407.425 340.518 404.594 341.127 400.939 341.127H379.898V335.99L381.232 334.657H383.553L384.986 332.187V304.578H390.221V318.802L389.628 324.581L389.925 324.729C391.769 322.655 393.678 321.19 395.654 320.333C397.663 319.477 399.869 319.049 402.272 319.049C405.96 319.049 408.743 320.054 410.619 322.062C412.529 324.071 413.484 326.87 413.484 330.459C413.484 331.216 413.435 331.94 413.336 332.632C413.27 333.29 413.155 333.899 412.99 334.459C413.385 334.525 413.78 334.574 414.175 334.607C414.571 334.64 414.982 334.657 415.41 334.657H416.744V339.793L415.41 341.127ZM400.939 334.657C403.869 334.657 405.944 334.36 407.162 333.768C408.38 333.142 408.989 331.99 408.989 330.31C408.989 328.697 408.512 327.495 407.557 326.705C406.602 325.915 405.088 325.52 403.013 325.52H401.531C400.083 325.52 398.815 325.602 397.728 325.766C396.642 325.898 395.638 326.178 394.716 326.606C393.827 327.001 393.003 327.577 392.246 328.335C391.489 329.059 390.731 329.998 389.974 331.15L387.85 334.36L387.998 334.657H400.939ZM415.398 335.99L416.731 334.657H419.645C421.358 334.657 422.922 334.624 424.338 334.558C425.753 334.492 427.103 334.36 428.388 334.163C429.672 333.932 430.956 333.603 432.24 333.175C433.557 332.747 434.99 332.154 436.537 331.397L439.155 330.113V329.866L431.45 328.236L423.152 326.162V330.063H418.164V326.26C418.164 322.243 420.008 320.235 423.696 320.235C423.926 320.235 424.173 320.251 424.436 320.284C424.7 320.284 424.996 320.317 425.325 320.383C425.688 320.449 426.116 320.548 426.61 320.679C427.103 320.778 427.696 320.926 428.388 321.124L438.661 323.791C440.143 324.153 441.591 324.433 443.007 324.63C444.456 324.828 445.823 324.927 447.107 324.927H448.045V331.446H444.143L438.908 334.854C436.768 336.237 434.858 337.357 433.179 338.213C431.499 339.036 429.902 339.662 428.388 340.09C426.906 340.518 425.457 340.798 424.041 340.929C422.658 341.061 421.193 341.127 419.645 341.127H415.398V335.99ZM429.524 315.79C428.733 315.79 428.075 315.559 427.548 315.098C427.054 314.604 426.807 313.83 426.807 312.777C426.807 311.69 427.054 310.916 427.548 310.455C428.075 309.961 428.733 309.714 429.524 309.714H430.363C431.154 309.714 431.796 309.961 432.29 310.455C432.816 310.916 433.08 311.69 433.08 312.777C433.08 313.83 432.816 314.604 432.29 315.098C431.796 315.559 431.154 315.79 430.363 315.79H429.524Z" fill="#9B2226"/>
<g opacity="0.04">
<path d="M290.951 356.859C292.317 357.072 293.684 357.284 295.091 357.502C296.373 357.947 297.654 358.392 298.974 358.85C301.584 364.504 303.596 369.794 305.493 375.687C306.085 377.436 306.677 379.185 307.287 380.987C309.228 386.746 311.122 392.519 313.015 398.294C314.338 402.259 315.665 406.224 316.995 410.188C319.708 418.291 322.404 426.4 325.088 434.514C328.799 445.704 332.613 456.858 336.457 468.004C338.139 472.906 339.819 477.809 341.498 482.712C342.564 485.82 343.636 488.926 344.712 492.031C346.198 496.327 347.661 500.63 349.118 504.936C349.945 507.349 350.773 509.763 351.625 512.25C353.13 518.117 353.13 518.117 351.124 524.09C346.431 526.793 341.854 529.148 336.958 531.431C334.038 532.833 331.118 534.235 328.199 535.638C325.935 536.714 325.935 536.714 323.625 537.813C314.893 542.002 306.258 546.387 297.607 550.738C290.807 554.128 283.992 557.17 276.911 559.925C280.678 544.078 285.142 528.666 290.45 513.265C291.863 509.114 293.276 504.964 294.689 500.814C295.754 497.699 295.754 497.699 296.84 494.522C298.939 488.357 301.011 482.184 303.072 476.006C303.713 474.087 304.353 472.167 305.013 470.189C306.23 466.538 307.446 462.888 308.66 459.236C309.205 457.608 309.75 455.979 310.311 454.301C311.025 452.162 311.025 452.162 311.753 449.979C313.015 446.447 313.015 446.447 315.02 442.465C203.888 468.672 113.149 518.121 30.2039 595.76C22.0971 592.583 16.9111 586.833 11.0239 580.704C0.0282149 569.541 -11.536 559.574 -23.9514 549.971C-25.9707 548.377 -27.99 546.783 -30.0705 545.141C-93.3546 495.549 -167.544 460.913 -246.307 443.912C-252.607 442.465 -252.607 442.465 -256.618 440.475C-256.155 441.842 -255.693 443.21 -255.216 444.619C-246.541 470.283 -237.923 495.966 -229.541 521.726C-228.863 523.787 -228.186 525.849 -227.488 527.974C-224.482 537.264 -221.713 546.216 -220.515 555.943C-237.247 551.082 -252.314 543.49 -267.775 535.661C-270.398 534.345 -273.022 533.029 -275.645 531.715C-282.013 528.522 -288.372 525.315 -294.728 522.099C-288.445 500.145 -280.701 478.651 -273.188 457.091C-272.005 453.691 -270.822 450.291 -269.64 446.89C-269.051 445.196 -268.461 443.501 -267.854 441.755C-264.455 431.937 -261.161 422.093 -257.983 412.202C-256.083 406.295 -254.147 400.401 -252.207 394.507C-251.31 391.741 -250.431 388.969 -249.573 386.191C-243.098 365.267 -243.098 365.267 -237.374 359.747C-225.276 353.648 -210.854 358.322 -198.687 362.157C-146.238 379.714 -98.3298 405.728 -54.0376 438.484C-52.8104 439.386 -51.5833 440.289 -50.3189 441.219C-30.9286 455.589 -13.2618 471.576 4.12913 488.255C5.8149 489.869 7.50067 491.483 9.23752 493.146C16.7277 500.455 23.6422 507.985 30.2039 516.126C36.5769 509.827 42.9025 503.483 49.2115 497.12C83.1244 463.031 83.1244 463.031 102.411 448.438C104.56 446.707 106.704 444.97 108.843 443.227C147.339 412.088 192.532 386.635 238.802 368.804C240.475 368.159 242.148 367.514 243.871 366.85C249.269 364.8 254.684 362.809 260.113 360.841C261.802 360.213 263.49 359.584 265.23 358.937C274.642 355.639 281.042 354.09 290.951 356.859Z" fill="#9B2226"/>
<path d="M28.2131 56.4727C28.875 56.4727 29.5369 56.4727 30.2188 56.4727C30.5834 58.3743 30.948 60.2759 31.3236 62.2352C43.359 123.68 69.4713 174.95 122.805 210.903C158.544 233.864 196.86 244.628 238.817 249.584C238.817 250.241 238.817 250.898 238.817 251.575C236.34 251.867 233.863 252.16 231.311 252.461C183.383 258.563 138.568 274.531 102.426 307.318C100.75 308.701 99.075 310.085 97.3488 311.51C65.4935 338.298 45.6861 375.094 35.9854 415.072C35.6467 416.419 35.308 417.767 34.959 419.155C33.027 426.961 31.4408 434.749 30.2188 442.695C29.5569 442.695 28.895 442.695 28.2131 442.695C28.0631 441.386 27.9132 440.077 27.7587 438.729C20.2106 384.523 -8.33321 332.813 -52.3146 299.363C-92.2612 271.499 -134.226 257.866 -182.391 251.575C-182.391 250.918 -182.391 250.261 -182.391 249.584C-179.867 249.268 -177.344 248.953 -174.744 248.627C-128.272 242.49 -84.2522 228.462 -48.0054 197.822C-46.2627 196.39 -44.5201 194.958 -42.7246 193.483C-2.09419 158.827 22.688 109.167 28.2131 56.4727Z" fill="#9B2226"/>
<path d="M277.341 -4.08753C278.277 -3.15144 279.213 -2.21535 280.178 -1.25089C254.143 35.3717 223.954 68.9605 184.444 91.649C183.508 90.7129 182.572 89.7768 181.607 88.8123C205.979 51.1905 238.466 18.6441 277.341 -4.08753Z" fill="#9B2226"/>
<path d="M277.312 -4.09252C278.248 -3.15643 279.184 -2.22034 280.148 -1.25588C271.713 13.3357 260.527 24.2863 248.23 35.6277C246.691 37.0573 245.151 38.487 243.566 39.96C236.278 46.5656 230.318 51.5202 221.014 55.0429C221.472 52.7132 221.93 50.3834 222.401 47.9831C217.752 51.696 213.103 55.4089 208.313 59.2344C207.845 58.7663 207.377 58.2983 206.895 57.816C212.817 51.6801 218.769 45.5757 224.747 39.4959C226.767 37.4341 228.779 35.3647 230.782 33.2869C245.094 18.454 259.655 6.64467 277.312 -4.09252Z" fill="#9B2226"/>
<path d="M251.944 15.5684C252.412 16.0365 252.88 16.5045 253.363 16.9867C251.04 19.3095 248.717 21.6322 246.324 24.0254C247.26 24.9615 248.196 25.8976 249.161 26.862C243.401 38.4461 237.194 47.6761 225.24 53.6196C223.843 54.0806 222.446 54.5417 221.007 55.0167C221.464 52.687 221.922 50.3572 222.393 47.9569C217.744 51.6698 213.096 55.3827 208.306 59.2082C207.838 58.7401 207.37 58.2721 206.888 57.7899C212.272 52.3228 217.672 46.8722 223.075 41.4243C224.592 39.8835 226.109 38.3428 227.672 36.7554C235.383 28.9965 242.93 21.7866 251.944 15.5684Z" fill="#9B2226"/>
<path d="M208.36 64.8647C208.828 65.3327 209.296 65.8008 209.778 66.283C203.642 76.7307 195.062 85.7483 184.439 91.6222C183.503 90.6861 182.567 89.75 181.603 88.7856C184.799 82.8798 188.674 78.4104 193.38 73.6399C194.697 72.2824 196.014 70.9248 197.371 69.5262C201.3 66.2513 201.3 66.2513 208.36 64.8647Z" fill="#9B2226"/>
<path d="M190.011 77.5098C191.883 79.3819 193.755 81.2541 195.684 83.183C191.964 85.9669 188.244 88.7507 184.412 91.6189C183.476 90.6828 182.54 89.7467 181.575 88.7822C184.359 85.0623 187.143 81.3424 190.011 77.5098Z" fill="#9B2226"/>
<path d="M261.985 252.123C261.985 250.799 261.985 249.475 261.985 248.111C306.29 240.625 351.387 238.221 395.368 250.117C395.368 251.441 395.368 252.765 395.368 254.129C351.532 263.497 305.547 263.539 261.985 252.123Z" fill="#9B2226"/>
<path d="M261.992 252.159C261.992 250.835 261.992 249.511 261.992 248.147C278.274 243.794 293.927 243.961 310.642 244.637C312.741 244.715 314.84 244.792 317.003 244.872C326.827 245.354 334.545 246.065 343.614 250.153C341.643 251.477 339.672 252.801 337.642 254.165C343.554 254.827 349.467 255.489 355.559 256.171C355.559 256.832 355.559 257.494 355.559 258.176C347.033 258.328 338.508 258.436 329.982 258.507C327.096 258.537 324.21 258.577 321.324 258.63C300.716 258.998 282.069 257.052 261.992 252.159Z" fill="#9B2226"/>
<path d="M293.775 256.133C293.775 255.472 293.775 254.81 293.775 254.128C297.06 254.128 300.345 254.128 303.729 254.128C303.729 252.804 303.729 251.48 303.729 250.116C315.993 245.997 326.908 243.86 339.563 248.11C340.877 248.772 342.191 249.434 343.545 250.116C341.574 251.44 339.603 252.764 337.573 254.128C343.485 254.79 349.398 255.451 355.49 256.133C355.49 256.795 355.49 257.457 355.49 258.139C347.817 258.198 340.144 258.233 332.471 258.265C330.309 258.281 328.147 258.298 325.919 258.316C314.981 258.349 304.546 258.111 293.775 256.133Z" fill="#9B2226"/>
<path d="M359.48 252.114C359.48 251.452 359.48 250.79 359.48 250.108C371.206 247.059 383.65 246.75 395.315 250.108C395.315 251.432 395.315 252.756 395.315 254.12C388.879 256.036 382.978 256.456 376.278 256.502C374.386 256.53 372.495 256.559 370.546 256.588C365.453 256.126 365.453 256.126 359.48 252.114Z" fill="#9B2226"/>
<path d="M381.419 256.17C381.419 253.522 381.419 250.875 381.419 248.147C386.018 248.809 390.616 249.471 395.354 250.153C395.354 251.476 395.354 252.8 395.354 254.164C390.756 254.826 386.157 255.488 381.419 256.17Z" fill="#9B2226"/>
</g>
</g>
<rect x="0.5" y="0.5" width="537" height="537" rx="34.5" stroke="#9B2226"/>
<defs>
<linearGradient id="paint0_linear_734_2388" x1="26.5" y1="11" x2="603.5" y2="603" gradientUnits="userSpaceOnUse">
<stop stop-color="#F2EFEB"/>
<stop offset="1" stop-color="#FFFBF6"/>
</linearGradient>
<clipPath id="clip0_734_2388">
<rect width="538" height="538" rx="35" fill="white"/>
</clipPath>
</defs>
</svg>
