<svg width="538" height="538" viewBox="0 0 538 538" fill="none" xmlns="http://www.w3.org/2000/svg">
<g clip-path="url(#clip0_734_2407)">
<rect width="538" height="538" rx="35" fill="url(#paint0_linear_734_2407)"/>
<path d="M264.208 227.502V221.472H250.393V215.712L262.633 196.092H270.643V216.252H274.603V221.472H270.643V227.502H264.208ZM255.793 216.252H264.208V203.067H263.758L255.793 216.252ZM283.001 227.997C281.651 227.997 280.646 227.667 279.986 227.007C279.356 226.317 279.041 225.447 279.041 224.397V223.497C279.041 222.447 279.356 221.592 279.986 220.932C280.646 220.242 281.651 219.897 283.001 219.897C284.351 219.897 285.341 220.242 285.971 220.932C286.631 221.592 286.961 222.447 286.961 223.497V224.397C286.961 225.447 286.631 226.317 285.971 227.007C285.341 227.667 284.351 227.997 283.001 227.997Z" fill="#3C3C3B"/>
<path d="M142.513 278.502C141.47 278.502 140.586 278.423 139.861 278.264C139.158 278.083 138.58 277.799 138.127 277.414C137.696 277.006 137.379 276.496 137.175 275.884C136.971 275.249 136.869 274.467 136.869 273.538V272.96H136.699C136.381 273.98 135.837 274.751 135.067 275.272C134.319 275.771 133.412 276.02 132.347 276.02C130.828 276.02 129.638 275.612 128.777 274.796C127.938 273.98 127.519 272.824 127.519 271.328C127.519 270.693 127.621 270.104 127.825 269.56C128.029 268.993 128.357 268.449 128.811 267.928C129.287 267.384 129.887 266.851 130.613 266.33C131.338 265.786 132.222 265.219 133.265 264.63L136.699 262.658V260.958H139.079V273.198C139.079 274.127 139.317 274.762 139.793 275.102C140.269 275.419 141.005 275.578 142.003 275.578H143.193V277.822L142.513 278.502ZM132.857 273.096C134.239 273.096 135.225 272.903 135.815 272.518C136.404 272.11 136.699 271.396 136.699 270.376V265.412L133.265 267.248C132.063 267.905 131.202 268.517 130.681 269.084C130.159 269.628 129.899 270.263 129.899 270.988C129.899 271.713 130.114 272.246 130.545 272.586C130.998 272.926 131.769 273.096 132.857 273.096ZM137.787 258.136C137.333 258.136 136.971 258.011 136.699 257.762C136.427 257.49 136.291 257.059 136.291 256.47C136.291 255.881 136.427 255.461 136.699 255.212C136.971 254.94 137.333 254.804 137.787 254.804H138.161C138.614 254.804 138.977 254.94 139.249 255.212C139.521 255.461 139.657 255.881 139.657 256.47C139.657 257.059 139.521 257.49 139.249 257.762C138.977 258.011 138.614 258.136 138.161 258.136H137.787ZM133.401 258.136C132.947 258.136 132.585 258.011 132.313 257.762C132.041 257.49 131.905 257.059 131.905 256.47C131.905 255.881 132.041 255.461 132.313 255.212C132.585 254.94 132.947 254.804 133.401 254.804H133.775C134.228 254.804 134.591 254.94 134.863 255.212C135.135 255.461 135.271 255.881 135.271 256.47C135.271 257.059 135.135 257.49 134.863 257.762C134.591 258.011 134.228 258.136 133.775 258.136H133.401ZM142.499 276.258L143.179 275.578H149.469L149.503 275.442L144.709 269.526V266.602C145.706 266.081 146.783 265.684 147.939 265.412C149.117 265.117 150.262 264.97 151.373 264.97C153.435 264.97 155.033 265.389 156.167 266.228C157.323 267.067 157.901 268.234 157.901 269.73C157.901 270.319 157.821 270.841 157.663 271.294C157.527 271.725 157.289 272.155 156.949 272.586C156.609 273.017 156.167 273.459 155.623 273.912C155.079 274.365 154.421 274.887 153.651 275.476L153.685 275.578H159.431V277.822L158.751 278.502H156.541C155.634 278.502 154.75 278.377 153.889 278.128C153.05 277.856 152.268 277.459 151.543 276.938C150.817 277.459 150.024 277.856 149.163 278.128C148.324 278.377 147.451 278.502 146.545 278.502H142.499V276.258ZM146.987 268.71L151.781 274.422L152.155 274.116C152.699 273.663 153.175 273.266 153.583 272.926C154.013 272.586 154.376 272.269 154.671 271.974C154.965 271.657 155.192 271.362 155.351 271.09C155.509 270.795 155.589 270.478 155.589 270.138C155.589 269.413 155.215 268.857 154.467 268.472C153.719 268.087 152.665 267.894 151.305 267.894C150.647 267.894 149.956 267.951 149.231 268.064C148.528 268.155 147.78 268.325 146.987 268.574V268.71ZM158.735 276.258L159.415 275.578H160.571C161.568 275.578 162.486 275.544 163.325 275.476C164.186 275.408 165.059 275.283 165.943 275.102C166.827 274.898 167.756 274.615 168.731 274.252C169.728 273.889 170.85 273.413 172.097 272.824L175.225 271.328V271.192L170.193 270.07L163.155 268.336V271.26H160.775V268.642C160.775 267.69 161.036 266.976 161.557 266.5C162.101 266.001 162.781 265.752 163.597 265.752C163.846 265.752 164.141 265.786 164.481 265.854C164.844 265.899 165.399 266.013 166.147 266.194L174.443 268.336C175.69 268.653 176.732 268.88 177.571 269.016C178.41 269.129 179.135 269.186 179.747 269.186H180.291V272.11H177.639L173.015 274.898C171.61 275.737 170.363 276.405 169.275 276.904C168.187 277.38 167.167 277.743 166.215 277.992C165.263 278.219 164.334 278.366 163.427 278.434C162.543 278.479 161.591 278.502 160.571 278.502H158.735V276.258ZM169.581 285.302C169.128 285.302 168.765 285.166 168.493 284.894C168.221 284.645 168.085 284.225 168.085 283.636C168.085 283.047 168.221 282.616 168.493 282.344C168.765 282.095 169.128 281.97 169.581 281.97H169.955C170.408 281.97 170.771 282.095 171.043 282.344C171.315 282.616 171.451 283.047 171.451 283.636C171.451 284.225 171.315 284.645 171.043 284.894C170.771 285.166 170.408 285.302 169.955 285.302H169.581ZM183.514 253.342H186.03V278.502H183.514V253.342ZM186.527 283.738H187.785C189.032 283.738 190.052 283.557 190.845 283.194C191.639 282.831 192.262 282.344 192.715 281.732C193.169 281.143 193.486 280.44 193.667 279.624C193.849 278.831 193.939 277.992 193.939 277.108C193.939 276.451 193.905 275.771 193.837 275.068C193.769 274.343 193.679 273.651 193.565 272.994L192.851 269.152L195.231 268.676L195.673 271.26C195.809 272.053 195.911 272.801 195.979 273.504C196.07 274.207 196.138 274.898 196.183 275.578H199.413V277.822L198.733 278.502H196.149C196.059 279.613 195.843 280.655 195.503 281.63C195.186 282.627 194.699 283.5 194.041 284.248C193.407 284.996 192.568 285.585 191.525 286.016C190.505 286.447 189.259 286.662 187.785 286.662H186.527V283.738ZM206.021 279.658C205.295 279.25 204.627 278.955 204.015 278.774C203.403 278.615 202.666 278.525 201.805 278.502H198.745V276.258L199.425 275.578H201.975V253.342H204.491V275.884C204.989 275.997 205.477 276.156 205.953 276.36C206.429 276.564 206.939 276.813 207.483 277.108L209.217 278.094L207.755 280.644L206.021 279.658ZM210.475 253.342H212.991V278.502H210.475V253.342ZM216.684 283.738H219.03C221.773 283.738 223.802 283.137 225.116 281.936C226.431 280.735 227.088 279.057 227.088 276.904V276.156H226.918C226.601 276.904 226.068 277.493 225.32 277.924C224.595 278.355 223.734 278.57 222.736 278.57C220.923 278.57 219.518 278.094 218.52 277.142C217.523 276.167 217.024 274.807 217.024 273.062C217.024 272.042 217.172 271.079 217.466 270.172C217.784 269.265 218.214 268.483 218.758 267.826C219.302 267.146 219.948 266.613 220.696 266.228C221.467 265.82 222.306 265.616 223.212 265.616C225.162 265.616 226.692 266.455 227.802 268.132C228.913 269.809 229.468 272.167 229.468 275.204C229.468 278.808 228.596 281.619 226.85 283.636C225.128 285.653 222.521 286.662 219.03 286.662H216.684V283.738ZM223.416 275.578C224.391 275.578 225.162 275.499 225.728 275.34C226.318 275.159 226.771 274.887 227.088 274.524C227.088 272.688 226.726 271.237 226 270.172C225.275 269.084 224.278 268.54 223.008 268.54C221.852 268.54 220.957 268.925 220.322 269.696C219.71 270.467 219.404 271.475 219.404 272.722C219.404 273.719 219.665 274.445 220.186 274.898C220.73 275.351 221.58 275.578 222.736 275.578H223.416ZM253.248 278.91C250.868 278.91 248.862 278.785 247.23 278.536C245.621 278.287 244.317 277.89 243.32 277.346C242.323 276.802 241.597 276.088 241.144 275.204C240.713 274.297 240.498 273.198 240.498 271.906C240.498 270.999 240.611 270.07 240.838 269.118C241.087 268.166 241.461 267.112 241.96 265.956L244.068 266.602C243.139 268.529 242.674 270.183 242.674 271.566C242.674 273.039 243.331 274.127 244.646 274.83C245.961 275.51 248.035 275.85 250.868 275.85H255.628C257.26 275.85 258.609 275.805 259.674 275.714C260.739 275.623 261.578 275.465 262.19 275.238C262.802 274.989 263.221 274.66 263.448 274.252C263.697 273.844 263.822 273.323 263.822 272.688V267.316H266.202V272.688C266.202 274.615 267.165 275.578 269.092 275.578H270.282V277.822L269.602 278.502C266.474 278.502 264.638 277.346 264.094 275.034H263.924C263.788 275.805 263.527 276.439 263.142 276.938C262.757 277.437 262.156 277.833 261.34 278.128C260.547 278.423 259.493 278.627 258.178 278.74C256.886 278.853 255.243 278.91 253.248 278.91ZM255.152 265.956C254.699 265.956 254.336 265.831 254.064 265.582C253.792 265.31 253.656 264.879 253.656 264.29C253.656 263.701 253.792 263.281 254.064 263.032C254.336 262.76 254.699 262.624 255.152 262.624H255.526C255.979 262.624 256.342 262.76 256.614 263.032C256.886 263.281 257.022 263.701 257.022 264.29C257.022 264.879 256.886 265.31 256.614 265.582C256.342 265.831 255.979 265.956 255.526 265.956H255.152ZM250.766 265.956C250.313 265.956 249.95 265.831 249.678 265.582C249.406 265.31 249.27 264.879 249.27 264.29C249.27 263.701 249.406 263.281 249.678 263.032C249.95 262.76 250.313 262.624 250.766 262.624H251.14C251.593 262.624 251.956 262.76 252.228 263.032C252.5 263.281 252.636 263.701 252.636 264.29C252.636 264.879 252.5 265.31 252.228 265.582C251.956 265.831 251.593 265.956 251.14 265.956H250.766ZM269.6 276.258L270.28 275.578H271.47C273.397 275.578 274.36 274.615 274.36 272.688V267.316H276.74V272.688C276.74 274.615 277.704 275.578 279.63 275.578H280.82V277.822L280.14 278.502C277.012 278.502 275.176 277.391 274.632 275.17H274.462C274.213 276.417 273.726 277.289 273 277.788C272.275 278.264 271.142 278.502 269.6 278.502V276.258ZM277.556 285.302C277.103 285.302 276.74 285.166 276.468 284.894C276.196 284.645 276.06 284.225 276.06 283.636C276.06 283.047 276.196 282.616 276.468 282.344C276.74 282.095 277.103 281.97 277.556 281.97H277.93C278.384 281.97 278.746 282.095 279.018 282.344C279.29 282.616 279.426 283.047 279.426 283.636C279.426 284.225 279.29 284.645 279.018 284.894C278.746 285.166 278.384 285.302 277.93 285.302H277.556ZM273.17 285.302C272.717 285.302 272.354 285.166 272.082 284.894C271.81 284.645 271.674 284.225 271.674 283.636C271.674 283.047 271.81 282.616 272.082 282.344C272.354 282.095 272.717 281.97 273.17 281.97H273.544C273.998 281.97 274.36 282.095 274.632 282.344C274.904 282.616 275.04 283.047 275.04 283.636C275.04 284.225 274.904 284.645 274.632 284.894C274.36 285.166 273.998 285.302 273.544 285.302H273.17ZM280.126 276.258L280.806 275.578H281.996C283.922 275.578 284.886 274.615 284.886 272.688V267.316H287.266V272.688C287.266 274.615 288.229 275.578 290.156 275.578H291.346V277.822L290.666 278.502C287.538 278.502 285.702 277.391 285.158 275.17H284.988C284.738 276.417 284.251 277.289 283.526 277.788C282.8 278.264 281.667 278.502 280.126 278.502V276.258ZM285.872 285.302C285.418 285.302 285.056 285.166 284.784 284.894C284.512 284.645 284.376 284.225 284.376 283.636C284.376 283.047 284.512 282.616 284.784 282.344C285.056 282.095 285.418 281.97 285.872 281.97H286.246C286.699 281.97 287.062 282.095 287.334 282.344C287.606 282.616 287.742 283.047 287.742 283.636C287.742 284.225 287.606 284.645 287.334 284.894C287.062 285.166 286.699 285.302 286.246 285.302H285.872ZM290.651 276.258L291.331 275.578H292.521C294.448 275.578 295.411 274.615 295.411 272.688V267.316H297.791V272.688C297.791 274.615 298.754 275.578 300.681 275.578H301.871V277.822L301.191 278.502C298.063 278.502 296.227 277.391 295.683 275.17H295.513C295.264 276.417 294.776 277.289 294.051 277.788C293.326 278.264 292.192 278.502 290.651 278.502V276.258ZM298.607 263.236C298.154 263.236 297.791 263.111 297.519 262.862C297.247 262.59 297.111 262.159 297.111 261.57C297.111 260.981 297.247 260.561 297.519 260.312C297.791 260.04 298.154 259.904 298.607 259.904H298.981C299.434 259.904 299.797 260.04 300.069 260.312C300.341 260.561 300.477 260.981 300.477 261.57C300.477 262.159 300.341 262.59 300.069 262.862C299.797 263.111 299.434 263.236 298.981 263.236H298.607ZM294.221 263.236C293.768 263.236 293.405 263.111 293.133 262.862C292.861 262.59 292.725 262.159 292.725 261.57C292.725 260.981 292.861 260.561 293.133 260.312C293.405 260.04 293.768 259.904 294.221 259.904H294.595C295.048 259.904 295.411 260.04 295.683 260.312C295.955 260.561 296.091 260.981 296.091 261.57C296.091 262.159 295.955 262.59 295.683 262.862C295.411 263.111 295.048 263.236 294.595 263.236H294.221ZM296.397 259.122C295.966 259.122 295.615 258.997 295.343 258.748C295.094 258.476 294.969 258.068 294.969 257.524C294.969 256.98 295.094 256.583 295.343 256.334C295.615 256.062 295.966 255.926 296.397 255.926H296.805C297.236 255.926 297.576 256.062 297.825 256.334C298.097 256.583 298.233 256.98 298.233 257.524C298.233 258.068 298.097 258.476 297.825 258.748C297.576 258.997 297.236 259.122 296.805 259.122H296.397ZM301.176 276.258L301.856 275.578H303.046C304.973 275.578 305.936 274.615 305.936 272.688V267.316H308.316V272.688C308.316 274.615 309.28 275.578 311.206 275.578H312.396V277.822L311.716 278.502C308.588 278.502 306.752 277.391 306.208 275.17H306.038C305.789 276.417 305.302 277.289 304.576 277.788C303.851 278.264 302.718 278.502 301.176 278.502V276.258ZM309.03 263.236C308.577 263.236 308.214 263.111 307.942 262.862C307.67 262.59 307.534 262.159 307.534 261.57C307.534 260.981 307.67 260.561 307.942 260.312C308.214 260.04 308.577 259.904 309.03 259.904H309.404C309.858 259.904 310.22 260.04 310.492 260.312C310.764 260.561 310.9 260.981 310.9 261.57C310.9 262.159 310.764 262.59 310.492 262.862C310.22 263.111 309.858 263.236 309.404 263.236H309.03ZM304.644 263.236C304.191 263.236 303.828 263.111 303.556 262.862C303.284 262.59 303.148 262.159 303.148 261.57C303.148 260.981 303.284 260.561 303.556 260.312C303.828 260.04 304.191 259.904 304.644 259.904H305.018C305.472 259.904 305.834 260.04 306.106 260.312C306.378 260.561 306.514 260.981 306.514 261.57C306.514 262.159 306.378 262.59 306.106 262.862C305.834 263.111 305.472 263.236 305.018 263.236H304.644ZM311.702 276.258L312.382 275.578H313.572C315.499 275.578 316.462 274.615 316.462 272.688V253.342H318.978V272.688C318.978 274.615 319.941 275.578 321.868 275.578H323.058V277.822L322.378 278.502C319.159 278.502 317.278 277.391 316.734 275.17H316.564C316.315 276.417 315.827 277.289 315.102 277.788C314.377 278.264 313.243 278.502 311.702 278.502V276.258ZM322.393 276.258L323.073 275.578H324.059C325.147 275.578 325.929 275.329 326.405 274.83C326.904 274.331 327.153 273.538 327.153 272.45V253.342H329.669V272.45C329.669 274.535 329.216 276.065 328.309 277.04C327.425 278.015 326.009 278.502 324.059 278.502H322.393V276.258ZM366.317 278.502C365.456 278.502 364.731 278.434 364.141 278.298C363.575 278.139 363.053 277.845 362.577 277.414C361.399 278.139 359.744 278.502 357.613 278.502H341.939V275.578H345.339L346.597 273.436V253.342H349.113V265.786L348.705 269.764L348.875 269.832C349.623 268.835 350.371 268.007 351.119 267.35C351.867 266.67 352.627 266.126 353.397 265.718C354.191 265.31 354.984 265.015 355.777 264.834C356.593 264.653 357.432 264.562 358.293 264.562C360.492 264.562 362.203 265.174 363.427 266.398C364.651 267.599 365.263 269.265 365.263 271.396C365.263 272.983 365.003 274.297 364.481 275.34C364.957 275.499 365.569 275.578 366.317 275.578H366.997V277.822L366.317 278.502ZM357.613 275.578C359.313 275.578 360.617 275.295 361.523 274.728C362.43 274.161 362.883 273.164 362.883 271.736C362.883 270.331 362.521 269.277 361.795 268.574C361.093 267.849 360.095 267.486 358.803 267.486H357.783C356.877 267.486 356.049 267.577 355.301 267.758C354.576 267.917 353.873 268.211 353.193 268.642C352.536 269.05 351.879 269.628 351.221 270.376C350.587 271.101 349.907 272.019 349.181 273.13L347.719 275.408L347.821 275.578H357.613ZM389.747 278.502C388.886 278.502 388.16 278.434 387.571 278.298C387.004 278.139 386.483 277.845 386.007 277.414C384.828 278.139 383.174 278.502 381.043 278.502H366.321V276.258L367.001 275.578H368.769L370.027 273.436V253.342H372.543V265.786L372.135 269.764L372.305 269.832C373.053 268.835 373.801 268.007 374.549 267.35C375.297 266.67 376.056 266.126 376.827 265.718C377.62 265.31 378.414 265.015 379.207 264.834C380.023 264.653 380.862 264.562 381.723 264.562C383.922 264.562 385.633 265.174 386.857 266.398C388.081 267.599 388.693 269.265 388.693 271.396C388.693 272.983 388.432 274.297 387.911 275.34C388.387 275.499 388.999 275.578 389.747 275.578H390.427V277.822L389.747 278.502ZM381.043 275.578C382.743 275.578 384.046 275.295 384.953 274.728C385.86 274.161 386.313 273.164 386.313 271.736C386.313 270.331 385.95 269.277 385.225 268.574C384.522 267.849 383.525 267.486 382.233 267.486H381.213C380.306 267.486 379.479 267.577 378.731 267.758C378.006 267.917 377.303 268.211 376.623 268.642C375.966 269.05 375.308 269.628 374.651 270.376C374.016 271.101 373.336 272.019 372.611 273.13L371.149 275.408L371.251 275.578H381.043ZM389.762 276.258L390.442 275.578H391.598C392.596 275.578 393.514 275.544 394.352 275.476C395.214 275.408 396.086 275.283 396.97 275.102C397.854 274.898 398.784 274.615 399.758 274.252C400.756 273.889 401.878 273.413 403.124 272.824L406.252 271.328V271.192L401.22 270.07L394.182 268.336V271.26H391.802V268.642C391.802 267.69 392.063 266.976 392.584 266.5C393.128 266.001 393.808 265.752 394.624 265.752C394.874 265.752 395.168 265.786 395.508 265.854C395.871 265.899 396.426 266.013 397.174 266.194L405.47 268.336C406.717 268.653 407.76 268.88 408.598 269.016C409.437 269.129 410.162 269.186 410.774 269.186H411.318V272.11H408.666L404.042 274.898C402.637 275.737 401.39 276.405 400.302 276.904C399.214 277.38 398.194 277.743 397.242 277.992C396.29 278.219 395.361 278.366 394.454 278.434C393.57 278.479 392.618 278.502 391.598 278.502H389.762V276.258ZM398.874 261.876C398.421 261.876 398.058 261.751 397.786 261.502C397.514 261.23 397.378 260.799 397.378 260.21C397.378 259.621 397.514 259.201 397.786 258.952C398.058 258.68 398.421 258.544 398.874 258.544H399.248C399.702 258.544 400.064 258.68 400.336 258.952C400.608 259.201 400.744 259.621 400.744 260.21C400.744 260.799 400.608 261.23 400.336 261.502C400.064 261.751 399.702 261.876 399.248 261.876H398.874Z" fill="#3C3C3B"/>
<path d="M48.2493 344.75H50.0823C53.0903 344.75 55.2367 344.061 56.5213 342.682C57.806 341.335 58.4327 339.361 58.4013 336.76C58.4013 335.977 58.3543 335.162 58.2603 334.316C58.1663 333.439 58.041 332.546 57.8843 331.637L56.8973 325.668L61.4563 324.916L62.1613 329.052C62.412 330.556 62.6 331.95 62.7253 333.235C62.8507 334.52 62.9133 335.648 62.9133 336.619C62.9133 338.718 62.6627 340.63 62.1613 342.353C61.66 344.108 60.8767 345.612 59.8113 346.865C58.7773 348.15 57.4457 349.137 55.8163 349.826C54.2183 350.547 52.3227 350.907 50.1293 350.907H48.2493V344.75ZM66.1123 344.75H68.9793C72.1439 344.75 74.6349 344.296 76.4523 343.387C78.3009 342.478 79.5543 341.225 80.2123 339.627H74.6193C72.0813 339.627 70.1073 338.906 68.6973 337.465C67.2873 336.024 66.5823 334.018 66.5823 331.449C66.5823 329.882 66.8173 328.425 67.2873 327.078C67.7573 325.731 68.3996 324.556 69.2143 323.553C70.0603 322.55 71.0473 321.767 72.1753 321.203C73.3346 320.639 74.5723 320.357 75.8883 320.357C78.6769 320.357 80.8859 321.516 82.5153 323.835C84.1446 326.122 85.0063 329.334 85.1003 333.47H87.4033V338.358L86.1343 339.627H84.5363C83.7216 343.23 82.0453 346.003 79.5073 347.946C76.9693 349.92 73.5696 350.907 69.3083 350.907H66.1123V344.75ZM70.8593 330.65C70.8593 331.653 71.2039 332.373 71.8933 332.812C72.6139 333.251 73.6323 333.47 74.9483 333.47H80.7763V332.953C80.7763 330.979 80.2749 329.412 79.2723 328.253C78.2696 327.094 76.9693 326.514 75.3713 326.514C74.0553 326.514 72.9743 326.906 72.1283 327.689C71.2823 328.472 70.8593 329.459 70.8593 330.65ZM86.1519 334.739L87.4209 333.47H87.9379C89.3479 333.47 90.4132 333.282 91.1339 332.906C91.8546 332.499 92.4812 331.747 93.0139 330.65L94.8939 326.796L98.9829 328.77L97.0089 332.671C97.8862 333.11 98.7636 333.454 99.6409 333.705C100.518 333.956 101.396 334.081 102.273 334.081C103.652 334.081 104.654 333.783 105.281 333.188C105.908 332.561 106.221 331.48 106.221 329.945V326.796H110.827V329.945C110.827 331.355 111.031 332.373 111.438 333C111.877 333.627 112.597 333.94 113.6 333.94H114.258C115.167 333.94 115.856 333.627 116.326 333C116.796 332.373 117.031 331.355 117.031 329.945V324.916H121.637V329.945C121.637 332.295 122.812 333.47 125.162 333.47H126.948V338.358L125.679 339.627C123.392 339.627 121.621 339.204 120.368 338.358C119.146 337.481 118.363 336.102 118.018 334.222H117.736C117.548 336.29 117 337.81 116.091 338.781C115.214 339.721 114.023 340.191 112.519 340.191C109.292 340.191 107.38 338.201 106.785 334.222H106.503C106.252 336.227 105.688 337.731 104.811 338.734C103.934 339.705 102.79 340.191 101.38 340.191C100.471 340.191 99.5469 340.019 98.6069 339.674C97.6669 339.329 96.5232 338.75 95.1759 337.935L94.0479 337.277C93.1392 338.248 92.0739 338.891 90.8519 339.204C89.6299 339.486 88.0632 339.627 86.1519 339.627V334.739ZM125.67 334.739L126.939 333.47H128.819C130.073 333.47 130.934 333.204 131.404 332.671C131.906 332.138 132.156 331.308 132.156 330.18V304.847H137.138V330.18C137.138 333.407 136.496 335.789 135.211 337.324C133.958 338.828 131.827 339.596 128.819 339.627H125.67V334.739ZM143.212 304.847H148.241V339.627H143.212V304.847ZM177.084 350.907C172.854 350.907 169.627 349.81 167.402 347.617C165.177 345.424 164.065 342.337 164.065 338.358C164.065 336.948 164.253 335.381 164.629 333.658C165.036 331.935 165.585 330.243 166.274 328.582L170.316 329.804C169.721 331.12 169.235 332.483 168.859 333.893C168.483 335.272 168.295 336.494 168.295 337.559C168.295 339.69 168.922 341.335 170.175 342.494C171.428 343.685 173.152 344.28 175.345 344.28H178.823C180.139 344.28 181.236 344.123 182.113 343.81C183.022 343.497 183.742 342.995 184.275 342.306C184.839 341.617 185.246 340.708 185.497 339.58C185.748 338.452 185.873 337.073 185.873 335.444V304.847H190.855V335.444C190.855 340.739 189.743 344.64 187.518 347.147C185.293 349.654 181.815 350.907 177.084 350.907ZM196.913 304.847H201.942V339.627H196.913V304.847ZM206.424 344.75H209.291C212.455 344.75 214.946 344.296 216.764 343.387C218.612 342.478 219.866 341.225 220.524 339.627H214.931C212.393 339.627 210.419 338.906 209.009 337.465C207.599 336.024 206.894 334.018 206.894 331.449C206.894 329.882 207.129 328.425 207.599 327.078C208.069 325.731 208.711 324.556 209.526 323.553C210.372 322.55 211.359 321.767 212.487 321.203C213.646 320.639 214.884 320.357 216.2 320.357C218.988 320.357 221.197 321.516 222.827 323.835C224.456 326.122 225.318 329.334 225.412 333.47H227.715V338.358L226.446 339.627H224.848C224.033 343.23 222.357 346.003 219.819 347.946C217.281 349.92 213.881 350.907 209.62 350.907H206.424V344.75ZM211.171 330.65C211.171 331.653 211.515 332.373 212.205 332.812C212.925 333.251 213.944 333.47 215.26 333.47H221.088V332.953C221.088 330.979 220.586 329.412 219.584 328.253C218.581 327.094 217.281 326.514 215.683 326.514C214.367 326.514 213.286 326.906 212.44 327.689C211.594 328.472 211.171 329.459 211.171 330.65ZM235.722 323.882L236.004 324.023C237.759 322.049 239.576 320.655 241.456 319.84C243.368 319.025 245.467 318.618 247.754 318.618C251.264 318.618 253.911 319.574 255.697 321.485C257.515 323.396 258.423 326.06 258.423 329.475C258.423 333.016 257.452 335.601 255.509 337.23C253.598 338.828 250.59 339.627 246.485 339.627H226.463V334.739L227.732 333.47H229.941L231.304 331.12V304.847H236.286V318.383L235.722 323.882ZM246.485 333.47C249.274 333.47 251.248 333.188 252.407 332.624C253.567 332.029 254.146 330.932 254.146 329.334C254.146 327.799 253.692 326.655 252.783 325.903C251.875 325.151 250.433 324.775 248.459 324.775H247.049C245.671 324.775 244.464 324.853 243.43 325.01C242.396 325.135 241.441 325.402 240.563 325.809C239.717 326.185 238.934 326.733 238.213 327.454C237.493 328.143 236.772 329.036 236.051 330.133L234.03 333.188L234.171 333.47H246.485ZM291.359 340.191C287.975 340.191 285.124 340.003 282.805 339.627C280.518 339.282 278.653 338.703 277.212 337.888C275.802 337.042 274.784 335.945 274.157 334.598C273.53 333.251 273.217 331.606 273.217 329.663C273.217 328.41 273.374 327.062 273.687 325.621C274.032 324.148 274.517 322.66 275.144 321.156L279.186 322.331C278.622 323.49 278.183 324.587 277.87 325.621C277.557 326.655 277.4 327.579 277.4 328.394C277.4 329.334 277.588 330.133 277.964 330.791C278.371 331.449 279.014 331.982 279.891 332.389C280.768 332.796 281.896 333.094 283.275 333.282C284.685 333.47 286.393 333.564 288.398 333.564H294.978C297.203 333.564 299.036 333.517 300.477 333.423C301.918 333.298 303.046 333.11 303.861 332.859C304.707 332.577 305.287 332.201 305.6 331.731C305.945 331.261 306.117 330.666 306.117 329.945V323.036H310.723V329.945C310.723 332.295 312.008 333.47 314.577 333.47H316.034V338.358L314.765 339.627C312.415 339.627 310.582 339.157 309.266 338.217C307.981 337.277 307.12 335.789 306.681 333.752H306.399C306.148 334.974 305.71 335.992 305.083 336.807C304.488 337.622 303.595 338.28 302.404 338.781C301.245 339.282 299.756 339.643 297.939 339.862C296.153 340.081 293.96 340.191 291.359 340.191ZM294.743 322.472C293.991 322.472 293.364 322.253 292.863 321.814C292.393 321.344 292.158 320.608 292.158 319.605C292.158 318.571 292.393 317.835 292.863 317.396C293.364 316.926 293.991 316.691 294.743 316.691H295.542C296.294 316.691 296.905 316.926 297.375 317.396C297.876 317.835 298.127 318.571 298.127 319.605C298.127 320.608 297.876 321.344 297.375 321.814C296.905 322.253 296.294 322.472 295.542 322.472H294.743ZM287.74 322.472C286.988 322.472 286.361 322.253 285.86 321.814C285.39 321.344 285.155 320.608 285.155 319.605C285.155 318.571 285.39 317.835 285.86 317.396C286.361 316.926 286.988 316.691 287.74 316.691H288.539C289.291 316.691 289.902 316.926 290.372 317.396C290.873 317.835 291.124 318.571 291.124 319.605C291.124 320.608 290.873 321.344 290.372 321.814C289.902 322.253 289.291 322.472 288.539 322.472H287.74ZM314.772 334.739L316.041 333.47H317.498C320.067 333.47 321.352 332.295 321.352 329.945V323.036H325.958V329.945C325.958 332.295 327.133 333.47 329.483 333.47H331.269V338.358L330 339.627C327.587 339.627 325.739 339.157 324.454 338.217C323.169 337.277 322.308 335.804 321.869 333.799H321.634C321.227 335.867 320.49 337.355 319.425 338.264C318.391 339.173 316.84 339.627 314.772 339.627V334.739ZM326.757 349.497C326.005 349.497 325.378 349.262 324.877 348.792C324.407 348.353 324.172 347.633 324.172 346.63C324.172 345.596 324.407 344.844 324.877 344.374C325.378 343.935 326.005 343.716 326.757 343.716H327.556C328.308 343.716 328.919 343.935 329.389 344.374C329.89 344.844 330.141 345.596 330.141 346.63C330.141 347.633 329.89 348.353 329.389 348.792C328.919 349.262 328.308 349.497 327.556 349.497H326.757ZM319.754 349.497C319.002 349.497 318.375 349.262 317.874 348.792C317.404 348.353 317.169 347.633 317.169 346.63C317.169 345.596 317.404 344.844 317.874 344.374C318.375 343.935 319.002 343.716 319.754 343.716H320.553C321.305 343.716 321.916 343.935 322.386 344.374C322.887 344.844 323.138 345.596 323.138 346.63C323.138 347.633 322.887 348.353 322.386 348.792C321.916 349.262 321.305 349.497 320.553 349.497H319.754ZM330.01 334.739L331.279 333.47H332.736C335.306 333.47 336.59 332.295 336.59 329.945V323.036H341.196V329.945C341.196 332.295 342.371 333.47 344.721 333.47H346.507V338.358L345.238 339.627C342.826 339.627 340.977 339.157 339.692 338.217C338.408 337.277 337.546 335.804 337.107 333.799H336.872C336.465 335.867 335.729 337.355 334.663 338.264C333.629 339.173 332.078 339.627 330.01 339.627V334.739ZM338.47 349.497C337.718 349.497 337.092 349.262 336.59 348.792C336.12 348.353 335.885 347.633 335.885 346.63C335.885 345.596 336.12 344.844 336.59 344.374C337.092 343.935 337.718 343.716 338.47 343.716H339.269C340.021 343.716 340.632 343.935 341.102 344.374C341.604 344.844 341.854 345.596 341.854 346.63C341.854 347.633 341.604 348.353 341.102 348.792C340.632 349.262 340.021 349.497 339.269 349.497H338.47ZM345.249 334.739L346.518 333.47H347.975C350.544 333.47 351.829 332.295 351.829 329.945V323.036H356.435V329.945C356.435 332.295 357.61 333.47 359.96 333.47H361.746V338.358L360.477 339.627C358.064 339.627 356.215 339.157 354.931 338.217C353.646 337.277 352.784 335.804 352.346 333.799H352.111C351.703 335.867 350.967 337.355 349.902 338.264C348.868 339.173 347.317 339.627 345.249 339.627V334.739ZM357.234 318.712C356.513 318.712 355.902 318.493 355.401 318.054C354.931 317.584 354.696 316.848 354.696 315.845C354.696 314.811 354.931 314.075 355.401 313.636C355.902 313.166 356.513 312.931 357.234 312.931H358.08C358.8 312.931 359.396 313.166 359.866 313.636C360.367 314.075 360.618 314.811 360.618 315.845C360.618 316.848 360.367 317.584 359.866 318.054C359.396 318.493 358.8 318.712 358.08 318.712H357.234ZM350.231 318.712C349.479 318.712 348.852 318.493 348.351 318.054C347.881 317.584 347.646 316.848 347.646 315.845C347.646 314.811 347.881 314.075 348.351 313.636C348.852 313.166 349.479 312.931 350.231 312.931H351.03C351.782 312.931 352.393 313.166 352.863 313.636C353.364 314.075 353.615 314.811 353.615 315.845C353.615 316.848 353.364 317.584 352.863 318.054C352.393 318.493 351.782 318.712 351.03 318.712H350.231ZM353.756 312.226C353.004 312.226 352.393 312.007 351.923 311.568C351.453 311.098 351.218 310.362 351.218 309.359C351.218 308.356 351.453 307.62 351.923 307.15C352.393 306.68 353.004 306.445 353.756 306.445H354.555C355.307 306.445 355.918 306.68 356.388 307.15C356.858 307.62 357.093 308.356 357.093 309.359C357.093 310.362 356.858 311.098 356.388 311.568C355.918 312.007 355.307 312.226 354.555 312.226H353.756ZM360.487 334.739L361.756 333.47H362.931C365.124 333.47 366.628 333.251 367.443 332.812C368.289 332.342 368.712 331.512 368.712 330.321C368.712 329.82 368.665 329.193 368.571 328.441C368.508 327.658 368.367 326.624 368.148 325.339L367.396 321.109L372.002 320.357L372.66 324.587C372.817 325.652 372.942 326.702 373.036 327.736C373.13 328.739 373.177 329.6 373.177 330.321C373.177 333.517 372.362 335.867 370.733 337.371C369.104 338.875 366.503 339.627 362.931 339.627H360.487V334.739ZM372.096 316.033C371.344 316.033 370.717 315.814 370.216 315.375C369.746 314.905 369.511 314.169 369.511 313.166C369.511 312.132 369.746 311.396 370.216 310.957C370.717 310.487 371.344 310.252 372.096 310.252H372.895C373.647 310.252 374.258 310.487 374.728 310.957C375.229 311.396 375.48 312.132 375.48 313.166C375.48 314.169 375.229 314.905 374.728 315.375C374.258 315.814 373.647 316.033 372.895 316.033H372.096ZM365.093 316.033C364.341 316.033 363.714 315.814 363.213 315.375C362.743 314.905 362.508 314.169 362.508 313.166C362.508 312.132 362.743 311.396 363.213 310.957C363.714 310.487 364.341 310.252 365.093 310.252H365.892C366.644 310.252 367.255 310.487 367.725 310.957C368.226 311.396 368.477 312.132 368.477 313.166C368.477 314.169 368.226 314.905 367.725 315.375C367.255 315.814 366.644 316.033 365.892 316.033H365.093ZM422.134 339.627C421.006 339.627 419.972 339.502 419.032 339.251C418.124 339 417.262 338.546 416.447 337.888C414.536 339.047 411.841 339.627 408.363 339.627H387.636V333.47H391.819L393.182 331.12V304.847H398.164V318.383L397.6 323.882L397.882 324.023C399.637 322.049 401.454 320.655 403.334 319.84C405.246 319.025 407.345 318.618 409.632 318.618C413.142 318.618 415.789 319.574 417.575 321.485C419.393 323.396 420.301 326.06 420.301 329.475C420.301 330.196 420.254 330.885 420.16 331.543C420.098 332.17 419.988 332.749 419.831 333.282C420.207 333.345 420.583 333.392 420.959 333.423C421.335 333.454 421.727 333.47 422.134 333.47H423.403V338.358L422.134 339.627ZM408.363 333.47C411.152 333.47 413.126 333.188 414.285 332.624C415.445 332.029 416.024 330.932 416.024 329.334C416.024 327.799 415.57 326.655 414.661 325.903C413.753 325.151 412.311 324.775 410.337 324.775H408.927C407.549 324.775 406.342 324.853 405.308 325.01C404.274 325.135 403.319 325.402 402.441 325.809C401.595 326.185 400.812 326.733 400.091 327.454C399.371 328.143 398.65 329.036 397.929 330.133L395.908 333.188L396.049 333.47H408.363ZM455.921 339.627C454.793 339.627 453.759 339.502 452.819 339.251C451.911 339 451.049 338.546 450.234 337.888C448.323 339.047 445.628 339.627 442.15 339.627H422.128V334.739L423.397 333.47H425.606L426.969 331.12V304.847H431.951V318.383L431.387 323.882L431.669 324.023C433.424 322.049 435.241 320.655 437.121 319.84C439.033 319.025 441.132 318.618 443.419 318.618C446.929 318.618 449.576 319.574 451.362 321.485C453.18 323.396 454.088 326.06 454.088 329.475C454.088 330.196 454.041 330.885 453.947 331.543C453.885 332.17 453.775 332.749 453.618 333.282C453.994 333.345 454.37 333.392 454.746 333.423C455.122 333.454 455.514 333.47 455.921 333.47H457.19V338.358L455.921 339.627ZM442.15 333.47C444.939 333.47 446.913 333.188 448.072 332.624C449.232 332.029 449.811 330.932 449.811 329.334C449.811 327.799 449.357 326.655 448.448 325.903C447.54 325.151 446.098 324.775 444.124 324.775H442.714C441.336 324.775 440.129 324.853 439.095 325.01C438.061 325.135 437.106 325.402 436.228 325.809C435.382 326.185 434.599 326.733 433.878 327.454C433.158 328.143 432.437 329.036 431.716 330.133L429.695 333.188L429.836 333.47H442.15ZM455.91 334.739L457.179 333.47H459.952C461.581 333.47 463.069 333.439 464.417 333.376C465.764 333.313 467.049 333.188 468.271 333C469.493 332.781 470.715 332.467 471.937 332.06C473.19 331.653 474.553 331.089 476.026 330.368L478.517 329.146V328.911L471.185 327.36L463.289 325.386V329.099H458.542V325.48C458.542 321.657 460.296 319.746 463.806 319.746C464.025 319.746 464.26 319.762 464.511 319.793C464.761 319.793 465.043 319.824 465.357 319.887C465.701 319.95 466.109 320.044 466.579 320.169C467.049 320.263 467.613 320.404 468.271 320.592L478.047 323.13C479.457 323.475 480.835 323.741 482.183 323.929C483.561 324.117 484.862 324.211 486.084 324.211H486.977V330.415H483.264L478.282 333.658C476.245 334.974 474.428 336.039 472.83 336.854C471.232 337.637 469.712 338.233 468.271 338.64C466.861 339.047 465.482 339.314 464.135 339.439C462.819 339.564 461.424 339.627 459.952 339.627H455.91V334.739ZM469.352 315.516C468.6 315.516 467.973 315.297 467.472 314.858C467.002 314.388 466.767 313.652 466.767 312.649C466.767 311.615 467.002 310.879 467.472 310.44C467.973 309.97 468.6 309.735 469.352 309.735H470.151C470.903 309.735 471.514 309.97 471.984 310.44C472.485 310.879 472.736 311.615 472.736 312.649C472.736 313.652 472.485 314.388 471.984 314.858C471.514 315.297 470.903 315.516 470.151 315.516H469.352Z" fill="#9B2226"/>
<g opacity="0.04">
<path d="M290.951 356.859C292.317 357.072 293.684 357.284 295.091 357.502C296.373 357.947 297.654 358.392 298.974 358.85C301.584 364.504 303.596 369.794 305.493 375.687C306.085 377.436 306.677 379.185 307.287 380.987C309.228 386.746 311.122 392.519 313.015 398.294C314.338 402.259 315.665 406.224 316.995 410.188C319.708 418.291 322.404 426.4 325.088 434.514C328.799 445.704 332.613 456.858 336.457 468.004C338.139 472.906 339.819 477.809 341.498 482.712C342.564 485.82 343.636 488.926 344.712 492.031C346.198 496.327 347.661 500.63 349.118 504.936C349.945 507.349 350.773 509.763 351.625 512.25C353.13 518.117 353.13 518.117 351.124 524.09C346.431 526.793 341.854 529.148 336.958 531.431C334.038 532.833 331.118 534.235 328.199 535.638C325.935 536.714 325.935 536.714 323.625 537.813C314.893 542.002 306.258 546.387 297.607 550.738C290.807 554.128 283.992 557.17 276.911 559.925C280.678 544.078 285.142 528.666 290.45 513.265C291.863 509.114 293.276 504.964 294.689 500.814C295.754 497.699 295.754 497.699 296.84 494.522C298.939 488.357 301.011 482.184 303.072 476.006C303.713 474.087 304.353 472.167 305.013 470.189C306.23 466.538 307.446 462.888 308.66 459.236C309.205 457.608 309.75 455.979 310.311 454.301C311.025 452.162 311.025 452.162 311.753 449.979C313.015 446.447 313.015 446.447 315.02 442.465C203.888 468.672 113.149 518.121 30.2039 595.76C22.0971 592.583 16.9111 586.833 11.0239 580.704C0.0282149 569.541 -11.536 559.574 -23.9514 549.971C-25.9707 548.377 -27.99 546.783 -30.0705 545.141C-93.3546 495.549 -167.544 460.913 -246.307 443.912C-252.607 442.465 -252.607 442.465 -256.618 440.475C-256.155 441.842 -255.693 443.21 -255.216 444.619C-246.541 470.283 -237.923 495.966 -229.541 521.726C-228.863 523.787 -228.186 525.849 -227.488 527.974C-224.482 537.264 -221.713 546.216 -220.515 555.943C-237.247 551.082 -252.314 543.49 -267.775 535.661C-270.398 534.345 -273.022 533.029 -275.645 531.715C-282.013 528.522 -288.372 525.315 -294.728 522.099C-288.445 500.145 -280.701 478.651 -273.188 457.091C-272.005 453.691 -270.822 450.291 -269.64 446.89C-269.051 445.196 -268.461 443.501 -267.854 441.755C-264.455 431.937 -261.161 422.093 -257.983 412.202C-256.083 406.295 -254.147 400.401 -252.207 394.507C-251.31 391.741 -250.431 388.969 -249.573 386.191C-243.098 365.267 -243.098 365.267 -237.374 359.747C-225.276 353.648 -210.854 358.322 -198.687 362.157C-146.238 379.714 -98.3298 405.728 -54.0376 438.484C-52.8104 439.386 -51.5833 440.289 -50.3189 441.219C-30.9286 455.589 -13.2618 471.576 4.12913 488.255C5.8149 489.869 7.50067 491.483 9.23752 493.146C16.7277 500.455 23.6422 507.985 30.2039 516.126C36.5769 509.827 42.9025 503.483 49.2115 497.12C83.1244 463.031 83.1244 463.031 102.411 448.438C104.56 446.707 106.704 444.97 108.843 443.227C147.339 412.088 192.532 386.635 238.802 368.804C240.475 368.159 242.148 367.514 243.871 366.85C249.269 364.8 254.684 362.809 260.113 360.841C261.802 360.213 263.49 359.584 265.23 358.937C274.642 355.639 281.042 354.09 290.951 356.859Z" fill="#9B2226"/>
<path d="M28.2131 56.4727C28.875 56.4727 29.5369 56.4727 30.2188 56.4727C30.5834 58.3743 30.948 60.2759 31.3236 62.2352C43.359 123.68 69.4713 174.95 122.805 210.903C158.544 233.864 196.86 244.628 238.817 249.584C238.817 250.241 238.817 250.898 238.817 251.575C236.34 251.867 233.863 252.16 231.311 252.461C183.383 258.563 138.568 274.531 102.426 307.318C100.75 308.701 99.075 310.085 97.3488 311.51C65.4935 338.298 45.6861 375.094 35.9854 415.072C35.6467 416.419 35.308 417.767 34.959 419.155C33.027 426.961 31.4408 434.749 30.2188 442.695C29.5569 442.695 28.895 442.695 28.2131 442.695C28.0631 441.386 27.9132 440.077 27.7587 438.729C20.2106 384.523 -8.33321 332.813 -52.3146 299.363C-92.2612 271.499 -134.226 257.866 -182.391 251.575C-182.391 250.918 -182.391 250.261 -182.391 249.584C-179.867 249.268 -177.344 248.953 -174.744 248.627C-128.272 242.49 -84.2522 228.462 -48.0054 197.822C-46.2627 196.39 -44.5201 194.958 -42.7246 193.483C-2.09419 158.827 22.688 109.167 28.2131 56.4727Z" fill="#9B2226"/>
<path d="M277.342 -4.08753C278.278 -3.15144 279.214 -2.21535 280.179 -1.25089C254.144 35.3717 223.955 68.9605 184.445 91.649C183.509 90.7129 182.573 89.7768 181.608 88.8123C205.98 51.1905 238.467 18.6441 277.342 -4.08753Z" fill="#9B2226"/>
<path d="M277.314 -4.09252C278.25 -3.15643 279.186 -2.22034 280.15 -1.25588C271.715 13.3357 260.529 24.2863 248.232 35.6277C246.693 37.0573 245.153 38.487 243.568 39.96C236.28 46.5656 230.32 51.5202 221.016 55.0429C221.474 52.7132 221.932 50.3834 222.403 47.9831C217.754 51.696 213.105 55.4089 208.315 59.2344C207.847 58.7663 207.379 58.2983 206.897 57.816C212.819 51.6801 218.77 45.5757 224.749 39.4959C226.769 37.4341 228.781 35.3647 230.784 33.2869C245.096 18.454 259.657 6.64467 277.314 -4.09252Z" fill="#9B2226"/>
<path d="M251.945 15.5684C252.413 16.0365 252.881 16.5045 253.364 16.9867C251.041 19.3095 248.718 21.6322 246.325 24.0254C247.261 24.9615 248.197 25.8976 249.162 26.862C243.402 38.4461 237.195 47.6761 225.241 53.6196C223.844 54.0806 222.447 54.5417 221.008 55.0167C221.465 52.687 221.923 50.3572 222.394 47.9569C217.745 51.6698 213.097 55.3827 208.307 59.2082C207.839 58.7401 207.371 58.2721 206.889 57.7899C212.273 52.3228 217.673 46.8722 223.076 41.4243C224.593 39.8835 226.11 38.3428 227.673 36.7554C235.384 28.9965 242.931 21.7866 251.945 15.5684Z" fill="#9B2226"/>
<path d="M208.361 64.8647C208.829 65.3327 209.297 65.8008 209.779 66.283C203.643 76.7307 195.063 85.7483 184.44 91.6222C183.504 90.6861 182.568 89.75 181.604 88.7856C184.8 82.8798 188.675 78.4104 193.381 73.6399C194.698 72.2824 196.015 70.9248 197.372 69.5262C201.301 66.2513 201.301 66.2513 208.361 64.8647Z" fill="#9B2226"/>
<path d="M190.012 77.5098C191.884 79.3819 193.756 81.2541 195.685 83.183C191.965 85.9669 188.245 88.7507 184.413 91.6189C183.477 90.6828 182.541 89.7467 181.576 88.7822C184.36 85.0623 187.144 81.3424 190.012 77.5098Z" fill="#9B2226"/>
<path d="M261.984 252.123C261.984 250.799 261.984 249.475 261.984 248.111C306.289 240.625 351.386 238.221 395.367 250.117C395.367 251.441 395.367 252.765 395.367 254.129C351.531 263.497 305.546 263.539 261.984 252.123Z" fill="#9B2226"/>
<path d="M261.99 252.159C261.99 250.835 261.99 249.511 261.99 248.147C278.272 243.794 293.925 243.961 310.64 244.637C312.739 244.715 314.838 244.792 317.001 244.872C326.825 245.354 334.543 246.065 343.612 250.153C341.641 251.477 339.67 252.801 337.64 254.165C343.553 254.827 349.465 255.489 355.557 256.171C355.557 256.832 355.557 257.494 355.557 258.176C347.031 258.328 338.506 258.436 329.98 258.507C327.094 258.537 324.208 258.577 321.322 258.63C300.714 258.998 282.067 257.052 261.99 252.159Z" fill="#9B2226"/>
<path d="M293.773 256.133C293.773 255.472 293.773 254.81 293.773 254.128C297.058 254.128 300.343 254.128 303.727 254.128C303.727 252.804 303.727 251.48 303.727 250.116C315.991 245.997 326.906 243.86 339.561 248.11C340.875 248.772 342.189 249.434 343.543 250.116C341.572 251.44 339.601 252.764 337.571 254.128C343.483 254.79 349.396 255.451 355.488 256.133C355.488 256.795 355.488 257.457 355.488 258.139C347.815 258.198 340.142 258.233 332.469 258.265C330.307 258.281 328.145 258.298 325.918 258.316C314.979 258.349 304.544 258.111 293.773 256.133Z" fill="#9B2226"/>
<path d="M359.48 252.114C359.48 251.452 359.48 250.79 359.48 250.108C371.206 247.059 383.65 246.75 395.315 250.108C395.315 251.432 395.315 252.756 395.315 254.12C388.879 256.036 382.978 256.456 376.278 256.502C374.386 256.53 372.495 256.559 370.546 256.588C365.453 256.126 365.453 256.126 359.48 252.114Z" fill="#9B2226"/>
<path d="M381.418 256.17C381.418 253.522 381.418 250.875 381.418 248.147C386.017 248.809 390.615 249.471 395.353 250.153C395.353 251.476 395.353 252.8 395.353 254.164C390.755 254.826 386.156 255.488 381.418 256.17Z" fill="#9B2226"/>
</g>
</g>
<rect x="0.5" y="0.5" width="537" height="537" rx="34.5" stroke="#9B2226"/>
<defs>
<linearGradient id="paint0_linear_734_2407" x1="26.5" y1="11" x2="603.5" y2="603" gradientUnits="userSpaceOnUse">
<stop stop-color="#F2EFEB"/>
<stop offset="1" stop-color="#FFFBF6"/>
</linearGradient>
<clipPath id="clip0_734_2407">
<rect width="538" height="538" rx="35" fill="white"/>
</clipPath>
</defs>
</svg>
