<svg width="538" height="538" viewBox="0 0 538 538" fill="none" xmlns="http://www.w3.org/2000/svg">
<g clip-path="url(#clip0_731_2345)">
<rect width="538" height="538" rx="35" fill="url(#paint0_linear_731_2345)"/>
<path d="M253.273 226.002V220.557H261.733V199.497H261.328L254.938 207.867L250.618 204.492L258.133 194.592H268.483V220.557H275.143V226.002H253.273ZM283.001 226.497C281.651 226.497 280.646 226.167 279.986 225.507C279.356 224.817 279.041 223.947 279.041 222.897V221.997C279.041 220.947 279.356 220.092 279.986 219.432C280.646 218.742 281.651 218.397 283.001 218.397C284.351 218.397 285.341 218.742 285.971 219.432C286.631 220.092 286.961 220.947 286.961 221.997V222.897C286.961 223.947 286.631 224.817 285.971 225.507C285.341 226.167 284.351 226.497 283.001 226.497Z" fill="#3C3C3B"/>
<path d="M141.719 277.41C139.339 277.41 137.333 277.285 135.701 277.036C134.092 276.787 132.788 276.39 131.791 275.846C130.794 275.302 130.068 274.588 129.615 273.704C129.184 272.797 128.969 271.698 128.969 270.406C128.969 269.499 129.082 268.57 129.309 267.618C129.558 266.666 129.932 265.612 130.431 264.456L132.539 265.102C131.61 267.029 131.145 268.683 131.145 270.066C131.145 271.449 131.802 272.469 133.117 273.126C134.432 273.761 136.506 274.078 139.339 274.078H144.099C145.708 274.078 147.034 274.033 148.077 273.942C149.12 273.851 149.947 273.693 150.559 273.466C151.171 273.239 151.59 272.933 151.817 272.548C152.066 272.14 152.191 271.63 152.191 271.018C152.191 270.633 152.168 270.157 152.123 269.59C152.078 269.001 151.964 268.23 151.783 267.278L151.273 264.456L153.653 264.082L154.095 266.904C154.254 267.924 154.356 268.763 154.401 269.42C154.469 270.055 154.503 270.587 154.503 271.018C154.503 272.197 154.276 273.194 153.823 274.01C153.392 274.826 152.667 275.483 151.647 275.982C150.65 276.481 149.335 276.843 147.703 277.07C146.094 277.297 144.099 277.41 141.719 277.41ZM143.623 264.456C143.17 264.456 142.807 264.331 142.535 264.082C142.263 263.81 142.127 263.379 142.127 262.79C142.127 262.201 142.263 261.781 142.535 261.532C142.807 261.26 143.17 261.124 143.623 261.124H143.997C144.45 261.124 144.813 261.26 145.085 261.532C145.357 261.781 145.493 262.201 145.493 262.79C145.493 263.379 145.357 263.81 145.085 264.082C144.813 264.331 144.45 264.456 143.997 264.456H143.623ZM139.237 264.456C138.784 264.456 138.421 264.331 138.149 264.082C137.877 263.81 137.741 263.379 137.741 262.79C137.741 262.201 137.877 261.781 138.149 261.532C138.421 261.26 138.784 261.124 139.237 261.124H139.611C140.064 261.124 140.427 261.26 140.699 261.532C140.971 261.781 141.107 262.201 141.107 262.79C141.107 263.379 140.971 263.81 140.699 264.082C140.427 264.331 140.064 264.456 139.611 264.456H139.237ZM164.494 277.002C163.406 277.002 162.477 276.911 161.706 276.73C160.958 276.549 160.346 276.254 159.87 275.846C159.417 275.415 159.088 274.86 158.884 274.18C158.68 273.5 158.578 272.673 158.578 271.698V251.842H161.094V271.698C161.094 272.559 161.332 273.171 161.808 273.534C162.284 273.897 163.021 274.078 164.018 274.078H165.208V276.322L164.528 277.002H164.494ZM164.512 274.758L165.192 274.078H165.702C167.198 274.078 168.275 273.897 168.932 273.534C169.612 273.149 169.952 272.423 169.952 271.358C169.952 270.95 169.918 270.429 169.85 269.794C169.805 269.159 169.692 268.321 169.51 267.278L169.034 264.456L171.414 264.082L171.822 266.904C171.981 268.015 172.094 268.921 172.162 269.624C172.23 270.327 172.264 270.905 172.264 271.358C172.264 273.262 171.698 274.679 170.564 275.608C169.454 276.537 167.833 277.002 165.702 277.002H164.512V274.758ZM171.89 283.802C171.437 283.802 171.074 283.666 170.802 283.394C170.53 283.145 170.394 282.725 170.394 282.136C170.394 281.547 170.53 281.116 170.802 280.844C171.074 280.595 171.437 280.47 171.89 280.47H172.264C172.718 280.47 173.08 280.595 173.352 280.844C173.624 281.116 173.76 281.547 173.76 282.136C173.76 282.725 173.624 283.145 173.352 283.394C173.08 283.666 172.718 283.802 172.264 283.802H171.89ZM167.504 283.802C167.051 283.802 166.688 283.666 166.416 283.394C166.144 283.145 166.008 282.725 166.008 282.136C166.008 281.547 166.144 281.116 166.416 280.844C166.688 280.595 167.051 280.47 167.504 280.47H167.878C168.332 280.47 168.694 280.595 168.966 280.844C169.238 281.116 169.374 281.547 169.374 282.136C169.374 282.725 169.238 283.145 168.966 283.394C168.694 283.666 168.332 283.802 167.878 283.802H167.504ZM175.28 282.238H177.082C179.553 282.238 181.457 281.773 182.794 280.844C184.154 279.937 184.993 278.657 185.31 277.002H181.332C179.519 277.002 178.113 276.526 177.116 275.574C176.119 274.622 175.62 273.285 175.62 271.562C175.62 270.542 175.767 269.579 176.062 268.672C176.379 267.765 176.81 266.983 177.354 266.326C177.898 265.646 178.544 265.113 179.292 264.728C180.063 264.32 180.901 264.116 181.808 264.116C183.689 264.116 185.163 264.955 186.228 266.632C187.316 268.309 187.86 270.667 187.86 273.704V274.078H189.424V276.322L188.744 277.002H187.554C187.055 279.609 185.933 281.615 184.188 283.02C182.465 284.448 180.097 285.162 177.082 285.162H175.28V282.238ZM178 271.222C178 272.219 178.261 272.945 178.782 273.398C179.326 273.851 180.176 274.078 181.332 274.078H185.48V273.024C185.48 271.188 185.129 269.737 184.426 268.672C183.746 267.584 182.805 267.04 181.604 267.04C180.448 267.04 179.553 267.425 178.918 268.196C178.306 268.967 178 269.975 178 271.222ZM188.751 274.758L189.431 274.078H190.621C192.547 274.078 193.511 273.115 193.511 271.188V265.816H195.891V271.188C195.891 273.115 196.854 274.078 198.781 274.078H199.971V276.322L199.291 277.002C196.163 277.002 194.327 275.891 193.783 273.67H193.613C193.363 274.917 192.876 275.789 192.151 276.288C191.425 276.764 190.292 277.002 188.751 277.002V274.758ZM196.605 261.736C196.151 261.736 195.789 261.611 195.517 261.362C195.245 261.09 195.109 260.659 195.109 260.07C195.109 259.481 195.245 259.061 195.517 258.812C195.789 258.54 196.151 258.404 196.605 258.404H196.979C197.432 258.404 197.795 258.54 198.067 258.812C198.339 259.061 198.475 259.481 198.475 260.07C198.475 260.659 198.339 261.09 198.067 261.362C197.795 261.611 197.432 261.736 196.979 261.736H196.605ZM192.219 261.736C191.765 261.736 191.403 261.611 191.131 261.362C190.859 261.09 190.723 260.659 190.723 260.07C190.723 259.481 190.859 259.061 191.131 258.812C191.403 258.54 191.765 258.404 192.219 258.404H192.593C193.046 258.404 193.409 258.54 193.681 258.812C193.953 259.061 194.089 259.481 194.089 260.07C194.089 260.659 193.953 261.09 193.681 261.362C193.409 261.611 193.046 261.736 192.593 261.736H192.219ZM199.276 274.758L199.956 274.078H201.146C201.577 274.078 201.951 274.044 202.268 273.976C202.608 273.885 202.914 273.738 203.186 273.534C203.458 273.33 203.707 273.058 203.934 272.718C204.183 272.378 204.444 271.936 204.716 271.392L206.178 268.536L208.116 269.522L206.314 272.922L206.79 273.228C207.515 273.704 208.218 274.033 208.898 274.214C209.601 274.395 210.281 274.486 210.938 274.486C212.003 274.486 212.785 274.237 213.284 273.738C213.805 273.239 214.066 272.389 214.066 271.188V268.536H216.446V271.188C216.446 272.412 216.616 273.273 216.956 273.772C217.296 274.248 217.863 274.486 218.656 274.486H219.438C220.231 274.486 220.787 274.248 221.104 273.772C221.444 273.273 221.614 272.412 221.614 271.188V267.176H223.994V271.188C223.994 273.115 224.957 274.078 226.884 274.078H228.074V276.322L227.394 277.002C225.898 277.002 224.719 276.764 223.858 276.288C222.997 275.789 222.396 275.03 222.056 274.01H221.886C221.75 275.279 221.41 276.163 220.866 276.662C220.322 277.161 219.529 277.41 218.486 277.41C216.151 277.41 214.78 276.277 214.372 274.01H214.202C213.975 275.098 213.533 275.937 212.876 276.526C212.241 277.115 211.391 277.41 210.326 277.41C208.989 277.41 207.493 276.877 205.838 275.812L204.784 275.132C204.127 275.857 203.379 276.356 202.54 276.628C201.701 276.877 200.613 277.002 199.276 277.002V274.758ZM234.675 278.158C233.95 277.75 233.281 277.455 232.669 277.274C232.057 277.115 231.32 277.025 230.459 277.002H227.399V274.758L228.079 274.078H230.629V251.842H233.145V274.384C233.644 274.497 234.131 274.656 234.607 274.86C235.083 275.064 235.593 275.313 236.137 275.608L237.871 276.594L236.409 279.144L234.675 278.158ZM239.129 251.842H241.645V277.002H239.129V251.842ZM261.942 287.338C258.904 287.338 256.558 286.681 254.904 285.366C253.272 284.074 252.456 282.227 252.456 279.824C252.456 278.917 252.569 278.09 252.796 277.342C253.022 276.617 253.408 275.925 253.952 275.268C254.496 274.611 255.21 273.965 256.094 273.33C257 272.673 258.122 271.981 259.46 271.256L259.834 271.052L255.142 265.272V262.348C256.139 261.827 257.216 261.43 258.372 261.158C259.55 260.863 260.695 260.716 261.806 260.716C263.868 260.716 265.466 261.135 266.6 261.974C267.756 262.813 268.334 263.98 268.334 265.476C268.334 266.065 268.266 266.632 268.13 267.176C268.016 267.697 267.79 268.207 267.45 268.706C267.132 269.182 266.679 269.647 266.09 270.1C265.523 270.553 264.786 271.007 263.88 271.46L263.54 271.63C263.993 272.106 264.435 272.503 264.866 272.82C265.296 273.115 265.75 273.364 266.226 273.568C266.702 273.749 267.223 273.885 267.79 273.976C268.356 274.044 269.002 274.078 269.728 274.078H271.666V276.322L270.986 277.002H269.728C268.776 277.002 267.926 276.945 267.178 276.832C266.452 276.696 265.761 276.469 265.104 276.152C264.469 275.835 263.846 275.415 263.234 274.894C262.622 274.35 261.964 273.659 261.262 272.82L260.684 273.126C259.641 273.67 258.757 274.191 258.032 274.69C257.306 275.166 256.717 275.642 256.264 276.118C255.81 276.594 255.482 277.081 255.278 277.58C255.074 278.079 254.972 278.611 254.972 279.178V279.586C254.972 281.082 255.584 282.238 256.808 283.054C258.054 283.87 259.766 284.278 261.942 284.278C263.347 284.278 264.639 284.006 265.818 283.462C266.996 282.941 268.141 282.079 269.252 280.878L271.088 283.156C269.728 284.629 268.322 285.695 266.872 286.352C265.421 287.009 263.778 287.338 261.942 287.338ZM257.42 264.456L262.01 269.93L262.792 269.522C264.016 268.865 264.854 268.275 265.308 267.754C265.784 267.21 266.022 266.621 266.022 265.986C266.022 265.215 265.648 264.637 264.9 264.252C264.152 263.844 263.098 263.64 261.738 263.64C261.08 263.64 260.389 263.697 259.664 263.81C258.961 263.901 258.213 264.071 257.42 264.32V264.456ZM270.995 274.758L271.675 274.078H272.865C274.791 274.078 275.755 273.115 275.755 271.188V265.816H278.135V271.188C278.135 273.115 279.098 274.078 281.025 274.078H282.215V276.322L281.535 277.002C278.407 277.002 276.571 275.891 276.027 273.67H275.857C275.607 274.917 275.12 275.789 274.395 276.288C273.669 276.764 272.536 277.002 270.995 277.002V274.758ZM278.951 283.802C278.497 283.802 278.135 283.666 277.863 283.394C277.591 283.145 277.455 282.725 277.455 282.136C277.455 281.547 277.591 281.116 277.863 280.844C278.135 280.595 278.497 280.47 278.951 280.47H279.325C279.778 280.47 280.141 280.595 280.413 280.844C280.685 281.116 280.821 281.547 280.821 282.136C280.821 282.725 280.685 283.145 280.413 283.394C280.141 283.666 279.778 283.802 279.325 283.802H278.951ZM274.565 283.802C274.111 283.802 273.749 283.666 273.477 283.394C273.205 283.145 273.069 282.725 273.069 282.136C273.069 281.547 273.205 281.116 273.477 280.844C273.749 280.595 274.111 280.47 274.565 280.47H274.939C275.392 280.47 275.755 280.595 276.027 280.844C276.299 281.116 276.435 281.547 276.435 282.136C276.435 282.725 276.299 283.145 276.027 283.394C275.755 283.666 275.392 283.802 274.939 283.802H274.565ZM281.52 274.758L282.2 274.078C282.948 274.078 283.515 274.044 283.9 273.976C284.308 273.908 284.637 273.772 284.886 273.568C284.818 273.319 284.773 273.069 284.75 272.82C284.728 272.571 284.716 272.299 284.716 272.004C284.716 270.78 285.113 269.669 285.906 268.672C286.722 267.652 287.946 266.609 289.578 265.544L291.244 264.456H293.896L296.31 271.018C296.537 271.63 296.741 272.14 296.922 272.548C297.126 272.933 297.342 273.239 297.568 273.466C297.818 273.693 298.078 273.851 298.35 273.942C298.645 274.033 298.985 274.078 299.37 274.078H300.016V276.322L299.336 277.002C298.271 277.002 297.421 276.855 296.786 276.56C296.152 276.243 295.585 275.631 295.086 274.724L294.882 274.792V277.002H290.836C287.912 277.002 286.031 276.152 285.192 274.452H285.056C284.762 275.313 284.354 275.959 283.832 276.39C283.311 276.798 282.54 277.002 281.52 277.002V274.758ZM286.96 271.698C286.96 272.514 287.289 273.115 287.946 273.5C288.604 273.885 289.635 274.078 291.04 274.078H294.746C294.497 273.557 294.225 272.888 293.93 272.072L292.026 266.938L290.734 267.72C289.714 268.332 288.83 268.967 288.082 269.624C287.334 270.281 286.96 270.973 286.96 271.698ZM299.35 274.758L300.03 274.078H301.186C302.184 274.078 303.102 274.044 303.94 273.976C304.802 273.908 305.674 273.783 306.558 273.602C307.442 273.398 308.372 273.115 309.346 272.752C310.344 272.389 311.466 271.913 312.712 271.324L315.84 269.828V269.692L310.808 268.57L303.77 266.836V269.76H301.39V267.142C301.39 266.19 301.651 265.476 302.172 265C302.716 264.501 303.396 264.252 304.212 264.252C304.462 264.252 304.756 264.286 305.096 264.354C305.459 264.399 306.014 264.513 306.762 264.694L315.058 266.836C316.305 267.153 317.348 267.38 318.186 267.516C319.025 267.629 319.75 267.686 320.362 267.686H320.906V270.61H318.322V271.018C318.322 272.151 318.572 272.945 319.07 273.398C319.569 273.851 320.34 274.078 321.382 274.078H322.572V276.322L321.892 277.002C320.895 277.002 320.045 276.911 319.342 276.73C318.64 276.549 318.062 276.254 317.608 275.846C317.178 275.415 316.849 274.871 316.622 274.214C316.418 273.557 316.305 272.752 316.282 271.8L313.63 273.398C312.225 274.237 310.978 274.905 309.89 275.404C308.802 275.88 307.782 276.243 306.83 276.492C305.878 276.719 304.949 276.866 304.042 276.934C303.158 276.979 302.206 277.002 301.186 277.002H299.35V274.758ZM310.196 283.802C309.743 283.802 309.38 283.666 309.108 283.394C308.836 283.145 308.7 282.725 308.7 282.136C308.7 281.547 308.836 281.116 309.108 280.844C309.38 280.595 309.743 280.47 310.196 280.47H310.57C311.024 280.47 311.386 280.595 311.658 280.844C311.93 281.116 312.066 281.547 312.066 282.136C312.066 282.725 311.93 283.145 311.658 283.394C311.386 283.666 311.024 283.802 310.57 283.802H310.196ZM321.895 274.758L322.575 274.078H323.561C324.649 274.078 325.431 273.829 325.907 273.33C326.406 272.831 326.655 272.038 326.655 270.95V251.842H329.171V270.95C329.171 273.035 328.718 274.565 327.811 275.54C326.927 276.515 325.511 277.002 323.561 277.002H321.895V274.758ZM365.819 277.002C364.958 277.002 364.233 276.934 363.643 276.798C363.077 276.639 362.555 276.345 362.079 275.914C360.901 276.639 359.246 277.002 357.115 277.002H341.441V274.078H344.841L346.099 271.936V251.842H348.615V264.286L348.207 268.264L348.377 268.332C349.125 267.335 349.873 266.507 350.621 265.85C351.369 265.17 352.129 264.626 352.899 264.218C353.693 263.81 354.486 263.515 355.279 263.334C356.095 263.153 356.934 263.062 357.795 263.062C359.994 263.062 361.705 263.674 362.929 264.898C364.153 266.099 364.765 267.765 364.765 269.896C364.765 271.483 364.505 272.797 363.983 273.84C364.459 273.999 365.071 274.078 365.819 274.078H366.499V276.322L365.819 277.002ZM357.115 274.078C358.815 274.078 360.119 273.795 361.025 273.228C361.932 272.661 362.385 271.664 362.385 270.236C362.385 268.831 362.023 267.777 361.297 267.074C360.595 266.349 359.597 265.986 358.305 265.986H357.285C356.379 265.986 355.551 266.077 354.803 266.258C354.078 266.417 353.375 266.711 352.695 267.142C352.038 267.55 351.381 268.128 350.723 268.876C350.089 269.601 349.409 270.519 348.683 271.63L347.221 273.908L347.323 274.078H357.115ZM389.249 277.002C388.388 277.002 387.662 276.934 387.073 276.798C386.506 276.639 385.985 276.345 385.509 275.914C384.33 276.639 382.676 277.002 380.545 277.002H365.823V274.758L366.503 274.078H368.271L369.529 271.936V251.842H372.045V264.286L371.637 268.264L371.807 268.332C372.555 267.335 373.303 266.507 374.051 265.85C374.799 265.17 375.558 264.626 376.329 264.218C377.122 263.81 377.916 263.515 378.709 263.334C379.525 263.153 380.364 263.062 381.225 263.062C383.424 263.062 385.135 263.674 386.359 264.898C387.583 266.099 388.195 267.765 388.195 269.896C388.195 271.483 387.934 272.797 387.413 273.84C387.889 273.999 388.501 274.078 389.249 274.078H389.929V276.322L389.249 277.002ZM380.545 274.078C382.245 274.078 383.548 273.795 384.455 273.228C385.362 272.661 385.815 271.664 385.815 270.236C385.815 268.831 385.452 267.777 384.727 267.074C384.024 266.349 383.027 265.986 381.735 265.986H380.715C379.808 265.986 378.981 266.077 378.233 266.258C377.508 266.417 376.805 266.711 376.125 267.142C375.468 267.55 374.81 268.128 374.153 268.876C373.518 269.601 372.838 270.519 372.113 271.63L370.651 273.908L370.753 274.078H380.545ZM389.264 274.758L389.944 274.078H391.1C392.098 274.078 393.016 274.044 393.854 273.976C394.716 273.908 395.588 273.783 396.472 273.602C397.356 273.398 398.286 273.115 399.26 272.752C400.258 272.389 401.38 271.913 402.626 271.324L405.754 269.828V269.692L400.722 268.57L393.684 266.836V269.76H391.304V267.142C391.304 266.19 391.565 265.476 392.086 265C392.63 264.501 393.31 264.252 394.126 264.252C394.376 264.252 394.67 264.286 395.01 264.354C395.373 264.399 395.928 264.513 396.676 264.694L404.972 266.836C406.219 267.153 407.262 267.38 408.1 267.516C408.939 267.629 409.664 267.686 410.276 267.686H410.82V270.61H408.168L403.544 273.398C402.139 274.237 400.892 274.905 399.804 275.404C398.716 275.88 397.696 276.243 396.744 276.492C395.792 276.719 394.863 276.866 393.956 276.934C393.072 276.979 392.12 277.002 391.1 277.002H389.264V274.758ZM398.376 260.376C397.923 260.376 397.56 260.251 397.288 260.002C397.016 259.73 396.88 259.299 396.88 258.71C396.88 258.121 397.016 257.701 397.288 257.452C397.56 257.18 397.923 257.044 398.376 257.044H398.75C399.204 257.044 399.566 257.18 399.838 257.452C400.11 257.701 400.246 258.121 400.246 258.71C400.246 259.299 400.11 259.73 399.838 260.002C399.566 260.251 399.204 260.376 398.75 260.376H398.376Z" fill="#3C3C3B"/>
<path d="M65.2044 303.16L53.3506 308.593L52.0171 305.679L63.8215 300.197L65.2044 303.16ZM65.2044 295.999L53.3506 301.432L52.0171 298.518L63.8215 293.035L65.2044 295.999ZM51.884 336.336L59.984 334.36L56.0328 311.937L61.1694 310.999L65.0713 333.027C66.2567 332.632 67.228 332.204 67.9853 331.743C68.7756 331.282 69.4012 330.738 69.8622 330.113C70.3231 329.487 70.636 328.763 70.8006 327.94C70.9982 327.084 71.0969 326.063 71.0969 324.877V304.578H76.3323V330.952C76.3323 333.422 77.5671 334.657 80.0366 334.657H81.9135V339.793L80.5799 341.127C77.5177 341.094 75.2787 340.337 73.8628 338.855C72.4469 337.34 71.739 334.97 71.739 331.743V330.854H71.4427C70.9817 333.521 70.2079 335.562 69.1213 336.978C68.0347 338.394 66.5036 339.365 64.528 339.892L53.4151 342.609L51.884 336.336ZM87.6509 338.312C86.8936 339.365 85.9716 340.106 84.885 340.534C83.7984 340.929 82.3661 341.127 80.588 341.127V335.99L81.9216 334.657C83.1728 334.657 84.0783 334.426 84.6381 333.965C85.1978 333.504 85.6917 332.714 86.1198 331.595L87.5027 328.137C87.8979 327.116 88.3588 326.162 88.8857 325.273C89.4125 324.384 90.0217 323.626 90.7131 323.001C91.4046 322.342 92.1949 321.832 93.0839 321.469C93.9729 321.107 94.9937 320.926 96.1461 320.926C99.0108 320.926 101.2 322.112 102.715 324.482C104.23 326.853 104.987 330.129 104.987 334.311V336.04L100.838 342.214L87.6509 338.312ZM90.1204 332.335L100.295 335.348V334.311C100.295 332.138 99.8175 330.459 98.8626 329.273C97.9406 328.055 96.6894 327.446 95.1089 327.446C93.9565 327.446 93.018 327.759 92.2936 328.384C91.5692 329.01 90.993 329.915 90.565 331.101L90.1204 332.335ZM119.502 341.127C116.242 341.127 113.839 340.403 112.291 338.954C110.776 337.505 110.019 335.101 110.019 331.743V304.578H115.304V331.051C115.304 332.467 115.6 333.422 116.193 333.916C116.819 334.41 117.872 334.657 119.354 334.657H120.885V339.793L119.551 341.127H119.502ZM119.56 335.99L120.894 334.657H128.401C129.653 334.657 130.558 334.492 131.118 334.163C131.678 333.801 131.957 333.208 131.957 332.385C131.957 331.759 131.76 331.216 131.365 330.755C131.003 330.294 130.295 329.718 129.241 329.026L121.388 323.84V312.184L144.404 303.985V309.912L123.66 317.321V317.568L129.241 321.42C130.591 322.309 131.727 323.149 132.649 323.939C133.571 324.696 134.312 325.487 134.871 326.31C135.431 327.1 135.826 327.923 136.057 328.779C136.32 329.635 136.452 330.574 136.452 331.595C136.452 334.788 135.695 337.176 134.18 338.756C132.665 340.337 130.262 341.127 126.969 341.127H119.56V335.99ZM167.298 349.079C162.458 349.079 158.77 347.926 156.235 345.622C153.699 343.35 152.432 340.106 152.432 335.892C152.432 334.41 152.629 332.763 153.024 330.952C153.453 329.141 154.029 327.38 154.753 325.668L159.001 326.902C158.375 328.285 157.865 329.701 157.47 331.15C157.075 332.566 156.877 333.834 156.877 334.953C156.877 337.225 157.634 339.003 159.149 340.287C160.696 341.539 162.804 342.164 165.471 342.164H169.126C172.155 342.164 174.361 341.506 175.744 340.189C177.16 338.839 177.868 336.764 177.868 333.965C177.868 333.142 177.786 332.138 177.621 330.952C177.456 329.767 177.242 328.499 176.979 327.149L176.041 322.704L180.782 321.766L181.671 326.162C181.934 327.61 182.148 329.01 182.313 330.36C182.478 331.71 182.56 332.912 182.56 333.965C182.56 339.168 181.325 342.987 178.856 345.424C176.419 347.861 172.567 349.079 167.298 349.079ZM167.15 322.358C166.36 322.358 165.701 322.128 165.175 321.667C164.681 321.173 164.434 320.399 164.434 319.346C164.434 318.259 164.681 317.485 165.175 317.024C165.701 316.53 166.36 316.283 167.15 316.283H167.99C168.78 316.283 169.422 316.53 169.916 317.024C170.443 317.485 170.706 318.259 170.706 319.346C170.706 320.399 170.443 321.173 169.916 321.667C169.422 322.128 168.78 322.358 167.99 322.358H167.15ZM187.827 310.604H193.112V341.127H187.827V310.604ZM182.987 305.22C182.987 303.87 183.349 302.866 184.073 302.207C184.765 301.516 185.901 301.335 187.481 301.664L190.395 302.256C191.153 302.421 191.713 302.52 192.075 302.553C192.47 302.586 192.783 302.602 193.013 302.602C193.738 302.602 194.264 302.454 194.594 302.158C194.923 301.861 195.219 301.318 195.483 300.528L198.15 301.812C197.821 303.458 197.244 304.66 196.421 305.418C195.598 306.175 194.462 306.553 193.013 306.553C192.585 306.553 192.141 306.537 191.68 306.504C191.219 306.438 190.56 306.323 189.704 306.158L186.148 305.516V306.949H182.987V305.22ZM193.656 346.511H195.583C198.744 346.511 200.999 345.786 202.349 344.337C203.699 342.921 204.358 340.847 204.325 338.114C204.325 337.291 204.275 336.435 204.177 335.546C204.078 334.624 203.946 333.685 203.781 332.731L202.744 326.458L207.535 325.668L208.276 330.014C208.572 331.66 208.77 333.208 208.869 334.657H213.462V339.793L212.128 341.127H208.869C208.638 342.905 208.194 344.518 207.535 345.967C206.877 347.416 206.004 348.651 204.917 349.672C203.831 350.725 202.514 351.532 200.966 352.092C199.419 352.684 197.641 352.981 195.632 352.981H193.656V346.511ZM212.12 335.99L213.453 334.657H219.281L219.38 334.41C217.997 333.159 216.993 331.809 216.367 330.36C215.775 328.911 215.478 327.429 215.478 325.915C215.478 324.499 215.709 323.165 216.17 321.914C216.631 320.63 217.273 319.527 218.096 318.605C218.952 317.65 219.956 316.909 221.109 316.382C222.294 315.822 223.595 315.543 225.011 315.543C226.426 315.543 227.711 315.822 228.863 316.382C230.016 316.909 231.003 317.65 231.826 318.605C232.683 319.527 233.341 320.63 233.802 321.914C234.263 323.165 234.494 324.499 234.494 325.915C234.494 327.429 234.181 328.911 233.555 330.36C232.962 331.809 231.975 333.159 230.592 334.41L230.691 334.657H236.667V339.793L235.333 341.127H234.79C233.045 341.127 231.349 340.913 229.703 340.485C228.056 340.024 226.492 339.267 225.011 338.213C223.529 339.267 221.965 340.024 220.318 340.485C218.705 340.913 217.026 341.127 215.281 341.127H212.12V335.99ZM225.011 333.768C226.69 332.813 227.974 331.792 228.863 330.706C229.752 329.586 230.197 328.302 230.197 326.853C230.197 325.371 229.719 324.202 228.764 323.346C227.842 322.457 226.673 322.013 225.258 322.013H224.714C223.298 322.013 222.113 322.457 221.158 323.346C220.236 324.202 219.775 325.371 219.775 326.853C219.775 328.302 220.22 329.586 221.109 330.706C222.031 331.792 223.331 332.813 225.011 333.768ZM228.221 310.999C227.431 310.999 226.772 310.768 226.245 310.307C225.751 309.813 225.504 309.039 225.504 307.986C225.504 306.899 225.751 306.125 226.245 305.664C226.772 305.171 227.431 304.924 228.221 304.924H229.061C229.851 304.924 230.493 305.171 230.987 305.664C231.514 306.125 231.777 306.899 231.777 307.986C231.777 309.039 231.514 309.813 230.987 310.307C230.493 310.768 229.851 310.999 229.061 310.999H228.221ZM220.862 310.999C220.072 310.999 219.413 310.768 218.886 310.307C218.392 309.813 218.145 309.039 218.145 307.986C218.145 306.899 218.392 306.125 218.886 305.664C219.413 305.171 220.072 304.924 220.862 304.924H221.701C222.492 304.924 223.134 305.171 223.628 305.664C224.154 306.125 224.418 306.899 224.418 307.986C224.418 309.039 224.154 309.813 223.628 310.307C223.134 310.768 222.492 310.999 221.701 310.999H220.862ZM235.32 335.99L236.653 334.657H238.629C239.946 334.657 240.851 334.377 241.345 333.817C241.872 333.257 242.136 332.385 242.136 331.199V304.578H247.371V331.199C247.371 334.591 246.696 337.093 245.346 338.707C244.029 340.287 241.79 341.094 238.629 341.127H235.32V335.99ZM253.754 304.578H259.038V341.127H253.754V304.578ZM311.92 341.127C310.735 341.127 309.648 340.995 308.66 340.732C307.705 340.468 306.8 339.991 305.944 339.299C303.935 340.518 301.103 341.127 297.449 341.127H275.667V334.657H280.063L281.495 332.187V304.578H286.731V318.802L286.138 324.581L286.434 324.729C288.278 322.655 290.188 321.19 292.164 320.333C294.172 319.477 296.378 319.049 298.782 319.049C302.47 319.049 305.252 320.054 307.129 322.062C309.039 324.071 309.994 326.87 309.994 330.459C309.994 331.216 309.944 331.94 309.846 332.632C309.78 333.29 309.665 333.899 309.5 334.459C309.895 334.525 310.29 334.574 310.685 334.607C311.08 334.64 311.492 334.657 311.92 334.657H313.254V339.793L311.92 341.127ZM297.449 334.657C300.379 334.657 302.453 334.36 303.672 333.768C304.89 333.142 305.499 331.99 305.499 330.31C305.499 328.697 305.022 327.495 304.067 326.705C303.112 325.915 301.597 325.52 299.523 325.52H298.041C296.592 325.52 295.325 325.602 294.238 325.766C293.152 325.898 292.147 326.178 291.225 326.606C290.336 327.001 289.513 327.577 288.756 328.335C287.998 329.059 287.241 329.998 286.484 331.15L284.36 334.36L284.508 334.657H297.449ZM296.856 314.505C296.066 314.505 295.407 314.275 294.88 313.814C294.386 313.32 294.139 312.546 294.139 311.493C294.139 310.406 294.386 309.632 294.88 309.171C295.407 308.677 296.066 308.43 296.856 308.43H297.696C298.486 308.43 299.128 308.677 299.622 309.171C300.149 309.632 300.412 310.406 300.412 311.493C300.412 312.546 300.149 313.32 299.622 313.814C299.128 314.275 298.486 314.505 297.696 314.505H296.856ZM311.914 335.99L313.247 334.657H319.075L319.174 334.41C317.791 333.159 316.787 331.809 316.161 330.36C315.569 328.911 315.272 327.429 315.272 325.915C315.272 324.499 315.503 323.165 315.964 321.914C316.425 320.63 317.067 319.527 317.89 318.605C318.746 317.65 319.75 316.909 320.903 316.382C322.088 315.822 323.389 315.543 324.805 315.543C326.221 315.543 327.505 315.822 328.657 316.382C329.81 316.909 330.798 317.65 331.621 318.605C332.477 319.527 333.135 320.63 333.596 321.914C334.057 323.165 334.288 324.499 334.288 325.915C334.288 327.429 333.975 328.911 333.349 330.36C332.757 331.809 331.769 333.159 330.386 334.41L330.485 334.657H336.461V339.793L335.127 341.127H334.584C332.839 341.127 331.143 340.913 329.497 340.485C327.851 340.024 326.287 339.267 324.805 338.213C323.323 339.267 321.759 340.024 320.113 340.485C318.499 340.913 316.82 341.127 315.075 341.127H311.914V335.99ZM324.805 333.768C326.484 332.813 327.768 331.792 328.657 330.706C329.546 329.586 329.991 328.302 329.991 326.853C329.991 325.371 329.513 324.202 328.558 323.346C327.637 322.457 326.468 322.013 325.052 322.013H324.508C323.093 322.013 321.907 322.457 320.952 323.346C320.03 324.202 319.569 325.371 319.569 326.853C319.569 328.302 320.014 329.586 320.903 330.706C321.825 331.792 323.126 332.813 324.805 333.768ZM324.36 310.999C323.57 310.999 322.911 310.768 322.385 310.307C321.891 309.813 321.644 309.039 321.644 307.986C321.644 306.899 321.891 306.125 322.385 305.664C322.911 305.171 323.57 304.924 324.36 304.924H325.2C325.99 304.924 326.632 305.171 327.126 305.664C327.653 306.125 327.916 306.899 327.916 307.986C327.916 309.039 327.653 309.813 327.126 310.307C326.632 310.768 325.99 310.999 325.2 310.999H324.36ZM359.281 347.16L347.428 352.593L346.094 349.679L357.898 344.197L359.281 347.16ZM335.114 335.99L336.448 334.657H339.362C341.074 334.657 342.638 334.624 344.054 334.558C345.47 334.492 346.82 334.36 348.104 334.163C349.388 333.932 350.672 333.603 351.956 333.175C353.273 332.747 354.706 332.154 356.253 331.397L358.871 330.113V329.866L351.166 328.236L342.868 326.162V330.063H337.88V326.26C337.88 322.243 339.724 320.235 343.412 320.235C343.642 320.235 343.889 320.251 344.152 320.284C344.416 320.284 344.712 320.317 345.041 320.383C345.404 320.449 345.832 320.548 346.326 320.679C346.82 320.778 347.412 320.926 348.104 321.124L358.377 323.791C359.859 324.153 361.307 324.433 362.723 324.63C364.172 324.828 365.539 324.927 366.823 324.927H367.761V331.446H363.859L358.624 334.854C356.484 336.237 354.574 337.357 352.895 338.213C351.215 339.036 349.618 339.662 348.104 340.09C346.622 340.518 345.173 340.798 343.757 340.929C342.374 341.061 340.909 341.127 339.362 341.127H335.114V335.99ZM418.467 341.127C417.281 341.127 416.195 340.995 415.207 340.732C414.252 340.468 413.347 339.991 412.491 339.299C410.482 340.518 407.65 341.127 403.995 341.127H382.214V334.657H386.61L388.042 332.187V304.578H393.278V318.802L392.685 324.581L392.981 324.729C394.825 322.655 396.735 321.19 398.711 320.333C400.719 319.477 402.925 319.049 405.329 319.049C409.017 319.049 411.799 320.054 413.676 322.062C415.586 324.071 416.541 326.87 416.541 330.459C416.541 331.216 416.491 331.94 416.392 332.632C416.327 333.29 416.211 333.899 416.047 334.459C416.442 334.525 416.837 334.574 417.232 334.607C417.627 334.64 418.039 334.657 418.467 334.657H419.8V339.793L418.467 341.127ZM403.995 334.657C406.926 334.657 409 334.36 410.219 333.768C411.437 333.142 412.046 331.99 412.046 330.31C412.046 328.697 411.569 327.495 410.614 326.705C409.659 325.915 408.144 325.52 406.07 325.52H404.588C403.139 325.52 401.872 325.602 400.785 325.766C399.698 325.898 398.694 326.178 397.772 326.606C396.883 327.001 396.06 327.577 395.303 328.335C394.545 329.059 393.788 329.998 393.031 331.15L390.907 334.36L391.055 334.657H403.995ZM453.973 341.127C452.787 341.127 451.701 340.995 450.713 340.732C449.758 340.468 448.852 339.991 447.996 339.299C445.988 340.518 443.156 341.127 439.501 341.127H418.461V335.99L419.794 334.657H422.116L423.548 332.187V304.578H428.783V318.802L428.191 324.581L428.487 324.729C430.331 322.655 432.241 321.19 434.216 320.333C436.225 319.477 438.431 319.049 440.835 319.049C444.523 319.049 447.305 320.054 449.182 322.062C451.091 324.071 452.046 326.87 452.046 330.459C452.046 331.216 451.997 331.94 451.898 332.632C451.832 333.29 451.717 333.899 451.552 334.459C451.948 334.525 452.343 334.574 452.738 334.607C453.133 334.64 453.545 334.657 453.973 334.657H455.306V339.793L453.973 341.127ZM439.501 334.657C442.432 334.657 444.506 334.36 445.724 333.768C446.943 333.142 447.552 331.99 447.552 330.31C447.552 328.697 447.074 327.495 446.119 326.705C445.165 325.915 443.65 325.52 441.576 325.52H440.094C438.645 325.52 437.377 325.602 436.291 325.766C435.204 325.898 434.2 326.178 433.278 326.606C432.389 327.001 431.566 327.577 430.808 328.335C430.051 329.059 429.294 329.998 428.536 331.15L426.413 334.36L426.561 334.657H439.501ZM453.96 335.99L455.294 334.657H458.208C459.92 334.657 461.484 334.624 462.9 334.558C464.316 334.492 465.666 334.36 466.95 334.163C468.234 333.932 469.518 333.603 470.802 333.175C472.12 332.747 473.552 332.154 475.099 331.397L477.717 330.113V329.866L470.012 328.236L461.715 326.162V330.063H456.726V326.26C456.726 322.243 458.57 320.235 462.258 320.235C462.488 320.235 462.735 320.251 462.999 320.284C463.262 320.284 463.558 320.317 463.888 320.383C464.25 320.449 464.678 320.548 465.172 320.679C465.666 320.778 466.258 320.926 466.95 321.124L477.223 323.791C478.705 324.153 480.154 324.433 481.57 324.63C483.018 324.828 484.385 324.927 485.669 324.927H486.607V331.446H482.706L477.47 334.854C475.33 336.237 473.42 337.357 471.741 338.213C470.062 339.036 468.465 339.662 466.95 340.09C465.468 340.518 464.019 340.798 462.604 340.929C461.221 341.061 459.755 341.127 458.208 341.127H453.96V335.99ZM468.086 315.79C467.296 315.79 466.637 315.559 466.11 315.098C465.616 314.604 465.369 313.83 465.369 312.777C465.369 311.69 465.616 310.916 466.11 310.455C466.637 309.961 467.296 309.714 468.086 309.714H468.926C469.716 309.714 470.358 309.961 470.852 310.455C471.379 310.916 471.642 311.69 471.642 312.777C471.642 313.83 471.379 314.604 470.852 315.098C470.358 315.559 469.716 315.79 468.926 315.79H468.086Z" fill="#9B2226"/>
<g opacity="0.04">
<path d="M290.951 356.859C292.317 357.072 293.684 357.284 295.091 357.502C296.373 357.947 297.654 358.392 298.974 358.85C301.584 364.504 303.596 369.794 305.493 375.687C306.085 377.436 306.677 379.185 307.287 380.987C309.228 386.746 311.122 392.519 313.015 398.294C314.338 402.259 315.665 406.224 316.995 410.188C319.708 418.291 322.404 426.4 325.088 434.514C328.799 445.704 332.613 456.858 336.457 468.004C338.139 472.906 339.819 477.809 341.498 482.712C342.564 485.82 343.636 488.926 344.712 492.031C346.198 496.327 347.661 500.63 349.118 504.936C349.945 507.349 350.773 509.763 351.625 512.25C353.13 518.117 353.13 518.117 351.124 524.09C346.431 526.793 341.854 529.148 336.958 531.431C334.038 532.833 331.118 534.235 328.199 535.638C325.935 536.714 325.935 536.714 323.625 537.813C314.893 542.002 306.258 546.387 297.607 550.738C290.807 554.128 283.992 557.17 276.911 559.925C280.678 544.078 285.142 528.666 290.45 513.265C291.863 509.114 293.276 504.964 294.689 500.814C295.754 497.699 295.754 497.699 296.84 494.522C298.939 488.357 301.011 482.184 303.072 476.006C303.713 474.087 304.353 472.167 305.013 470.189C306.23 466.538 307.446 462.888 308.66 459.236C309.205 457.608 309.75 455.979 310.311 454.301C311.025 452.162 311.025 452.162 311.753 449.979C313.015 446.447 313.015 446.447 315.02 442.465C203.888 468.672 113.149 518.121 30.2039 595.76C22.0971 592.583 16.9111 586.833 11.0239 580.704C0.0282149 569.541 -11.536 559.574 -23.9514 549.971C-25.9707 548.377 -27.99 546.783 -30.0705 545.141C-93.3546 495.549 -167.544 460.913 -246.307 443.912C-252.607 442.465 -252.607 442.465 -256.618 440.475C-256.155 441.842 -255.693 443.21 -255.216 444.619C-246.541 470.283 -237.923 495.966 -229.541 521.726C-228.863 523.787 -228.186 525.849 -227.488 527.974C-224.482 537.264 -221.713 546.216 -220.515 555.943C-237.247 551.082 -252.314 543.49 -267.775 535.661C-270.398 534.345 -273.022 533.029 -275.645 531.715C-282.013 528.522 -288.372 525.315 -294.728 522.099C-288.445 500.145 -280.701 478.651 -273.188 457.091C-272.005 453.691 -270.822 450.291 -269.64 446.89C-269.051 445.196 -268.461 443.501 -267.854 441.755C-264.455 431.937 -261.161 422.093 -257.983 412.202C-256.083 406.295 -254.147 400.401 -252.207 394.507C-251.31 391.741 -250.431 388.969 -249.573 386.191C-243.098 365.267 -243.098 365.267 -237.374 359.747C-225.276 353.648 -210.854 358.322 -198.687 362.157C-146.238 379.714 -98.3298 405.728 -54.0376 438.484C-52.8104 439.386 -51.5833 440.289 -50.3189 441.219C-30.9286 455.589 -13.2618 471.576 4.12913 488.255C5.8149 489.869 7.50067 491.483 9.23752 493.146C16.7277 500.455 23.6422 507.985 30.2039 516.126C36.5769 509.827 42.9025 503.483 49.2115 497.12C83.1244 463.031 83.1244 463.031 102.411 448.438C104.56 446.707 106.704 444.97 108.843 443.227C147.339 412.088 192.532 386.635 238.802 368.804C240.475 368.159 242.148 367.514 243.871 366.85C249.269 364.8 254.684 362.809 260.113 360.841C261.802 360.213 263.49 359.584 265.23 358.937C274.642 355.639 281.042 354.09 290.951 356.859Z" fill="#9B2226"/>
<path d="M28.2131 56.4727C28.875 56.4727 29.5369 56.4727 30.2188 56.4727C30.5834 58.3743 30.948 60.2759 31.3236 62.2352C43.359 123.68 69.4713 174.95 122.805 210.903C158.544 233.864 196.86 244.628 238.817 249.584C238.817 250.241 238.817 250.898 238.817 251.575C236.34 251.867 233.863 252.16 231.311 252.461C183.383 258.563 138.568 274.531 102.426 307.318C100.75 308.701 99.075 310.085 97.3488 311.51C65.4935 338.298 45.6861 375.094 35.9854 415.072C35.6467 416.419 35.308 417.767 34.959 419.155C33.027 426.961 31.4408 434.749 30.2188 442.695C29.5569 442.695 28.895 442.695 28.2131 442.695C28.0631 441.386 27.9132 440.077 27.7587 438.729C20.2106 384.523 -8.33321 332.813 -52.3146 299.363C-92.2612 271.499 -134.226 257.866 -182.391 251.575C-182.391 250.918 -182.391 250.261 -182.391 249.584C-179.867 249.268 -177.344 248.953 -174.744 248.627C-128.272 242.49 -84.2522 228.462 -48.0054 197.822C-46.2627 196.39 -44.5201 194.958 -42.7246 193.483C-2.09419 158.827 22.688 109.167 28.2131 56.4727Z" fill="#9B2226"/>
<path d="M277.341 -4.08753C278.277 -3.15144 279.213 -2.21535 280.178 -1.25089C254.143 35.3717 223.954 68.9605 184.444 91.649C183.508 90.7129 182.572 89.7768 181.607 88.8123C205.979 51.1905 238.466 18.6441 277.341 -4.08753Z" fill="#9B2226"/>
<path d="M277.312 -4.09252C278.248 -3.15643 279.184 -2.22034 280.148 -1.25588C271.713 13.3357 260.527 24.2863 248.23 35.6277C246.691 37.0573 245.151 38.487 243.566 39.96C236.278 46.5656 230.318 51.5202 221.014 55.0429C221.472 52.7132 221.93 50.3834 222.401 47.9831C217.752 51.696 213.103 55.4089 208.313 59.2344C207.845 58.7663 207.377 58.2983 206.895 57.816C212.817 51.6801 218.769 45.5757 224.747 39.4959C226.767 37.4341 228.779 35.3647 230.782 33.2869C245.094 18.454 259.655 6.64467 277.312 -4.09252Z" fill="#9B2226"/>
<path d="M251.944 15.5684C252.412 16.0365 252.88 16.5045 253.363 16.9867C251.04 19.3095 248.717 21.6322 246.324 24.0254C247.26 24.9615 248.196 25.8976 249.161 26.862C243.401 38.4461 237.194 47.6761 225.24 53.6196C223.843 54.0806 222.446 54.5417 221.007 55.0167C221.464 52.687 221.922 50.3572 222.393 47.9569C217.744 51.6698 213.096 55.3827 208.306 59.2082C207.838 58.7401 207.37 58.2721 206.888 57.7899C212.272 52.3228 217.672 46.8722 223.075 41.4243C224.592 39.8835 226.109 38.3428 227.672 36.7554C235.383 28.9965 242.93 21.7866 251.944 15.5684Z" fill="#9B2226"/>
<path d="M208.36 64.8647C208.828 65.3327 209.296 65.8008 209.778 66.283C203.642 76.7307 195.062 85.7483 184.439 91.6222C183.503 90.6861 182.567 89.75 181.603 88.7856C184.799 82.8798 188.674 78.4104 193.38 73.6399C194.697 72.2824 196.014 70.9248 197.371 69.5262C201.3 66.2513 201.3 66.2513 208.36 64.8647Z" fill="#9B2226"/>
<path d="M190.011 77.5098C191.883 79.3819 193.755 81.2541 195.684 83.183C191.964 85.9669 188.244 88.7507 184.412 91.6189C183.476 90.6828 182.54 89.7467 181.575 88.7822C184.359 85.0623 187.143 81.3424 190.011 77.5098Z" fill="#9B2226"/>
<path d="M261.985 252.123C261.985 250.799 261.985 249.475 261.985 248.111C306.29 240.625 351.387 238.221 395.368 250.117C395.368 251.441 395.368 252.765 395.368 254.129C351.532 263.497 305.547 263.539 261.985 252.123Z" fill="#9B2226"/>
<path d="M261.992 252.159C261.992 250.835 261.992 249.511 261.992 248.147C278.274 243.794 293.927 243.961 310.642 244.637C312.741 244.715 314.84 244.792 317.003 244.872C326.827 245.354 334.545 246.065 343.614 250.153C341.643 251.477 339.672 252.801 337.642 254.165C343.554 254.827 349.467 255.489 355.559 256.171C355.559 256.832 355.559 257.494 355.559 258.176C347.033 258.328 338.508 258.436 329.982 258.507C327.096 258.537 324.21 258.577 321.324 258.63C300.716 258.998 282.069 257.052 261.992 252.159Z" fill="#9B2226"/>
<path d="M293.775 256.133C293.775 255.472 293.775 254.81 293.775 254.128C297.06 254.128 300.345 254.128 303.729 254.128C303.729 252.804 303.729 251.48 303.729 250.116C315.993 245.997 326.908 243.86 339.563 248.11C340.877 248.772 342.191 249.434 343.545 250.116C341.574 251.44 339.603 252.764 337.573 254.128C343.485 254.79 349.398 255.451 355.49 256.133C355.49 256.795 355.49 257.457 355.49 258.139C347.817 258.198 340.144 258.233 332.471 258.265C330.309 258.281 328.147 258.298 325.919 258.316C314.981 258.349 304.546 258.111 293.775 256.133Z" fill="#9B2226"/>
<path d="M359.48 252.114C359.48 251.452 359.48 250.79 359.48 250.108C371.206 247.059 383.65 246.75 395.315 250.108C395.315 251.432 395.315 252.756 395.315 254.12C388.879 256.036 382.978 256.456 376.278 256.502C374.386 256.53 372.495 256.559 370.546 256.588C365.453 256.126 365.453 256.126 359.48 252.114Z" fill="#9B2226"/>
<path d="M381.419 256.17C381.419 253.522 381.419 250.875 381.419 248.147C386.018 248.809 390.616 249.471 395.354 250.153C395.354 251.476 395.354 252.8 395.354 254.164C390.756 254.826 386.157 255.488 381.419 256.17Z" fill="#9B2226"/>
</g>
</g>
<rect x="0.5" y="0.5" width="537" height="537" rx="34.5" stroke="#9B2226"/>
<defs>
<linearGradient id="paint0_linear_731_2345" x1="26.5" y1="11" x2="603.5" y2="603" gradientUnits="userSpaceOnUse">
<stop stop-color="#F2EFEB"/>
<stop offset="1" stop-color="#FFFBF6"/>
</linearGradient>
<clipPath id="clip0_731_2345">
<rect width="538" height="538" rx="35" fill="white"/>
</clipPath>
</defs>
</svg>
