<svg width="538" height="538" viewBox="0 0 538 538" fill="none" xmlns="http://www.w3.org/2000/svg">
<g clip-path="url(#clip0_734_2369)">
<rect width="538" height="538" rx="35" fill="url(#paint0_linear_734_2369)"/>
<path d="M273.838 226.002H251.608V219.837L261.283 211.557C262.153 210.807 262.888 210.132 263.488 209.532C264.088 208.902 264.568 208.302 264.928 207.732C265.318 207.132 265.588 206.547 265.738 205.977C265.918 205.407 266.008 204.792 266.008 204.132V203.502C266.008 202.902 265.888 202.377 265.648 201.927C265.408 201.477 265.093 201.102 264.703 200.802C264.313 200.502 263.863 200.277 263.353 200.127C262.873 199.977 262.378 199.902 261.868 199.902C261.118 199.902 260.458 200.022 259.888 200.262C259.348 200.502 258.868 200.832 258.448 201.252C258.058 201.642 257.728 202.107 257.458 202.647C257.188 203.157 256.978 203.712 256.828 204.312L250.933 202.062C251.293 200.982 251.788 199.962 252.418 199.002C253.048 198.012 253.828 197.157 254.758 196.437C255.718 195.687 256.843 195.102 258.133 194.682C259.423 194.262 260.878 194.052 262.498 194.052C264.208 194.052 265.723 194.292 267.043 194.772C268.363 195.252 269.473 195.912 270.373 196.752C271.303 197.592 272.008 198.597 272.488 199.767C272.968 200.907 273.208 202.152 273.208 203.502C273.208 204.852 272.983 206.082 272.533 207.192C272.083 208.302 271.468 209.352 270.688 210.342C269.938 211.302 269.053 212.217 268.033 213.087C267.013 213.957 265.948 214.842 264.838 215.742L258.988 220.332H273.838V226.002ZM283.001 226.497C281.651 226.497 280.646 226.167 279.986 225.507C279.356 224.817 279.041 223.947 279.041 222.897V221.997C279.041 220.947 279.356 220.092 279.986 219.432C280.646 218.742 281.651 218.397 283.001 218.397C284.351 218.397 285.341 218.742 285.971 219.432C286.631 220.092 286.961 220.947 286.961 221.997V222.897C286.961 223.947 286.631 224.817 285.971 225.507C285.341 226.167 284.351 226.497 283.001 226.497Z" fill="#3C3C3B"/>
<path d="M183.33 277.002C182.287 277.002 181.403 276.911 180.678 276.73C179.952 276.526 179.352 276.22 178.876 275.812C178.422 275.381 178.094 274.826 177.89 274.146C177.686 273.466 177.584 272.65 177.584 271.698V271.426L171.838 272.412C171.951 273.205 172.03 273.897 172.076 274.486C172.144 275.053 172.178 275.597 172.178 276.118C172.178 279.223 171.35 281.501 169.696 282.952C168.041 284.425 165.434 285.162 161.876 285.162C158.906 285.162 156.594 284.414 154.94 282.918C153.285 281.422 152.458 279.337 152.458 276.662C152.458 275.619 152.594 274.52 152.866 273.364C153.16 272.185 153.557 271.018 154.056 269.862L156.164 270.508C155.733 271.392 155.382 272.321 155.11 273.296C154.838 274.248 154.702 275.155 154.702 276.016C154.702 277.943 155.246 279.439 156.334 280.504C157.422 281.569 158.929 282.102 160.856 282.102H162.896C165.298 282.102 167.055 281.615 168.166 280.64C169.299 279.688 169.866 278.181 169.866 276.118C169.866 275.755 169.854 275.393 169.832 275.03C169.809 274.667 169.764 274.271 169.696 273.84C169.65 273.387 169.571 272.888 169.458 272.344C169.367 271.8 169.254 271.188 169.118 270.508L168.54 267.686L170.92 267.21L171.362 269.658L177.584 268.604V265.816H179.964V271.698C179.964 272.559 180.202 273.171 180.678 273.534C181.154 273.897 181.89 274.078 182.888 274.078H184.078V276.322L183.398 277.002H183.33ZM162.386 266.394C161.932 266.394 161.57 266.269 161.298 266.02C161.026 265.748 160.89 265.317 160.89 264.728C160.89 264.139 161.026 263.719 161.298 263.47C161.57 263.198 161.932 263.062 162.386 263.062H162.76C163.213 263.062 163.576 263.198 163.848 263.47C164.12 263.719 164.256 264.139 164.256 264.728C164.256 265.317 164.12 265.748 163.848 266.02C163.576 266.269 163.213 266.394 162.76 266.394H162.386ZM180.78 283.802C180.326 283.802 179.964 283.666 179.692 283.394C179.42 283.145 179.284 282.725 179.284 282.136C179.284 281.547 179.42 281.116 179.692 280.844C179.964 280.595 180.326 280.47 180.78 280.47H181.154C181.607 280.47 181.97 280.595 182.242 280.844C182.514 281.116 182.65 281.547 182.65 282.136C182.65 282.725 182.514 283.145 182.242 283.394C181.97 283.666 181.607 283.802 181.154 283.802H180.78ZM176.394 283.802C175.94 283.802 175.578 283.666 175.306 283.394C175.034 283.145 174.898 282.725 174.898 282.136C174.898 281.547 175.034 281.116 175.306 280.844C175.578 280.595 175.94 280.47 176.394 280.47H176.768C177.221 280.47 177.584 280.595 177.856 280.844C178.128 281.116 178.264 281.547 178.264 282.136C178.264 282.725 178.128 283.145 177.856 283.394C177.584 283.666 177.221 283.802 176.768 283.802H176.394ZM183.388 274.758L184.068 274.078H184.578C186.074 274.078 187.151 273.897 187.808 273.534C188.488 273.149 188.828 272.423 188.828 271.358C188.828 270.95 188.794 270.429 188.726 269.794C188.681 269.159 188.568 268.321 188.386 267.278L187.91 264.456L190.29 264.082L190.698 266.904C190.857 268.015 190.97 268.921 191.038 269.624C191.106 270.327 191.14 270.905 191.14 271.358C191.14 273.262 190.574 274.679 189.44 275.608C188.33 276.537 186.709 277.002 184.578 277.002H183.388V274.758ZM185.224 259.322H186.448L186.482 259.186C186.301 258.959 186.154 258.699 186.04 258.404C185.927 258.087 185.87 257.769 185.87 257.452C185.87 256.568 186.165 255.831 186.754 255.242C187.344 254.653 188.092 254.358 188.998 254.358C189.52 254.358 190.052 254.494 190.596 254.766C191.14 255.015 191.548 255.355 191.82 255.786L190.562 257.316C190.109 256.795 189.588 256.534 188.998 256.534C188.59 256.534 188.25 256.647 187.978 256.874C187.706 257.078 187.57 257.339 187.57 257.656C187.57 258.132 187.786 258.506 188.216 258.778C188.647 259.05 189.248 259.186 190.018 259.186H192.194V261.362H185.224V259.322ZM196.51 277.002C195.694 277.002 195.014 276.764 194.47 276.288C193.949 275.789 193.688 275.064 193.688 274.112V271.494H196.068V274.078H200.658C201.429 274.078 202.063 274.055 202.562 274.01C203.061 273.965 203.457 273.897 203.752 273.806C204.047 273.693 204.251 273.545 204.364 273.364C204.477 273.183 204.534 272.945 204.534 272.65C204.534 272.378 204.477 272.049 204.364 271.664C204.251 271.279 204.047 270.689 203.752 269.896L200.488 260.92L202.902 260.036L206.37 269.556C206.71 270.463 207.005 271.211 207.254 271.8C207.526 272.367 207.798 272.82 208.07 273.16C208.342 273.5 208.614 273.738 208.886 273.874C209.181 274.01 209.509 274.078 209.872 274.078H210.722V276.322L210.042 277.002C209.43 277.002 208.886 276.945 208.41 276.832C207.957 276.719 207.549 276.549 207.186 276.322C206.823 276.073 206.495 275.755 206.2 275.37C205.905 274.985 205.622 274.509 205.35 273.942H205.18C205.044 275.053 204.613 275.846 203.888 276.322C203.163 276.775 202.086 277.002 200.658 277.002H196.51ZM210.05 274.758L210.73 274.078H211.92C213.847 274.078 214.81 273.115 214.81 271.188V265.816H217.19V271.188C217.19 273.115 218.154 274.078 220.08 274.078H221.27V276.322L220.59 277.002C217.462 277.002 215.626 275.891 215.082 273.67H214.912C214.663 274.917 214.176 275.789 213.45 276.288C212.725 276.764 211.592 277.002 210.05 277.002V274.758ZM217.904 261.736C217.451 261.736 217.088 261.611 216.816 261.362C216.544 261.09 216.408 260.659 216.408 260.07C216.408 259.481 216.544 259.061 216.816 258.812C217.088 258.54 217.451 258.404 217.904 258.404H218.278C218.732 258.404 219.094 258.54 219.366 258.812C219.638 259.061 219.774 259.481 219.774 260.07C219.774 260.659 219.638 261.09 219.366 261.362C219.094 261.611 218.732 261.736 218.278 261.736H217.904ZM213.518 261.736C213.065 261.736 212.702 261.611 212.43 261.362C212.158 261.09 212.022 260.659 212.022 260.07C212.022 259.481 212.158 259.061 212.43 258.812C212.702 258.54 213.065 258.404 213.518 258.404H213.892C214.346 258.404 214.708 258.54 214.98 258.812C215.252 259.061 215.388 259.481 215.388 260.07C215.388 260.659 215.252 261.09 214.98 261.362C214.708 261.611 214.346 261.736 213.892 261.736H213.518ZM220.576 274.758L221.256 274.078H222.446C224.373 274.078 225.336 273.115 225.336 271.188V265.816H227.716V271.188C227.716 273.115 228.679 274.078 230.606 274.078H231.796V276.322L231.116 277.002C227.988 277.002 226.152 275.891 225.608 273.67H225.438C225.189 274.917 224.701 275.789 223.976 276.288C223.251 276.764 222.117 277.002 220.576 277.002V274.758ZM226.322 283.802C225.869 283.802 225.506 283.666 225.234 283.394C224.962 283.145 224.826 282.725 224.826 282.136C224.826 281.547 224.962 281.116 225.234 280.844C225.506 280.595 225.869 280.47 226.322 280.47H226.696C227.149 280.47 227.512 280.595 227.784 280.844C228.056 281.116 228.192 281.547 228.192 282.136C228.192 282.725 228.056 283.145 227.784 283.394C227.512 283.666 227.149 283.802 226.696 283.802H226.322ZM231.101 274.758L231.781 274.078C232.529 274.078 233.096 274.044 233.481 273.976C233.889 273.908 234.218 273.772 234.467 273.568C234.399 273.319 234.354 273.069 234.331 272.82C234.309 272.571 234.297 272.299 234.297 272.004C234.297 270.78 234.694 269.669 235.487 268.672C236.303 267.652 237.527 266.609 239.159 265.544L240.825 264.456H243.477L245.891 271.018C246.118 271.63 246.322 272.14 246.503 272.548C246.707 272.933 246.923 273.239 247.149 273.466C247.399 273.693 247.659 273.851 247.931 273.942C248.226 274.033 248.566 274.078 248.951 274.078H249.597V276.322L248.917 277.002C247.852 277.002 247.002 276.855 246.367 276.56C245.733 276.243 245.166 275.631 244.667 274.724L244.463 274.792V277.002H240.417C237.493 277.002 235.612 276.152 234.773 274.452H234.637C234.343 275.313 233.935 275.959 233.413 276.39C232.892 276.798 232.121 277.002 231.101 277.002V274.758ZM236.541 271.698C236.541 272.514 236.87 273.115 237.527 273.5C238.185 273.885 239.216 274.078 240.621 274.078H244.327C244.078 273.557 243.806 272.888 243.511 272.072L241.607 266.938L240.315 267.72C239.295 268.332 238.411 268.967 237.663 269.624C236.915 270.281 236.541 270.973 236.541 271.698ZM248.931 274.758L249.611 274.078H250.801C252.728 274.078 253.691 273.115 253.691 271.188V251.842H256.207V271.188C256.207 273.115 257.171 274.078 259.097 274.078H260.287V276.322L259.607 277.002C256.389 277.002 254.507 275.891 253.963 273.67H253.793C253.544 274.917 253.057 275.789 252.331 276.288C251.606 276.764 250.473 277.002 248.931 277.002V274.758ZM259.623 274.758L260.303 274.078H261.289C262.377 274.078 263.159 273.829 263.635 273.33C264.133 272.831 264.383 272.038 264.383 270.95V251.842H266.899V270.95C266.899 273.035 266.445 274.565 265.539 275.54C264.655 276.515 263.238 277.002 261.289 277.002H259.623V274.758ZM275.429 282.238H276.687C277.933 282.238 278.953 282.057 279.747 281.694C280.54 281.331 281.163 280.844 281.617 280.232C282.07 279.643 282.387 278.94 282.569 278.124C282.75 277.331 282.841 276.492 282.841 275.608C282.841 274.951 282.807 274.271 282.739 273.568C282.671 272.843 282.58 272.151 282.467 271.494L281.753 267.652L284.133 267.176L284.541 269.624L290.525 268.604V265.816H292.905V271.698C292.905 272.559 293.143 273.171 293.619 273.534C294.095 273.897 294.831 274.078 295.829 274.078H297.019V276.322L296.339 277.002H296.271C295.228 277.002 294.344 276.911 293.619 276.73C292.893 276.526 292.293 276.22 291.817 275.812C291.363 275.381 291.035 274.826 290.831 274.146C290.627 273.466 290.525 272.65 290.525 271.698V271.426L284.949 272.378C284.994 272.945 285.028 273.5 285.051 274.044C285.096 274.588 285.119 275.132 285.119 275.676C285.119 276.923 284.983 278.113 284.711 279.246C284.439 280.402 283.974 281.411 283.317 282.272C282.682 283.156 281.821 283.859 280.733 284.38C279.667 284.901 278.319 285.162 276.687 285.162H275.429V282.238ZM293.721 283.802C293.267 283.802 292.905 283.666 292.633 283.394C292.361 283.145 292.225 282.725 292.225 282.136C292.225 281.547 292.361 281.116 292.633 280.844C292.905 280.595 293.267 280.47 293.721 280.47H294.095C294.548 280.47 294.911 280.595 295.183 280.844C295.455 281.116 295.591 281.547 295.591 282.136C295.591 282.725 295.455 283.145 295.183 283.394C294.911 283.666 294.548 283.802 294.095 283.802H293.721ZM289.335 283.802C288.881 283.802 288.519 283.666 288.247 283.394C287.975 283.145 287.839 282.725 287.839 282.136C287.839 281.547 287.975 281.116 288.247 280.844C288.519 280.595 288.881 280.47 289.335 280.47H289.709C290.162 280.47 290.525 280.595 290.797 280.844C291.069 281.116 291.205 281.547 291.205 282.136C291.205 282.725 291.069 283.145 290.797 283.394C290.525 283.666 290.162 283.802 289.709 283.802H289.335ZM296.345 274.758L297.025 274.078H298.215C298.646 274.078 299.02 274.044 299.337 273.976C299.677 273.885 299.983 273.738 300.255 273.534C300.527 273.33 300.777 273.058 301.003 272.718C301.253 272.378 301.513 271.936 301.785 271.392L303.247 268.536L305.185 269.522L303.383 272.922L303.859 273.228C304.585 273.704 305.287 274.033 305.967 274.214C306.67 274.395 307.35 274.486 308.007 274.486C309.073 274.486 309.855 274.237 310.353 273.738C310.875 273.239 311.135 272.389 311.135 271.188V268.536H313.515V271.188C313.515 272.412 313.685 273.273 314.025 273.772C314.365 274.248 314.932 274.486 315.725 274.486H316.507C317.301 274.486 317.856 274.248 318.173 273.772C318.513 273.273 318.683 272.412 318.683 271.188V267.176H321.063V271.188C321.063 273.115 322.027 274.078 323.953 274.078H325.143V276.322L324.463 277.002C322.967 277.002 321.789 276.764 320.927 276.288C320.066 275.789 319.465 275.03 319.125 274.01H318.955C318.819 275.279 318.479 276.163 317.935 276.662C317.391 277.161 316.598 277.41 315.555 277.41C313.221 277.41 311.849 276.277 311.441 274.01H311.271C311.045 275.098 310.603 275.937 309.945 276.526C309.311 277.115 308.461 277.41 307.395 277.41C306.058 277.41 304.562 276.877 302.907 275.812L301.853 275.132C301.196 275.857 300.448 276.356 299.609 276.628C298.771 276.877 297.683 277.002 296.345 277.002V274.758ZM324.468 274.758L325.148 274.078H325.658C327.154 274.078 328.231 273.897 328.888 273.534C329.568 273.149 329.908 272.423 329.908 271.358C329.908 270.95 329.874 270.429 329.806 269.794C329.761 269.159 329.648 268.321 329.466 267.278L328.99 264.456L331.37 264.082L331.778 266.904C331.937 268.015 332.05 268.921 332.118 269.624C332.186 270.327 332.22 270.905 332.22 271.358C332.22 273.262 331.654 274.679 330.52 275.608C329.41 276.537 327.789 277.002 325.658 277.002H324.468V274.758ZM331.846 283.802C331.393 283.802 331.03 283.666 330.758 283.394C330.486 283.145 330.35 282.725 330.35 282.136C330.35 281.547 330.486 281.116 330.758 280.844C331.03 280.595 331.393 280.47 331.846 280.47H332.22C332.674 280.47 333.036 280.595 333.308 280.844C333.58 281.116 333.716 281.547 333.716 282.136C333.716 282.725 333.58 283.145 333.308 283.394C333.036 283.666 332.674 283.802 332.22 283.802H331.846ZM327.46 283.802C327.007 283.802 326.644 283.666 326.372 283.394C326.1 283.145 325.964 282.725 325.964 282.136C325.964 281.547 326.1 281.116 326.372 280.844C326.644 280.595 327.007 280.47 327.46 280.47H327.834C328.288 280.47 328.65 280.595 328.922 280.844C329.194 281.116 329.33 281.547 329.33 282.136C329.33 282.725 329.194 283.145 328.922 283.394C328.65 283.666 328.288 283.802 327.834 283.802H327.46ZM339.743 282.238H341.001C342.248 282.238 343.268 282.057 344.061 281.694C344.855 281.331 345.478 280.844 345.931 280.232C346.385 279.643 346.702 278.94 346.883 278.124C347.065 277.331 347.155 276.492 347.155 275.608C347.155 274.951 347.121 274.271 347.053 273.568C346.985 272.843 346.895 272.151 346.781 271.494L346.067 267.652L348.447 267.176L348.889 269.76C349.025 270.553 349.127 271.301 349.195 272.004C349.286 272.707 349.354 273.398 349.399 274.078H352.629V276.322L351.949 277.002H349.365C349.275 278.113 349.059 279.155 348.719 280.13C348.402 281.127 347.915 282 347.257 282.748C346.623 283.496 345.784 284.085 344.741 284.516C343.721 284.947 342.475 285.162 341.001 285.162H339.743V282.238ZM354.621 261.796C354.009 261.796 353.521 261.581 353.159 261.15C352.819 260.719 352.649 260.107 352.649 259.314V257.002H354.349V258.702C354.349 259.314 354.609 259.62 355.131 259.62C355.788 259.62 356.117 259.099 356.117 258.056V256.084H357.817V257.24C357.817 257.761 357.885 258.113 358.021 258.294C358.157 258.453 358.361 258.532 358.633 258.532C359.267 258.532 359.585 258.147 359.585 257.376C359.585 256.877 359.449 256.186 359.177 255.302L360.843 254.792C361.137 255.699 361.285 256.526 361.285 257.274C361.285 258.362 361.047 259.212 360.571 259.824C360.117 260.413 359.46 260.708 358.599 260.708C358.168 260.708 357.794 260.572 357.477 260.3C357.159 260.005 356.933 259.597 356.797 259.076H356.695C356.649 259.937 356.445 260.606 356.083 261.082C355.72 261.558 355.233 261.796 354.621 261.796ZM351.961 274.758L352.641 274.078H353.151C354.647 274.078 355.723 273.897 356.381 273.534C357.061 273.149 357.401 272.423 357.401 271.358C357.401 270.95 357.367 270.429 357.299 269.794C357.253 269.159 357.14 268.321 356.959 267.278L356.483 264.456L358.863 264.082L359.271 266.904C359.429 268.015 359.543 268.921 359.611 269.624C359.679 270.327 359.713 270.905 359.713 271.358C359.713 273.262 359.146 274.679 358.013 275.608C356.902 276.537 355.281 277.002 353.151 277.002H351.961V274.758ZM357.129 283.802C356.675 283.802 356.313 283.666 356.041 283.394C355.769 283.145 355.633 282.725 355.633 282.136C355.633 281.547 355.769 281.116 356.041 280.844C356.313 280.595 356.675 280.47 357.129 280.47H357.503C357.956 280.47 358.319 280.595 358.591 280.844C358.863 281.116 358.999 281.547 358.999 282.136C358.999 282.725 358.863 283.145 358.591 283.394C358.319 283.666 357.956 283.802 357.503 283.802H357.129ZM365.082 277.002C364.266 277.002 363.586 276.764 363.042 276.288C362.521 275.789 362.26 275.064 362.26 274.112V271.494H364.64V274.078H369.23C370.001 274.078 370.636 274.055 371.134 274.01C371.633 273.965 372.03 273.897 372.324 273.806C372.619 273.693 372.823 273.545 372.936 273.364C373.05 273.183 373.106 272.945 373.106 272.65C373.106 272.378 373.05 272.049 372.936 271.664C372.823 271.279 372.619 270.689 372.324 269.896L369.06 260.92L371.474 260.036L374.942 269.556C375.282 270.463 375.577 271.211 375.826 271.8C376.098 272.367 376.37 272.82 376.642 273.16C376.914 273.5 377.186 273.738 377.458 273.874C377.753 274.01 378.082 274.078 378.444 274.078H379.294V276.322L378.614 277.002C378.002 277.002 377.458 276.945 376.982 276.832C376.529 276.719 376.121 276.549 375.758 276.322C375.396 276.073 375.067 275.755 374.772 275.37C374.478 274.985 374.194 274.509 373.922 273.942H373.752C373.616 275.053 373.186 275.846 372.46 276.322C371.735 276.775 370.658 277.002 369.23 277.002H365.082ZM378.623 274.758L379.303 274.078H379.813C381.309 274.078 382.385 273.897 383.043 273.534C383.723 273.149 384.063 272.423 384.063 271.358C384.063 270.95 384.029 270.429 383.961 269.794C383.915 269.159 383.802 268.321 383.621 267.278L383.145 264.456L385.525 264.082L385.933 266.904C386.091 268.015 386.205 268.921 386.273 269.624C386.341 270.327 386.375 270.905 386.375 271.358C386.375 273.262 385.808 274.679 384.675 275.608C383.564 276.537 381.943 277.002 379.813 277.002H378.623V274.758ZM385.865 260.002C385.411 260.002 385.049 259.877 384.777 259.628C384.505 259.356 384.369 258.925 384.369 258.336C384.369 257.747 384.505 257.327 384.777 257.078C385.049 256.806 385.411 256.67 385.865 256.67H386.239C386.692 256.67 387.055 256.806 387.327 257.078C387.599 257.327 387.735 257.747 387.735 258.336C387.735 258.925 387.599 259.356 387.327 259.628C387.055 259.877 386.692 260.002 386.239 260.002H385.865ZM381.479 260.002C381.025 260.002 380.663 259.877 380.391 259.628C380.119 259.356 379.983 258.925 379.983 258.336C379.983 257.747 380.119 257.327 380.391 257.078C380.663 256.806 381.025 256.67 381.479 256.67H381.853C382.306 256.67 382.669 256.806 382.941 257.078C383.213 257.327 383.349 257.747 383.349 258.336C383.349 258.925 383.213 259.356 382.941 259.628C382.669 259.877 382.306 260.002 381.853 260.002H381.479Z" fill="#3C3C3B"/>
<path d="M64.2492 339.744C64.2492 337.703 64.3644 335.974 64.5949 334.558C64.8254 333.109 65.237 331.858 65.8297 330.804C66.4553 329.751 67.2949 328.829 68.3486 328.038C69.4023 327.248 70.7358 326.474 72.3493 325.717L81.3877 321.371H87.1171L90.9201 331.545C91.3811 332.796 91.875 333.636 92.4019 334.064C92.9616 334.459 93.7848 334.657 94.8714 334.657H96.2049V339.793L94.8714 341.127C92.8958 341.127 91.3317 340.831 90.1793 340.238C89.0598 339.612 88.0884 338.608 87.2652 337.225L86.9689 337.274V341.127H79.3133C77.1072 341.127 75.3456 340.617 74.0285 339.596C72.7444 338.575 72.1023 337.225 72.1023 335.546C72.1023 334.163 72.5633 332.994 73.4852 332.039L73.2877 331.792L72.0529 332.434C71.5261 332.698 71.098 333.01 70.7688 333.373C70.4395 333.702 70.1761 334.146 69.9785 334.706C69.7809 335.233 69.6492 335.908 69.5834 336.731C69.5175 337.554 69.4846 338.559 69.4846 339.744V356.191H64.2492V339.744ZM75.609 332.187C75.609 333.834 76.8603 334.657 79.3627 334.657H86.0799L83.2152 327.1L78.9676 328.878C77.7164 329.438 76.8438 329.965 76.3499 330.459C75.856 330.952 75.609 331.529 75.609 332.187ZM94.8892 335.99L96.2227 334.657H97.4575C99.7624 334.657 101.343 334.426 102.199 333.965C103.088 333.471 103.533 332.599 103.533 331.348C103.533 330.821 103.483 330.162 103.384 329.372C103.318 328.549 103.17 327.462 102.94 326.112L102.15 321.667L106.99 320.877L107.681 325.322C107.846 326.441 107.978 327.545 108.076 328.631C108.175 329.685 108.225 330.59 108.225 331.348C108.225 334.706 107.369 337.176 105.656 338.756C103.944 340.337 101.211 341.127 97.4575 341.127H94.8892V335.99ZM106.891 351.499C106.101 351.499 105.442 351.252 104.915 350.758C104.422 350.297 104.175 349.54 104.175 348.486C104.175 347.4 104.422 346.609 104.915 346.115C105.442 345.654 106.101 345.424 106.891 345.424H107.731C108.521 345.424 109.163 345.654 109.657 346.115C110.184 346.609 110.447 347.4 110.447 348.486C110.447 349.54 110.184 350.297 109.657 350.758C109.163 351.252 108.521 351.499 107.731 351.499H106.891ZM99.5319 351.499C98.7416 351.499 98.0831 351.252 97.5562 350.758C97.0623 350.297 96.8154 349.54 96.8154 348.486C96.8154 347.4 97.0623 346.609 97.5562 346.115C98.0831 345.654 98.7416 345.424 99.5319 345.424H100.372C101.162 345.424 101.804 345.654 102.298 346.115C102.825 346.609 103.088 347.4 103.088 348.486C103.088 349.54 102.825 350.297 102.298 350.758C101.804 351.252 101.162 351.499 100.372 351.499H99.5319ZM112.504 346.511H114.43C117.591 346.511 119.847 345.786 121.197 344.337C122.547 342.921 123.206 340.847 123.173 338.114C123.173 337.291 123.123 336.435 123.024 335.546C122.926 334.624 122.794 333.685 122.629 332.731L121.592 326.458L126.383 325.668L127.124 330.014C127.42 331.66 127.618 333.208 127.717 334.657H132.31V339.793L130.976 341.127H127.717C127.486 342.905 127.042 344.518 126.383 345.967C125.724 347.416 124.852 348.651 123.765 349.672C122.679 350.725 121.362 351.532 119.814 352.092C118.267 352.684 116.488 352.981 114.48 352.981H112.504V346.511ZM130.967 335.99L132.301 334.657H136.894C138.244 334.657 139.166 334.525 139.66 334.262C140.187 333.965 140.45 333.471 140.45 332.78C140.45 332.319 140.319 331.891 140.055 331.496C139.792 331.068 139.298 330.475 138.574 329.718L132.795 323.939V312.184L155.811 303.985V309.912L135.067 317.321V317.568L147.168 329.718C148.155 330.706 149.044 331.529 149.835 332.187C150.625 332.813 151.366 333.323 152.057 333.718C152.782 334.081 153.473 334.328 154.132 334.459C154.823 334.591 155.548 334.657 156.305 334.657V339.793L154.971 341.127C153.819 341.127 152.798 341.028 151.909 340.831C151.02 340.6 150.148 340.221 149.291 339.695C148.468 339.168 147.612 338.46 146.723 337.571C145.834 336.649 144.83 335.496 143.71 334.113L142.525 332.582L142.278 332.731C142.41 333.29 142.476 333.883 142.476 334.509C142.476 336.418 141.916 337.999 140.796 339.25C139.677 340.501 138.146 341.127 136.203 341.127H130.967V335.99ZM154.988 335.99L156.321 334.657H158.297C159.614 334.657 160.519 334.377 161.013 333.817C161.54 333.257 161.803 332.385 161.803 331.199V304.578H167.039V331.199C167.039 334.591 166.364 337.093 165.014 338.707C163.697 340.287 161.458 341.094 158.297 341.127H154.988V335.99ZM173.421 304.578H178.706V341.127H173.421V304.578ZM210.202 349.079C205.361 349.079 201.674 347.926 199.138 345.622C196.603 343.35 195.335 340.106 195.335 335.892C195.335 334.41 195.533 332.763 195.928 330.952C196.356 329.141 196.932 327.38 197.656 325.668L201.904 326.902C201.278 328.285 200.768 329.701 200.373 331.15C199.978 332.566 199.78 333.834 199.78 334.953C199.78 337.225 200.538 339.003 202.052 340.287C203.6 341.539 205.707 342.164 208.374 342.164H212.029C215.058 342.164 217.265 341.506 218.647 340.189C220.063 338.839 220.771 336.764 220.771 333.965C220.771 333.142 220.689 332.138 220.524 330.952C220.36 329.767 220.146 328.499 219.882 327.149L218.944 322.704L223.685 321.766L224.574 326.162C224.838 327.61 225.052 329.01 225.216 330.36C225.381 331.71 225.463 332.912 225.463 333.965C225.463 339.168 224.229 342.987 221.759 345.424C219.323 347.861 215.47 349.079 210.202 349.079ZM210.054 322.358C209.263 322.358 208.605 322.128 208.078 321.667C207.584 321.173 207.337 320.399 207.337 319.346C207.337 318.259 207.584 317.485 208.078 317.024C208.605 316.53 209.263 316.283 210.054 316.283H210.893C211.683 316.283 212.325 316.53 212.819 317.024C213.346 317.485 213.61 318.259 213.61 319.346C213.61 320.399 213.346 321.173 212.819 321.667C212.325 322.128 211.683 322.358 210.893 322.358H210.054ZM230.73 310.604H236.015V341.127H230.73V310.604ZM225.89 305.22C225.89 303.87 226.252 302.866 226.977 302.207C227.668 301.516 228.804 301.335 230.385 301.664L233.299 302.256C234.056 302.421 234.616 302.52 234.978 302.553C235.373 302.586 235.686 302.602 235.916 302.602C236.641 302.602 237.168 302.454 237.497 302.158C237.826 301.861 238.123 301.318 238.386 300.528L241.053 301.812C240.724 303.458 240.148 304.66 239.324 305.418C238.501 306.175 237.365 306.553 235.916 306.553C235.488 306.553 235.044 306.537 234.583 306.504C234.122 306.438 233.463 306.323 232.607 306.158L229.051 305.516V306.949H225.89V305.22ZM236.56 346.511H238.486C241.647 346.511 243.902 345.786 245.252 344.337C246.602 342.921 247.261 340.847 247.228 338.114C247.228 337.291 247.179 336.435 247.08 335.546C246.981 334.624 246.849 333.685 246.685 332.731L245.648 326.458L250.438 325.668L251.179 330.014C251.476 331.66 251.673 333.208 251.772 334.657H256.365V339.793L255.032 341.127H251.772C251.542 342.905 251.097 344.518 250.438 345.967C249.78 347.416 248.907 348.651 247.821 349.672C246.734 350.725 245.417 351.532 243.87 352.092C242.322 352.684 240.544 352.981 238.535 352.981H236.56V346.511ZM255.023 335.99L256.356 334.657H262.185L262.283 334.41C260.9 333.159 259.896 331.809 259.271 330.36C258.678 328.911 258.382 327.429 258.382 325.915C258.382 324.499 258.612 323.165 259.073 321.914C259.534 320.63 260.176 319.527 260.999 318.605C261.855 317.65 262.86 316.909 264.012 316.382C265.197 315.822 266.498 315.543 267.914 315.543C269.33 315.543 270.614 315.822 271.766 316.382C272.919 316.909 273.907 317.65 274.73 318.605C275.586 319.527 276.244 320.63 276.705 321.914C277.166 323.165 277.397 324.499 277.397 325.915C277.397 327.429 277.084 328.911 276.458 330.36C275.866 331.809 274.878 333.159 273.495 334.41L273.594 334.657H279.57V339.793L278.237 341.127H277.693C275.948 341.127 274.252 340.913 272.606 340.485C270.96 340.024 269.396 339.267 267.914 338.213C266.432 339.267 264.868 340.024 263.222 340.485C261.608 340.913 259.929 341.127 258.184 341.127H255.023V335.99ZM267.914 333.768C269.593 332.813 270.877 331.792 271.766 330.706C272.655 329.586 273.1 328.302 273.1 326.853C273.1 325.371 272.622 324.202 271.668 323.346C270.746 322.457 269.577 322.013 268.161 322.013H267.618C266.202 322.013 265.016 322.457 264.061 323.346C263.139 324.202 262.678 325.371 262.678 326.853C262.678 328.302 263.123 329.586 264.012 330.706C264.934 331.792 266.235 332.813 267.914 333.768ZM271.124 310.999C270.334 310.999 269.676 310.768 269.149 310.307C268.655 309.813 268.408 309.039 268.408 307.986C268.408 306.899 268.655 306.125 269.149 305.664C269.676 305.171 270.334 304.924 271.124 304.924H271.964C272.754 304.924 273.396 305.171 273.89 305.664C274.417 306.125 274.68 306.899 274.68 307.986C274.68 309.039 274.417 309.813 273.89 310.307C273.396 310.768 272.754 310.999 271.964 310.999H271.124ZM263.765 310.999C262.975 310.999 262.316 310.768 261.789 310.307C261.296 309.813 261.049 309.039 261.049 307.986C261.049 306.899 261.296 306.125 261.789 305.664C262.316 305.171 262.975 304.924 263.765 304.924H264.605C265.395 304.924 266.037 305.171 266.531 305.664C267.058 306.125 267.321 306.899 267.321 307.986C267.321 309.039 267.058 309.813 266.531 310.307C266.037 310.768 265.395 310.999 264.605 310.999H263.765ZM278.223 335.99L279.557 334.657H281.532C282.849 334.657 283.755 334.377 284.249 333.817C284.776 333.257 285.039 332.385 285.039 331.199V304.578H290.274V331.199C290.274 334.591 289.599 337.093 288.249 338.707C286.932 340.287 284.693 341.094 281.532 341.127H278.223V335.99ZM296.657 304.578H301.942V341.127H296.657V304.578ZM313.829 346.511H315.755C318.916 346.511 321.172 345.786 322.522 344.337C323.872 342.921 324.53 340.847 324.497 338.114C324.497 337.291 324.448 336.435 324.349 335.546C324.251 334.624 324.119 333.685 323.954 332.731L322.917 326.458L327.708 325.668L328.449 330.014C328.712 331.595 328.91 333.06 329.041 334.41C329.173 335.76 329.239 336.945 329.239 337.966C329.239 340.172 328.976 342.181 328.449 343.992C327.922 345.836 327.099 347.416 325.979 348.733C324.893 350.083 323.493 351.12 321.781 351.845C320.102 352.602 318.11 352.981 315.805 352.981H313.829V346.511ZM332.601 346.511H335.613C338.939 346.511 341.557 346.033 343.467 345.078C345.409 344.123 346.726 342.806 347.418 341.127H341.54C338.873 341.127 336.799 340.37 335.317 338.855C333.835 337.34 333.095 335.233 333.095 332.533C333.095 330.887 333.341 329.356 333.835 327.94C334.329 326.524 335.004 325.289 335.86 324.235C336.749 323.182 337.787 322.359 338.972 321.766C340.19 321.173 341.491 320.877 342.874 320.877C345.804 320.877 348.126 322.095 349.838 324.532C351.55 326.935 352.456 330.31 352.554 334.657H354.975V339.793L353.641 341.127H351.962C351.106 344.914 349.344 347.828 346.677 349.869C344.01 351.944 340.437 352.981 335.959 352.981H332.601V346.511ZM337.589 331.693C337.589 332.747 337.951 333.504 338.676 333.965C339.433 334.426 340.503 334.657 341.886 334.657H348.011V334.113C348.011 332.039 347.484 330.393 346.43 329.174C345.376 327.956 344.01 327.347 342.331 327.347C340.948 327.347 339.812 327.759 338.923 328.582C338.034 329.405 337.589 330.442 337.589 331.693ZM353.66 335.99L354.993 334.657H355.536C356.261 334.657 356.903 334.607 357.463 334.509C358.022 334.41 358.5 334.245 358.895 334.015C359.323 333.784 359.685 333.488 359.982 333.126C360.311 332.731 360.607 332.253 360.871 331.693L362.846 327.643L367.143 329.718L365.069 333.817C365.991 334.278 366.913 334.64 367.835 334.904C368.757 335.167 369.679 335.299 370.601 335.299C372.049 335.299 373.103 334.986 373.762 334.36C374.42 333.702 374.749 332.566 374.749 330.952V327.643H379.59V330.952C379.59 332.434 379.837 333.504 380.331 334.163C380.824 334.821 381.532 335.151 382.454 335.151H383.096C384.809 335.151 385.665 334.097 385.665 331.99C385.665 330.936 385.5 329.438 385.171 327.495L384.726 324.927L389.567 324.186L389.912 326.705C390.209 328.681 390.357 330.442 390.357 331.99C390.357 338.476 387.838 341.72 382.8 341.72C380.561 341.72 378.849 341.209 377.663 340.189C376.511 339.135 375.737 337.554 375.342 335.447H375.046C374.782 337.554 374.19 339.135 373.268 340.189C372.346 341.209 371.144 341.72 369.662 341.72C368.707 341.72 367.736 341.539 366.748 341.176C365.76 340.814 364.558 340.205 363.143 339.349L361.957 338.657C360.969 339.678 359.833 340.353 358.549 340.682C357.265 340.979 355.635 341.127 353.66 341.127V335.99ZM400.745 346.511H402.671C405.832 346.511 408.088 345.786 409.438 344.337C410.788 342.921 411.446 340.847 411.413 338.114C411.413 337.291 411.364 336.435 411.265 335.546C411.166 334.624 411.035 333.685 410.87 332.731L409.833 326.458L414.624 325.668L415.365 330.014C415.661 331.66 415.859 333.208 415.957 334.657H420.551V339.793L419.217 341.127H415.957C415.727 342.905 415.282 344.518 414.624 345.967C413.965 347.416 413.093 348.651 412.006 349.672C410.92 350.725 409.602 351.532 408.055 352.092C406.507 352.684 404.729 352.981 402.721 352.981H400.745V346.511ZM423.807 316.544C422.853 316.544 422.112 316.198 421.585 315.507C421.058 314.782 420.795 313.778 420.795 312.494V308.839H423.906V311.506C423.906 312.23 424.219 312.593 424.845 312.593C425.701 312.593 426.129 311.967 426.129 310.716V307.407H429.191V309.432C429.191 310.354 429.553 310.815 430.278 310.815C431.101 310.815 431.512 310.37 431.512 309.481C431.512 309.053 431.447 308.559 431.315 307.999C431.183 307.44 431.002 306.83 430.772 306.172L433.834 305.283C434.097 306.007 434.278 306.732 434.377 307.456C434.509 308.18 434.575 308.839 434.575 309.432C434.575 311.111 434.196 312.428 433.439 313.383C432.714 314.305 431.661 314.766 430.278 314.766C429.52 314.766 428.862 314.552 428.302 314.124C427.742 313.663 427.38 313.037 427.215 312.247H427.018C426.754 315.112 425.684 316.544 423.807 316.544ZM419.208 335.99L420.542 334.657H421.777C424.082 334.657 425.662 334.426 426.518 333.965C427.407 333.471 427.852 332.599 427.852 331.348C427.852 330.821 427.802 330.162 427.704 329.372C427.638 328.549 427.489 327.462 427.259 326.112L426.469 321.667L431.309 320.877L432.001 325.322C432.165 326.441 432.297 327.545 432.396 328.631C432.494 329.685 432.544 330.59 432.544 331.348C432.544 334.706 431.688 337.176 429.975 338.756C428.263 340.337 425.53 341.127 421.777 341.127H419.208V335.99ZM427.506 351.499C426.716 351.499 426.057 351.252 425.53 350.758C425.036 350.297 424.789 349.54 424.789 348.486C424.789 347.4 425.036 346.609 425.53 346.115C426.057 345.654 426.716 345.424 427.506 345.424H428.346C429.136 345.424 429.778 345.654 430.272 346.115C430.799 346.609 431.062 347.4 431.062 348.486C431.062 349.54 430.799 350.297 430.272 350.758C429.778 351.252 429.136 351.499 428.346 351.499H427.506ZM441.993 341.127C440.018 341.127 438.486 340.617 437.4 339.596C436.313 338.542 435.77 336.929 435.77 334.756V331.298H440.808V334.657H447.525C448.974 334.657 449.978 334.509 450.538 334.212C451.13 333.883 451.427 333.323 451.427 332.533C451.427 332.171 451.345 331.726 451.18 331.199C451.048 330.673 450.851 330.08 450.587 329.421L446.142 316.777L451.624 314.802L456.613 328.977C457.008 330.129 457.387 331.068 457.749 331.792C458.144 332.517 458.539 333.093 458.934 333.521C459.329 333.949 459.757 334.245 460.218 334.41C460.712 334.574 461.256 334.657 461.848 334.657H463.281V339.793L461.947 341.127C460.696 341.127 459.609 341.028 458.687 340.831C457.765 340.633 456.942 340.304 456.218 339.843C455.493 339.382 454.835 338.773 454.242 338.015C453.682 337.225 453.139 336.237 452.612 335.052L452.415 335.101C452.052 337.274 451.361 338.822 450.34 339.744C449.352 340.666 447.805 341.127 445.698 341.127H441.993ZM461.943 335.99L463.276 334.657H464.511C466.816 334.657 468.397 334.426 469.253 333.965C470.142 333.471 470.586 332.599 470.586 331.348C470.586 330.821 470.537 330.162 470.438 329.372C470.372 328.549 470.224 327.462 469.993 326.112L469.203 321.667L474.044 320.877L474.735 325.322C474.9 326.441 475.031 327.545 475.13 328.631C475.229 329.685 475.278 330.59 475.278 331.348C475.278 334.706 474.422 337.176 472.71 338.756C470.998 340.337 468.265 341.127 464.511 341.127H461.943V335.99ZM474.142 316.333C473.352 316.333 472.694 316.102 472.167 315.641C471.673 315.147 471.426 314.374 471.426 313.32C471.426 312.233 471.673 311.46 472.167 310.999C472.694 310.505 473.352 310.258 474.142 310.258H474.982C475.772 310.258 476.414 310.505 476.908 310.999C477.435 311.46 477.698 312.233 477.698 313.32C477.698 314.374 477.435 315.147 476.908 315.641C476.414 316.102 475.772 316.333 474.982 316.333H474.142ZM466.783 316.333C465.993 316.333 465.334 316.102 464.807 315.641C464.314 315.147 464.067 314.374 464.067 313.32C464.067 312.233 464.314 311.46 464.807 310.999C465.334 310.505 465.993 310.258 466.783 310.258H467.623C468.413 310.258 469.055 310.505 469.549 310.999C470.076 311.46 470.339 312.233 470.339 313.32C470.339 314.374 470.076 315.147 469.549 315.641C469.055 316.102 468.413 316.333 467.623 316.333H466.783Z" fill="#9B2226"/>
<g opacity="0.04">
<path d="M290.951 356.859C292.317 357.072 293.684 357.284 295.091 357.502C296.373 357.947 297.654 358.392 298.974 358.85C301.584 364.504 303.596 369.794 305.493 375.687C306.085 377.436 306.677 379.185 307.287 380.987C309.228 386.746 311.122 392.519 313.015 398.294C314.338 402.259 315.665 406.224 316.995 410.188C319.708 418.291 322.404 426.4 325.088 434.514C328.799 445.704 332.613 456.858 336.457 468.004C338.139 472.906 339.819 477.809 341.498 482.712C342.564 485.82 343.636 488.926 344.712 492.031C346.198 496.327 347.661 500.63 349.118 504.936C349.945 507.349 350.773 509.763 351.625 512.25C353.13 518.117 353.13 518.117 351.124 524.09C346.431 526.793 341.854 529.148 336.958 531.431C334.038 532.833 331.118 534.235 328.199 535.638C325.935 536.714 325.935 536.714 323.625 537.813C314.893 542.002 306.258 546.387 297.607 550.738C290.807 554.128 283.992 557.17 276.911 559.925C280.678 544.078 285.142 528.666 290.45 513.265C291.863 509.114 293.276 504.964 294.689 500.814C295.754 497.699 295.754 497.699 296.84 494.522C298.939 488.357 301.011 482.184 303.072 476.006C303.713 474.087 304.353 472.167 305.013 470.189C306.23 466.538 307.446 462.888 308.66 459.236C309.205 457.608 309.75 455.979 310.311 454.301C311.025 452.162 311.025 452.162 311.753 449.979C313.015 446.447 313.015 446.447 315.02 442.465C203.888 468.672 113.149 518.121 30.2039 595.76C22.0971 592.583 16.9111 586.833 11.0239 580.704C0.0282149 569.541 -11.536 559.574 -23.9514 549.971C-25.9707 548.377 -27.99 546.783 -30.0705 545.141C-93.3546 495.549 -167.544 460.913 -246.307 443.912C-252.607 442.465 -252.607 442.465 -256.618 440.475C-256.155 441.842 -255.693 443.21 -255.216 444.619C-246.541 470.283 -237.923 495.966 -229.541 521.726C-228.863 523.787 -228.186 525.849 -227.488 527.974C-224.482 537.264 -221.713 546.216 -220.515 555.943C-237.247 551.082 -252.314 543.49 -267.775 535.661C-270.398 534.345 -273.022 533.029 -275.645 531.715C-282.013 528.522 -288.372 525.315 -294.728 522.099C-288.445 500.145 -280.701 478.651 -273.188 457.091C-272.005 453.691 -270.822 450.291 -269.64 446.89C-269.051 445.196 -268.461 443.501 -267.854 441.755C-264.455 431.937 -261.161 422.093 -257.983 412.202C-256.083 406.295 -254.147 400.401 -252.207 394.507C-251.31 391.741 -250.431 388.969 -249.573 386.191C-243.098 365.267 -243.098 365.267 -237.374 359.747C-225.276 353.648 -210.854 358.322 -198.687 362.157C-146.238 379.714 -98.3298 405.728 -54.0376 438.484C-52.8104 439.386 -51.5833 440.289 -50.3189 441.219C-30.9286 455.589 -13.2618 471.576 4.12913 488.255C5.8149 489.869 7.50067 491.483 9.23752 493.146C16.7277 500.455 23.6422 507.985 30.2039 516.126C36.5769 509.827 42.9025 503.483 49.2115 497.12C83.1244 463.031 83.1244 463.031 102.411 448.438C104.56 446.707 106.704 444.97 108.843 443.227C147.339 412.088 192.532 386.635 238.802 368.804C240.475 368.159 242.148 367.514 243.871 366.85C249.269 364.8 254.684 362.809 260.113 360.841C261.802 360.213 263.49 359.584 265.23 358.937C274.642 355.639 281.042 354.09 290.951 356.859Z" fill="#9B2226"/>
<path d="M28.2131 56.4727C28.875 56.4727 29.5369 56.4727 30.2188 56.4727C30.5834 58.3743 30.948 60.2759 31.3236 62.2352C43.359 123.68 69.4713 174.95 122.805 210.903C158.544 233.864 196.86 244.628 238.817 249.584C238.817 250.241 238.817 250.898 238.817 251.575C236.34 251.867 233.863 252.16 231.311 252.461C183.383 258.563 138.568 274.531 102.426 307.318C100.75 308.701 99.075 310.085 97.3488 311.51C65.4935 338.298 45.6861 375.094 35.9854 415.072C35.6467 416.419 35.308 417.767 34.959 419.155C33.027 426.961 31.4408 434.749 30.2188 442.695C29.5569 442.695 28.895 442.695 28.2131 442.695C28.0631 441.386 27.9132 440.077 27.7587 438.729C20.2106 384.523 -8.33321 332.813 -52.3146 299.363C-92.2612 271.499 -134.226 257.866 -182.391 251.575C-182.391 250.918 -182.391 250.261 -182.391 249.584C-179.867 249.268 -177.344 248.953 -174.744 248.627C-128.272 242.49 -84.2522 228.462 -48.0054 197.822C-46.2627 196.39 -44.5201 194.958 -42.7246 193.483C-2.09419 158.827 22.688 109.167 28.2131 56.4727Z" fill="#9B2226"/>
<path d="M277.341 -4.08753C278.277 -3.15144 279.213 -2.21535 280.178 -1.25089C254.143 35.3717 223.954 68.9605 184.444 91.649C183.508 90.7129 182.572 89.7768 181.607 88.8123C205.979 51.1905 238.466 18.6441 277.341 -4.08753Z" fill="#9B2226"/>
<path d="M277.312 -4.09252C278.248 -3.15643 279.184 -2.22034 280.148 -1.25588C271.713 13.3357 260.527 24.2863 248.23 35.6277C246.691 37.0573 245.151 38.487 243.566 39.96C236.278 46.5656 230.318 51.5202 221.014 55.0429C221.472 52.7132 221.93 50.3834 222.401 47.9831C217.752 51.696 213.103 55.4089 208.313 59.2344C207.845 58.7663 207.377 58.2983 206.895 57.816C212.817 51.6801 218.769 45.5757 224.747 39.4959C226.767 37.4341 228.779 35.3647 230.782 33.2869C245.094 18.454 259.655 6.64467 277.312 -4.09252Z" fill="#9B2226"/>
<path d="M251.944 15.5684C252.412 16.0365 252.88 16.5045 253.363 16.9867C251.04 19.3095 248.717 21.6322 246.324 24.0254C247.26 24.9615 248.196 25.8976 249.161 26.862C243.401 38.4461 237.194 47.6761 225.24 53.6196C223.843 54.0806 222.446 54.5417 221.007 55.0167C221.464 52.687 221.922 50.3572 222.393 47.9569C217.744 51.6698 213.096 55.3827 208.306 59.2082C207.838 58.7401 207.37 58.2721 206.888 57.7899C212.272 52.3228 217.672 46.8722 223.075 41.4243C224.592 39.8835 226.109 38.3428 227.672 36.7554C235.383 28.9965 242.93 21.7866 251.944 15.5684Z" fill="#9B2226"/>
<path d="M208.36 64.8647C208.828 65.3327 209.296 65.8008 209.778 66.283C203.642 76.7307 195.062 85.7483 184.439 91.6222C183.503 90.6861 182.567 89.75 181.603 88.7856C184.799 82.8798 188.674 78.4104 193.38 73.6399C194.697 72.2824 196.014 70.9248 197.371 69.5262C201.3 66.2513 201.3 66.2513 208.36 64.8647Z" fill="#9B2226"/>
<path d="M190.011 77.5098C191.883 79.3819 193.755 81.2541 195.684 83.183C191.964 85.9669 188.244 88.7507 184.412 91.6189C183.476 90.6828 182.54 89.7467 181.575 88.7822C184.359 85.0623 187.143 81.3424 190.011 77.5098Z" fill="#9B2226"/>
<path d="M261.985 252.123C261.985 250.799 261.985 249.475 261.985 248.111C306.29 240.625 351.387 238.221 395.368 250.117C395.368 251.441 395.368 252.765 395.368 254.129C351.532 263.497 305.547 263.539 261.985 252.123Z" fill="#9B2226"/>
<path d="M261.992 252.159C261.992 250.835 261.992 249.511 261.992 248.147C278.274 243.794 293.927 243.961 310.642 244.637C312.741 244.715 314.84 244.792 317.003 244.872C326.827 245.354 334.545 246.065 343.614 250.153C341.643 251.477 339.672 252.801 337.642 254.165C343.554 254.827 349.467 255.489 355.559 256.171C355.559 256.832 355.559 257.494 355.559 258.176C347.033 258.328 338.508 258.436 329.982 258.507C327.096 258.537 324.21 258.577 321.324 258.63C300.716 258.998 282.069 257.052 261.992 252.159Z" fill="#9B2226"/>
<path d="M293.775 256.133C293.775 255.472 293.775 254.81 293.775 254.128C297.06 254.128 300.345 254.128 303.729 254.128C303.729 252.804 303.729 251.48 303.729 250.116C315.993 245.997 326.908 243.86 339.563 248.11C340.877 248.772 342.191 249.434 343.545 250.116C341.574 251.44 339.603 252.764 337.573 254.128C343.485 254.79 349.398 255.451 355.49 256.133C355.49 256.795 355.49 257.457 355.49 258.139C347.817 258.198 340.144 258.233 332.471 258.265C330.309 258.281 328.147 258.298 325.919 258.316C314.981 258.349 304.546 258.111 293.775 256.133Z" fill="#9B2226"/>
<path d="M359.48 252.114C359.48 251.452 359.48 250.79 359.48 250.108C371.206 247.059 383.65 246.75 395.315 250.108C395.315 251.432 395.315 252.756 395.315 254.12C388.879 256.036 382.978 256.456 376.278 256.502C374.386 256.53 372.495 256.559 370.546 256.588C365.453 256.126 365.453 256.126 359.48 252.114Z" fill="#9B2226"/>
<path d="M381.419 256.17C381.419 253.522 381.419 250.875 381.419 248.147C386.018 248.809 390.616 249.471 395.354 250.153C395.354 251.476 395.354 252.8 395.354 254.164C390.756 254.826 386.157 255.488 381.419 256.17Z" fill="#9B2226"/>
</g>
</g>
<rect x="0.5" y="0.5" width="537" height="537" rx="34.5" stroke="#9B2226"/>
<defs>
<linearGradient id="paint0_linear_734_2369" x1="26.5" y1="11" x2="603.5" y2="603" gradientUnits="userSpaceOnUse">
<stop stop-color="#F2EFEB"/>
<stop offset="1" stop-color="#FFFBF6"/>
</linearGradient>
<clipPath id="clip0_734_2369">
<rect width="538" height="538" rx="35" fill="white"/>
</clipPath>
</defs>
</svg>
