<svg width="380" height="102" viewBox="0 0 380 102" fill="none" xmlns="http://www.w3.org/2000/svg">
<path d="M26.6468 46.8789L17.5568 52.9539C15.8168 52.9539 14.0468 52.7289 12.2468 52.2789C9.90684 51.6789 7.91184 50.7939 6.26184 49.6239C4.22184 48.1839 2.78184 46.3539 1.94184 44.1339C1.94184 41.0739 2.52684 38.4489 3.69684 36.2589C4.80684 34.2489 6.51684 32.4639 8.82684 30.9039C10.8068 29.5539 13.5218 28.2039 16.9718 26.8539C16.7018 26.7339 16.2818 26.5389 15.7118 26.2689C13.3718 25.1589 11.4968 24.4239 10.0868 24.0639C7.71684 23.4639 5.36184 23.4489 3.02184 24.0189L3.11184 24.0639L4.46184 19.3389C5.27184 18.7089 6.41184 18.3939 7.88184 18.3939C7.88184 18.3939 8.24184 18.4239 8.96184 18.4839C9.89184 18.6039 10.9268 18.8289 12.0668 19.1589C13.6868 19.6089 15.4118 20.2089 17.2418 20.9589C19.4918 21.9189 21.8318 23.1039 24.2618 24.5139L22.4618 31.8939C19.5218 31.8939 16.5068 32.4489 13.4168 33.5589C9.90684 34.8489 6.62184 36.7539 3.56184 39.2739C5.66184 41.1939 8.00184 42.5589 10.5818 43.3689C13.0118 44.0889 16.1468 44.4489 19.9868 44.4489C21.4268 44.4489 23.8718 44.3139 27.3218 44.0439L26.6468 46.8789ZM37.7703 19.0239C40.3503 20.1339 42.3153 22.0239 43.6653 24.6939C44.8953 27.1839 45.5103 30.1839 45.5103 33.6939C45.5103 36.6339 45.0603 39.4839 44.1603 42.2439C43.2603 45.0639 42.0003 47.4939 40.3803 49.5339L29.4903 48.0039V46.3389C32.2503 45.9189 34.6353 45.2289 36.6453 44.2689C39.1053 43.0689 41.4903 41.2389 43.8003 38.7789H37.7703C35.4903 38.7789 33.7653 38.4339 32.5953 37.7439C31.1253 36.9039 30.3903 35.5089 30.3903 33.5589C30.3903 31.1289 30.8403 28.8189 31.7403 26.6289C32.4603 24.7989 33.4503 23.1639 34.7103 21.7239C35.7303 20.4939 36.7503 19.5939 37.7703 19.0239ZM40.6503 28.6989C40.3203 28.6089 39.8253 28.2939 39.1653 27.7539C38.4753 27.1539 37.9203 26.7639 37.5003 26.5839C36.8103 26.2839 36.0603 26.2539 35.2503 26.4939C34.2903 26.7939 33.2253 27.5289 32.0553 28.6989H40.6503ZM56.6119 17.4939C55.8919 17.9439 55.0369 18.2589 54.0469 18.4389L49.4119 19.2939V17.0439L54.1819 16.1889C53.4919 15.5589 53.1469 14.7939 53.1469 13.8939C53.1469 12.9639 53.4169 12.1989 53.9569 11.5989C54.4969 10.9689 55.1869 10.6539 56.0269 10.6539C56.8069 10.6539 57.4819 10.9389 58.0519 11.5089C58.5619 12.1689 58.8169 12.8739 58.8169 13.6239C58.8169 14.4039 58.6369 15.1089 58.2769 15.7389L59.4019 16.2339L58.5019 18.3039L56.6119 17.4939ZM55.9369 12.9039C55.2769 12.9039 54.9469 13.1439 54.9469 13.6239C54.9469 14.0439 55.3819 14.4639 56.2519 14.8839L56.5669 15.0189C56.8669 14.6289 57.0169 14.2389 57.0169 13.8489C57.0169 13.2189 56.6569 12.9039 55.9369 12.9039ZM56.3876 21.5889C57.2876 23.2989 57.9926 25.2789 58.5026 27.5289C58.9826 29.7789 59.2226 32.1039 59.2226 34.5039C59.2226 37.5639 58.8326 40.3839 58.0526 42.9639C57.2726 45.6639 56.1176 47.8539 54.5876 49.5339L44.2376 45.8439L44.1026 44.4939C47.0126 44.0739 49.5776 43.1289 51.7976 41.6589C54.0776 40.1889 55.5026 38.5239 56.0726 36.6639L50.8976 26.7639L56.4776 21.5889H56.3876ZM76.4232 17.6739C78.4332 18.2739 80.2632 19.5639 81.9132 21.5439C83.5332 23.4939 84.4482 25.4589 84.6582 27.4389L84.7032 30.9939L82.3632 38.7789H75.3882C74.1882 38.7789 73.0782 38.4039 72.0582 37.6539C70.9182 36.8139 70.1232 35.6289 69.6732 34.0989C69.1332 32.2989 69.1332 30.1389 69.6732 27.6189C70.0632 25.8189 70.9182 23.9589 72.2382 22.0389C73.4982 20.1789 74.8932 18.7239 76.4232 17.6739ZM81.0582 28.6989C81.0582 28.6989 80.8932 28.4439 80.5632 27.9339C80.1432 27.3639 79.6632 26.8689 79.1232 26.4489C78.4332 25.8489 77.6982 25.4589 76.9182 25.2789C75.9582 25.0689 74.9682 25.2039 73.9482 25.6839C72.7782 26.2239 71.5932 27.2289 70.3932 28.6989H81.0582ZM70.6632 12.2289L74.7132 8.1789L78.7632 12.2289L74.7132 16.2789L70.6632 12.2289ZM77.5032 11.8689L81.5532 7.8189L85.6032 11.8689L81.5532 15.9189L77.5032 11.8689ZM85.6229 20.2939V18.0439L94.6229 16.4239V18.6739L85.6229 20.2939ZM94.4003 21.5889C95.3003 23.2989 96.0053 25.2789 96.5153 27.5289C96.9953 29.7789 97.2353 32.1039 97.2353 34.5039C97.2353 37.5639 96.8453 40.3839 96.0653 42.9639C95.2853 45.6639 94.1303 47.8539 92.6003 49.5339L82.2503 45.8439L82.1153 44.4939C85.0253 44.0739 87.5903 43.1289 89.8103 41.6589C92.0903 40.1889 93.5153 38.5239 94.0853 36.6639L88.9103 26.7639L94.4903 21.5889H94.4003ZM149.676 28.1589V28.1139L152.331 21.0039H154.176V23.0739L154.221 23.7039C154.281 24.2439 154.371 24.7689 154.491 25.2789C154.671 25.9689 154.926 26.6139 155.256 27.2139C155.556 27.6039 155.946 27.9339 156.426 28.2039C156.876 28.4439 157.266 28.5789 157.596 28.6089C158.466 28.6689 159.111 28.6989 159.531 28.6989L159.846 29.0589V38.3289L159.531 38.7789C157.731 38.7789 156.096 38.3289 154.626 37.4289C153.546 36.7989 152.526 35.9139 151.566 34.7739C151.356 34.8939 151.131 34.9989 150.891 35.0889L150.531 35.2689C148.611 36.2889 147.216 36.9789 146.346 37.3389C145.206 37.8489 143.961 38.2839 142.611 38.6439C141.291 39.0039 139.881 39.3189 138.381 39.5889C136.881 39.8289 135.291 40.0089 133.611 40.1289C131.931 40.2489 130.161 40.3089 128.301 40.3089C118.041 40.1589 108.831 38.0439 100.671 33.9639L98.8261 10.9239L104.676 6.9189L104.541 11.8689L103.281 24.1539L103.191 26.0439C112.071 29.6739 120.891 31.4889 129.651 31.4889C131.421 31.4889 133.131 31.4289 134.781 31.3089C136.461 31.1889 138.066 31.0089 139.596 30.7689C141.156 30.4989 142.641 30.1839 144.051 29.8239L149.676 28.1589ZM149.541 15.8289L153.591 11.7789L157.641 15.8289L153.591 19.8789L149.541 15.8289ZM173.942 40.4889L161.612 36.0789L160.397 38.7789H159.182L158.867 38.4189V29.1039L159.182 28.6989H162.422C164.312 24.5589 166.547 21.3339 169.127 19.0239C171.797 19.8039 174.047 21.3189 175.877 23.5689C177.767 25.9089 178.712 28.2189 178.712 30.4989L173.942 40.4889ZM173.357 31.3989C171.647 27.1089 168.542 26.0289 164.042 28.1589L173.357 31.3989ZM209.467 29.2389V38.1489L209.107 38.7789H203.977L201.907 30.1389L199.027 38.7339C196.477 38.4639 194.257 38.0439 192.367 37.4739C190.687 36.9339 189.367 36.3039 188.407 35.5839C188.407 32.5839 188.617 30.3789 189.037 28.9689C189.607 26.8989 190.762 25.3989 192.502 24.4689L199.657 20.5989L199.207 18.8439L201.997 14.8839L203.032 14.7039C203.422 17.3139 204.052 21.0039 204.922 25.7739C205.162 27.0639 205.342 28.0389 205.462 28.6989H209.107L209.467 29.2389ZM192.457 26.5389C191.767 26.7789 191.242 26.9739 190.882 27.1239C192.532 27.7839 194.077 28.2189 195.517 28.4289C196.417 28.5489 197.782 28.6239 199.612 28.6539C200.452 28.6539 201.112 28.6689 201.592 28.6989L199.927 21.7689C199.267 22.9089 198.247 23.8689 196.867 24.6489C196.027 25.1289 194.557 25.7589 192.457 26.5389ZM190.477 10.9689L194.527 6.9189L198.577 10.9689L194.527 15.0189L190.477 10.9689ZM197.317 10.6089L201.367 6.5589L205.417 10.6089L201.367 14.6589L197.317 10.6089ZM225.089 10.3989H226.799V12.1539C227.309 12.4839 228.029 12.6939 228.959 12.7839C229.109 12.4239 229.184 12.1239 229.184 11.8839C229.184 11.2539 228.929 10.5489 228.419 9.7689L229.589 8.9589H229.814C230.504 9.9189 230.849 10.8939 230.849 11.8839C230.849 12.8139 230.489 13.8789 229.769 15.0789C228.509 15.0789 227.354 14.7339 226.304 14.0439C225.794 15.4539 224.804 16.1589 223.334 16.1589C222.464 16.1589 221.789 15.9189 221.309 15.4389C220.829 14.9589 220.589 14.3139 220.589 13.5039C220.589 12.4839 220.829 11.4939 221.309 10.5339L222.884 11.1189C222.614 11.6589 222.479 12.1539 222.479 12.6039C222.479 13.4739 222.854 13.9089 223.604 13.9089C224.054 13.9089 224.414 13.6989 224.684 13.2789C224.954 12.8289 225.089 12.2139 225.089 11.4339V10.3989ZM218.606 25.1889C218.606 25.1889 219.641 24.6339 221.711 23.5239C224.171 22.2339 226.376 21.1239 228.326 20.1939C231.056 18.9339 233.081 18.1239 234.401 17.7639C236.591 18.9039 238.301 20.4339 239.531 22.3539C240.731 24.2139 241.451 26.3289 241.691 28.6989H244.841L245.201 29.2389V38.0139L244.796 38.7789H221.936C220.496 38.7789 219.116 38.3739 217.796 37.5639C217.136 37.1439 216.551 36.6789 216.041 36.1689C215.411 35.5389 214.721 34.6689 213.971 33.5589L212.396 38.7789H208.976L208.661 38.3289V29.0589L208.976 28.6989H213.026L218.606 25.1889ZM211.001 28.6989L215.051 22.1289L217.256 23.2089L215.996 26.5389V28.6989H211.001ZM218.291 28.6989H239.711C238.091 26.7789 236.651 25.3239 235.391 24.3339C234.221 23.4339 233.096 22.8339 232.016 22.5339L218.291 28.6989ZM252.939 21.0039H254.784V23.0739C254.784 23.0739 254.799 23.2839 254.829 23.7039C254.889 24.2439 254.979 24.7689 255.099 25.2789C255.279 25.9689 255.534 26.6139 255.864 27.2139C256.164 27.6039 256.554 27.9339 257.034 28.2039C257.484 28.4439 257.874 28.5789 258.204 28.6089C259.074 28.6689 259.719 28.6989 260.139 28.6989L260.454 29.0589V38.3289L260.139 38.7789C258.339 38.7789 256.704 38.3289 255.234 37.4289C253.764 36.5589 252.384 35.1939 251.094 33.3339L249.474 38.7789H244.704L244.389 38.3289V29.0589L244.704 28.6989H250.104L250.284 28.1139L252.939 21.0039ZM250.059 15.4689L254.109 11.4189L258.159 15.4689L254.109 19.5189L250.059 15.4689ZM260.992 44.0539V41.8039L269.992 40.1839V42.4339L260.992 44.0539ZM274.533 40.4889L262.203 36.0789L260.988 38.7789H259.773L259.458 38.4189V29.1039L259.773 28.6989H263.013C264.903 24.5589 267.138 21.3339 269.718 19.0239C272.388 19.8039 274.638 21.3189 276.468 23.5689C278.358 25.9089 279.303 28.2189 279.303 30.4989L274.533 40.4889ZM273.948 31.3989C272.238 27.1089 269.133 26.0289 264.633 28.1589L273.948 31.3989ZM4.285 88.6249C4.285 87.2329 4.381 86.0329 4.573 85.0249C4.765 84.0169 5.113 83.1289 5.617 82.3609C6.121 81.5929 6.793 80.8969 7.633 80.2729C8.497 79.6489 9.601 79.0129 10.945 78.3649L16.093 75.8449H18.901L21.457 82.7929C21.697 83.4409 21.913 83.9809 22.105 84.4129C22.321 84.8209 22.549 85.1449 22.789 85.3849C23.029 85.6249 23.293 85.7929 23.581 85.8889C23.893 85.9849 24.253 86.0329 24.661 86.0329H25.381V88.4089L24.661 89.1289C23.533 89.1289 22.633 88.9729 21.961 88.6609C21.289 88.3249 20.689 87.6769 20.161 86.7169L19.945 86.7889V89.1289H15.661C13.693 89.1289 12.157 88.7449 11.053 87.9769C9.949 87.2089 9.397 86.1409 9.397 84.7729C9.397 83.5009 9.889 82.4809 10.873 81.7129L10.729 81.5689L9.613 82.2169C9.085 82.5529 8.641 82.8889 8.281 83.2249C7.945 83.5609 7.681 83.9689 7.489 84.4489C7.297 84.9289 7.153 85.5049 7.057 86.1769C6.985 86.8489 6.949 87.6649 6.949 88.6249V100.145H4.285V88.6249ZM11.557 83.5129C11.557 84.3769 11.905 85.0129 12.601 85.4209C13.297 85.8289 14.389 86.0329 15.877 86.0329H19.801C19.537 85.4809 19.249 84.7729 18.937 83.9089L17.029 78.7969L15.553 79.4809C14.761 79.8409 14.113 80.1889 13.609 80.5249C13.105 80.8369 12.697 81.1489 12.385 81.4609C12.073 81.7729 11.857 82.0969 11.737 82.4329C11.617 82.7689 11.557 83.1289 11.557 83.5129ZM24.6784 86.7529L25.3984 86.0329H29.2504V88.4089L28.5304 89.1289H24.6784V86.7529ZM28.5456 86.7529L29.2656 86.0329H33.1176V88.4089L32.3976 89.1289H28.5456V86.7529ZM32.4128 86.7529L33.1328 86.0329H33.6728C35.2568 86.0329 36.3968 85.8409 37.0928 85.4569C37.8128 85.0489 38.1728 84.2809 38.1728 83.1529C38.1728 82.7209 38.1368 82.1689 38.0648 81.4969C38.0168 80.8249 37.8968 79.9369 37.7048 78.8329L37.2008 75.8449L39.7208 75.4489L40.1528 78.4369C40.3208 79.6129 40.4408 80.5729 40.5128 81.3169C40.5848 82.0609 40.6208 82.6729 40.6208 83.1529C40.6208 85.1689 40.0208 86.6689 38.8208 87.6529C37.6448 88.6369 35.9288 89.1289 33.6728 89.1289H32.4128V86.7529ZM40.2248 96.3289C39.7448 96.3289 39.3608 96.1849 39.0728 95.8969C38.7848 95.6329 38.6408 95.1889 38.6408 94.5649C38.6408 93.9409 38.7848 93.4849 39.0728 93.1969C39.3608 92.9329 39.7448 92.8009 40.2248 92.8009H40.6208C41.1008 92.8009 41.4848 92.9329 41.7728 93.1969C42.0608 93.4849 42.2048 93.9409 42.2048 94.5649C42.2048 95.1889 42.0608 95.6329 41.7728 95.8969C41.4848 96.1849 41.1008 96.3289 40.6208 96.3289H40.2248ZM35.5808 96.3289C35.1008 96.3289 34.7168 96.1849 34.4288 95.8969C34.1408 95.6329 33.9968 95.1889 33.9968 94.5649C33.9968 93.9409 34.1408 93.4849 34.4288 93.1969C34.7168 92.9329 35.1008 92.8009 35.5808 92.8009H35.9768C36.4568 92.8009 36.8408 92.9329 37.1288 93.1969C37.4168 93.4849 37.5608 93.9409 37.5608 94.5649C37.5608 95.1889 37.4168 95.6329 37.1288 95.8969C36.8408 96.1849 36.4568 96.3289 35.9768 96.3289H35.5808ZM43.3127 94.6729H44.6447C45.9647 94.6729 47.0447 94.4809 47.8847 94.0969C48.7247 93.7129 49.3847 93.1969 49.8647 92.5489C50.3447 91.9249 50.6807 91.1809 50.8727 90.3169C51.0647 89.4769 51.1607 88.5889 51.1607 87.6529C51.1607 86.9569 51.1247 86.2369 51.0527 85.4929C50.9807 84.7249 50.8847 83.9929 50.7647 83.2969L50.0087 79.2289L52.5287 78.7249L52.9967 81.4609C53.1407 82.3009 53.2487 83.0929 53.3207 83.8369C53.4167 84.5809 53.4887 85.3129 53.5367 86.0329H56.9567V88.4089L56.2367 89.1289H53.5007C53.4047 90.3049 53.1767 91.4089 52.8167 92.4409C52.4807 93.4969 51.9647 94.4209 51.2687 95.2129C50.5967 96.0049 49.7087 96.6289 48.6047 97.0849C47.5247 97.5409 46.2047 97.7689 44.6447 97.7689H43.3127V94.6729ZM56.2487 86.7529L56.9688 86.0329H60.2808C61.5048 86.0329 62.3568 85.9129 62.8368 85.6729C63.3408 85.4089 63.5928 84.9649 63.5928 84.3409C63.5928 84.1489 63.5568 83.9569 63.4848 83.7649C63.4368 83.5489 63.3408 83.3209 63.1968 83.0809C63.0528 82.8169 62.8608 82.5169 62.6208 82.1809C62.3808 81.8449 62.0688 81.4369 61.6848 80.9569L57.3288 75.5209V69.2569L72.8808 62.0929V65.3689L58.5888 71.9929V72.1729L66.5808 82.1089C67.2048 82.9009 67.7688 83.5489 68.2728 84.0529C68.8008 84.5569 69.3048 84.9529 69.7848 85.2409C70.2888 85.5289 70.8168 85.7329 71.3688 85.8529C71.9208 85.9729 72.5448 86.0329 73.2408 86.0329V88.4089L72.5208 89.1289C71.6568 89.1289 70.9008 89.0689 70.2528 88.9489C69.6288 88.8289 69.0408 88.6129 68.4888 88.3009C67.9608 87.9889 67.4448 87.5569 66.9408 87.0049C66.4368 86.4529 65.8848 85.7569 65.2848 84.9169L64.6728 84.0529L64.5288 84.1249C64.5528 84.2929 64.5648 84.4609 64.5648 84.6289C64.5888 84.7729 64.6008 84.9169 64.6008 85.0609C64.6008 86.3329 64.2048 87.3289 63.4128 88.0489C62.6448 88.7689 61.6008 89.1289 60.2808 89.1289H56.2487V86.7529ZM72.5261 86.7529L73.2461 86.0329H74.2901C75.4421 86.0329 76.2701 85.7689 76.7741 85.2409C77.3021 84.7129 77.5661 83.8729 77.5661 82.7209V62.4889H80.2301V82.7209C80.2301 84.9289 79.7501 86.5489 78.7901 87.5809C77.8541 88.6129 76.3541 89.1289 74.2901 89.1289H72.5261V86.7529ZM85.6141 62.4889H88.2781V89.1289H85.6141V62.4889ZM110.885 94.8889C107.741 94.8889 105.293 94.0969 103.541 92.5129C101.789 90.9289 100.913 88.7209 100.913 85.8889C100.913 84.7849 101.057 83.6209 101.345 82.3969C101.657 81.1489 102.077 79.9129 102.605 78.6889L104.837 79.3729C104.381 80.3089 104.009 81.2929 103.721 82.3249C103.433 83.3329 103.289 84.2929 103.289 85.2049C103.289 87.2449 103.865 88.8289 105.017 89.9569C106.169 91.0849 107.765 91.6489 109.805 91.6489H111.965C114.509 91.6489 116.369 91.1329 117.545 90.1009C118.745 89.0929 119.345 87.4969 119.345 85.3129C119.345 84.9289 119.333 84.5449 119.309 84.1609C119.285 83.7769 119.237 83.3569 119.165 82.9009C119.117 82.4209 119.033 81.8929 118.913 81.3169C118.817 80.7409 118.697 80.0929 118.553 79.3729L117.941 76.3849L120.461 75.8809L121.001 78.8689C121.145 79.6609 121.265 80.3689 121.361 80.9929C121.457 81.6169 121.541 82.1809 121.613 82.6849C121.685 83.1889 121.733 83.6569 121.757 84.0889C121.781 84.5209 121.793 84.9289 121.793 85.3129C121.793 88.6009 120.917 91.0129 119.165 92.5489C117.413 94.1089 114.653 94.8889 110.885 94.8889ZM111.389 75.0529C110.909 75.0529 110.525 74.9209 110.237 74.6569C109.949 74.3689 109.805 73.9129 109.805 73.2889C109.805 72.6649 109.949 72.2209 110.237 71.9569C110.525 71.6689 110.909 71.5249 111.389 71.5249H111.785C112.265 71.5249 112.649 71.6689 112.937 71.9569C113.225 72.2209 113.369 72.6649 113.369 73.2889C113.369 73.9129 113.225 74.3689 112.937 74.6569C112.649 74.9209 112.265 75.0529 111.785 75.0529H111.389ZM125.833 66.8809H128.497V89.1289H125.833V66.8809ZM122.305 63.1729C122.305 62.8369 122.353 62.5129 122.449 62.2009C122.545 61.8889 122.713 61.6369 122.953 61.4449C123.169 61.2289 123.457 61.0849 123.817 61.0129C124.177 60.9409 124.633 60.9649 125.185 61.0849L127.237 61.5169C127.837 61.6369 128.257 61.7209 128.497 61.7689C128.761 61.8169 128.989 61.8409 129.181 61.8409C129.613 61.8409 129.937 61.7329 130.153 61.5169C130.393 61.2769 130.585 60.8809 130.729 60.3289L132.349 61.0849C131.965 63.0769 130.909 64.0729 129.181 64.0729C128.965 64.0729 128.701 64.0609 128.389 64.0369C128.077 63.9889 127.573 63.9049 126.877 63.7849L124.105 63.2809V64.3609H122.305V63.1729ZM129.024 94.6729H130.356C131.676 94.6729 132.756 94.4809 133.596 94.0969C134.436 93.7129 135.096 93.1969 135.576 92.5489C136.056 91.9249 136.392 91.1809 136.584 90.3169C136.776 89.4769 136.872 88.5889 136.872 87.6529C136.872 86.9569 136.836 86.2369 136.764 85.4929C136.692 84.7249 136.596 83.9929 136.476 83.2969L135.72 79.2289L138.24 78.7249L138.708 81.4609C138.852 82.3009 138.96 83.0929 139.032 83.8369C139.128 84.5809 139.2 85.3129 139.248 86.0329H142.668V88.4089L141.948 89.1289H139.212C139.116 90.3049 138.888 91.4089 138.528 92.4409C138.192 93.4969 137.676 94.4209 136.98 95.2129C136.308 96.0049 135.42 96.6289 134.316 97.0849C133.236 97.5409 131.916 97.7689 130.356 97.7689H129.024V94.6729ZM141.96 86.7529L142.68 86.0329H146.532V88.4089L145.812 89.1289H141.96V86.7529ZM145.827 86.7529L146.547 86.0329H150.399V88.4089L149.679 89.1289H145.827V86.7529ZM149.694 86.7529L150.414 86.0329H155.634L155.706 85.8889C154.482 84.9289 153.534 83.8969 152.862 82.7929C152.19 81.6649 151.854 80.3569 151.854 78.8689C151.854 77.9089 152.01 77.0089 152.322 76.1689C152.634 75.3289 153.078 74.5969 153.654 73.9729C154.23 73.3249 154.914 72.8209 155.706 72.4609C156.522 72.0769 157.41 71.8849 158.37 71.8849C159.33 71.8849 160.206 72.0769 160.998 72.4609C161.814 72.8209 162.51 73.3129 163.086 73.9369C163.662 74.5609 164.106 75.3049 164.418 76.1689C164.73 77.0089 164.886 77.9089 164.886 78.8689C164.886 80.3569 164.55 81.6649 163.878 82.7929C163.206 83.8969 162.258 84.9289 161.034 85.8889L161.106 86.0329H166.326V88.4089L165.606 89.1289H165.102C163.878 89.1289 162.702 88.9969 161.574 88.7329C160.446 88.4449 159.378 88.0249 158.37 87.4729C157.362 88.0249 156.294 88.4449 155.166 88.7329C154.038 88.9969 152.862 89.1289 151.638 89.1289H149.694V86.7529ZM158.37 84.9529C159.594 84.2809 160.566 83.4889 161.286 82.5769C162.006 81.6409 162.366 80.5249 162.366 79.2289C162.366 77.9329 162.018 76.9009 161.322 76.1329C160.626 75.3649 159.702 74.9809 158.55 74.9809H158.19C157.038 74.9809 156.114 75.3649 155.418 76.1329C154.722 76.9009 154.374 77.9329 154.374 79.2289C154.374 80.5249 154.734 81.6409 155.454 82.5769C156.174 83.4889 157.146 84.2809 158.37 84.9529ZM160.386 67.5649C159.906 67.5649 159.522 67.4329 159.234 67.1689C158.946 66.8809 158.802 66.4249 158.802 65.8009C158.802 65.1769 158.946 64.7329 159.234 64.4689C159.522 64.1809 159.906 64.0369 160.386 64.0369H160.782C161.262 64.0369 161.646 64.1809 161.934 64.4689C162.222 64.7329 162.366 65.1769 162.366 65.8009C162.366 66.4249 162.222 66.8809 161.934 67.1689C161.646 67.4329 161.262 67.5649 160.782 67.5649H160.386ZM155.742 67.5649C155.262 67.5649 154.878 67.4329 154.59 67.1689C154.302 66.8809 154.158 66.4249 154.158 65.8009C154.158 65.1769 154.302 64.7329 154.59 64.4689C154.878 64.1809 155.262 64.0369 155.742 64.0369H156.138C156.618 64.0369 157.002 64.1809 157.29 64.4689C157.578 64.7329 157.722 65.1769 157.722 65.8009C157.722 66.4249 157.578 66.8809 157.29 67.1689C157.002 67.4329 156.618 67.5649 156.138 67.5649H155.742ZM165.62 86.7529L166.34 86.0329H167.384C168.536 86.0329 169.364 85.7689 169.868 85.2409C170.396 84.7129 170.66 83.8729 170.66 82.7209V62.4889H173.324V82.7209C173.324 84.9289 172.844 86.5489 171.884 87.5809C170.948 88.6129 169.448 89.1289 167.384 89.1289H165.62V86.7529ZM178.708 62.4889H181.372V89.1289H178.708V62.4889ZM190.406 94.6729H191.738C193.058 94.6729 194.138 94.4809 194.978 94.0969C195.818 93.7129 196.478 93.1969 196.958 92.5489C197.438 91.9249 197.774 91.1809 197.966 90.3169C198.158 89.4769 198.254 88.5889 198.254 87.6529C198.254 86.9569 198.218 86.2369 198.146 85.4929C198.074 84.7249 197.978 83.9929 197.858 83.2969L197.102 79.2289L199.622 78.7249L200.054 81.3169L206.39 80.2369V77.2849H208.91V83.5129C208.91 84.4249 209.162 85.0729 209.666 85.4569C210.17 85.8409 210.95 86.0329 212.006 86.0329H213.266V88.4089L212.546 89.1289H212.474C211.37 89.1289 210.434 89.0329 209.666 88.8409C208.898 88.6249 208.262 88.3009 207.758 87.8689C207.278 87.4129 206.93 86.8249 206.714 86.1049C206.498 85.3849 206.39 84.5209 206.39 83.5129V83.2249L200.486 84.2329C200.534 84.8329 200.57 85.4209 200.594 85.9969C200.642 86.5729 200.666 87.1489 200.666 87.7249C200.666 89.0449 200.522 90.3049 200.234 91.5049C199.946 92.7289 199.454 93.7969 198.758 94.7089C198.086 95.6449 197.174 96.3889 196.022 96.9409C194.894 97.4929 193.466 97.7689 191.738 97.7689H190.406V94.6729ZM209.774 96.3289C209.294 96.3289 208.91 96.1849 208.622 95.8969C208.334 95.6329 208.19 95.1889 208.19 94.5649C208.19 93.9409 208.334 93.4849 208.622 93.1969C208.91 92.9329 209.294 92.8009 209.774 92.8009H210.17C210.65 92.8009 211.034 92.9329 211.322 93.1969C211.61 93.4849 211.754 93.9409 211.754 94.5649C211.754 95.1889 211.61 95.6329 211.322 95.8969C211.034 96.1849 210.65 96.3289 210.17 96.3289H209.774ZM205.13 96.3289C204.65 96.3289 204.266 96.1849 203.978 95.8969C203.69 95.6329 203.546 95.1889 203.546 94.5649C203.546 93.9409 203.69 93.4849 203.978 93.1969C204.266 92.9329 204.65 92.8009 205.13 92.8009H205.526C206.006 92.8009 206.39 92.9329 206.678 93.1969C206.966 93.4849 207.11 93.9409 207.11 94.5649C207.11 95.1889 206.966 95.6329 206.678 95.8969C206.39 96.1849 206.006 96.3289 205.526 96.3289H205.13ZM212.553 86.7529L213.273 86.0329H217.125V88.4089L216.405 89.1289H212.553V86.7529ZM216.421 86.7529L217.141 86.0329H218.401C218.857 86.0329 219.253 85.9969 219.589 85.9249C219.949 85.8289 220.273 85.6729 220.561 85.4569C220.849 85.2409 221.113 84.9529 221.353 84.5929C221.617 84.2329 221.893 83.7649 222.181 83.1889L223.729 80.1649L225.781 81.2089L223.873 84.8089L224.377 85.1329C225.145 85.6369 225.889 85.9849 226.609 86.1769C227.353 86.3689 228.073 86.4649 228.769 86.4649C229.897 86.4649 230.725 86.2009 231.253 85.6729C231.805 85.1449 232.081 84.2449 232.081 82.9729V80.1649H234.601V82.9729C234.601 84.2689 234.781 85.1809 235.141 85.7089C235.501 86.2129 236.101 86.4649 236.941 86.4649H237.769C238.609 86.4649 239.197 86.2129 239.533 85.7089C239.893 85.1809 240.073 84.2689 240.073 82.9729V78.7249H242.593V82.9729C242.593 85.0129 243.613 86.0329 245.653 86.0329H246.913V88.4089L246.193 89.1289C244.609 89.1289 243.361 88.8769 242.449 88.3729C241.537 87.8449 240.901 87.0409 240.541 85.9609H240.361C240.217 87.3049 239.857 88.2409 239.281 88.7689C238.705 89.2969 237.865 89.5609 236.761 89.5609C234.289 89.5609 232.837 88.3609 232.405 85.9609H232.225C231.985 87.1129 231.517 88.0009 230.821 88.6249C230.149 89.2489 229.249 89.5609 228.121 89.5609C226.705 89.5609 225.121 88.9969 223.369 87.8689L222.253 87.1489C221.557 87.9169 220.765 88.4449 219.877 88.7329C218.989 88.9969 217.837 89.1289 216.421 89.1289V86.7529ZM246.198 86.7529L246.918 86.0329H248.178C250.218 86.0329 251.238 85.0129 251.238 82.9729V77.2849H253.758V82.9729C253.758 85.0129 254.778 86.0329 256.818 86.0329H258.078V88.4089L257.358 89.1289C254.046 89.1289 252.102 87.9529 251.526 85.6009H251.346C251.082 86.9209 250.566 87.8449 249.798 88.3729C249.03 88.8769 247.83 89.1289 246.198 89.1289V86.7529ZM254.622 96.3289C254.142 96.3289 253.758 96.1849 253.47 95.8969C253.182 95.6329 253.038 95.1889 253.038 94.5649C253.038 93.9409 253.182 93.4849 253.47 93.1969C253.758 92.9329 254.142 92.8009 254.622 92.8009H255.018C255.498 92.8009 255.882 92.9329 256.17 93.1969C256.458 93.4849 256.602 93.9409 256.602 94.5649C256.602 95.1889 256.458 95.6329 256.17 95.8969C255.882 96.1849 255.498 96.3289 255.018 96.3289H254.622ZM249.978 96.3289C249.498 96.3289 249.114 96.1849 248.826 95.8969C248.538 95.6329 248.394 95.1889 248.394 94.5649C248.394 93.9409 248.538 93.4849 248.826 93.1969C249.114 92.9329 249.498 92.8009 249.978 92.8009H250.374C250.854 92.8009 251.238 92.9329 251.526 93.1969C251.814 93.4849 251.958 93.9409 251.958 94.5649C251.958 95.1889 251.814 95.6329 251.526 95.8969C251.238 96.1849 250.854 96.3289 250.374 96.3289H249.978ZM257.342 86.7529L258.062 86.0329H259.323C261.363 86.0329 262.383 85.0129 262.383 82.9729V77.2849H264.903V82.9729C264.903 85.0129 265.923 86.0329 267.963 86.0329H269.223V88.4089L268.503 89.1289C265.191 89.1289 263.247 87.9529 262.671 85.6009H262.491C262.227 86.9209 261.711 87.8449 260.943 88.3729C260.175 88.8769 258.974 89.1289 257.342 89.1289V86.7529ZM265.659 72.9649C265.179 72.9649 264.795 72.8329 264.507 72.5689C264.219 72.2809 264.075 71.8249 264.075 71.2009C264.075 70.5769 264.219 70.1329 264.507 69.8689C264.795 69.5809 265.179 69.4369 265.659 69.4369H266.055C266.535 69.4369 266.919 69.5809 267.207 69.8689C267.495 70.1329 267.639 70.5769 267.639 71.2009C267.639 71.8249 267.495 72.2809 267.207 72.5689C266.919 72.8329 266.535 72.9649 266.055 72.9649H265.659ZM261.015 72.9649C260.535 72.9649 260.151 72.8329 259.863 72.5689C259.575 72.2809 259.431 71.8249 259.431 71.2009C259.431 70.5769 259.575 70.1329 259.863 69.8689C260.151 69.5809 260.535 69.4369 261.015 69.4369H261.411C261.891 69.4369 262.275 69.5809 262.562 69.8689C262.851 70.1329 262.995 70.5769 262.995 71.2009C262.995 71.8249 262.851 72.2809 262.562 72.5689C262.275 72.8329 261.891 72.9649 261.411 72.9649H261.015ZM268.487 86.7529L269.207 86.0329H270.251C271.403 86.0329 272.231 85.7689 272.735 85.2409C273.263 84.7129 273.527 83.8729 273.527 82.7209V62.4889H276.191V82.7209C276.191 84.9289 275.711 86.5489 274.751 87.5809C273.815 88.6129 272.315 89.1289 270.251 89.1289H268.487V86.7529Z" fill="#3C3C3B"/>
<path d="M367.06 61.4509C367.23 61.4772 367.399 61.5035 367.574 61.5306C367.732 61.5857 367.891 61.6408 368.055 61.6976C368.378 62.3982 368.628 63.0538 368.863 63.7841C368.936 64.0008 369.009 64.2176 369.085 64.441C369.325 65.1546 369.56 65.87 369.795 66.5857C369.959 67.0771 370.123 67.5684 370.288 68.0596C370.624 69.0639 370.958 70.0688 371.291 71.0743C371.751 72.4611 372.224 73.8433 372.7 75.2246C372.908 75.8321 373.117 76.4397 373.325 77.0474C373.457 77.4325 373.59 77.8175 373.723 78.2022C373.907 78.7346 374.088 79.2678 374.269 79.8014C374.372 80.1006 374.474 80.3997 374.58 80.7079C374.766 81.435 374.766 81.435 374.518 82.1751C373.936 82.5102 373.369 82.802 372.762 83.0849C372.4 83.2586 372.038 83.4324 371.676 83.6063C371.396 83.7397 371.396 83.7397 371.11 83.8758C370.028 84.3949 368.957 84.9384 367.885 85.4776C367.043 85.8976 366.198 86.2746 365.321 86.616C365.787 84.6522 366.341 82.7423 366.998 80.8336C367.173 80.3193 367.349 79.805 367.524 79.2906C367.656 78.9046 367.656 78.9046 367.79 78.5109C368.05 77.7469 368.307 76.9819 368.563 76.2163C368.642 75.9784 368.721 75.7405 368.803 75.4954C368.954 75.043 369.105 74.5906 369.255 74.1381C369.323 73.9363 369.39 73.7344 369.46 73.5265C369.548 73.2613 369.548 73.2613 369.638 72.9908C369.795 72.5531 369.795 72.5531 370.043 72.0597C356.271 75.3075 345.026 81.4355 334.747 91.0569C333.742 90.6633 333.099 89.9507 332.37 89.1911C331.007 87.8078 329.574 86.5726 328.035 85.3824C327.785 85.1849 327.535 84.9874 327.277 84.784C319.434 78.6382 310.24 74.3459 300.479 72.239C299.698 72.0597 299.698 72.0597 299.201 71.813C299.259 71.9825 299.316 72.152 299.375 72.3266C300.45 75.5071 301.518 78.6898 302.557 81.8821C302.641 82.1377 302.725 82.3932 302.811 82.6564C303.184 83.8078 303.527 84.9171 303.676 86.1226C301.602 85.5202 299.735 84.5793 297.819 83.6092C297.494 83.446 297.168 83.283 296.843 83.1201C296.054 82.7244 295.266 82.3269 294.479 81.9284C295.257 79.2077 296.217 76.5441 297.148 73.8722C297.294 73.4508 297.441 73.0295 297.588 72.6081C297.661 72.3981 297.734 72.1881 297.809 71.9717C298.23 70.755 298.638 69.535 299.032 68.3093C299.268 67.5773 299.508 66.8468 299.748 66.1163C299.859 65.7736 299.968 65.4301 300.074 65.0858C300.877 62.4928 300.877 62.4928 301.586 61.8088C303.086 61.0529 304.873 61.6321 306.381 62.1073C312.88 64.2831 318.818 67.507 324.307 71.5663C324.459 71.6781 324.611 71.79 324.768 71.9053C327.171 73.6861 329.36 75.6673 331.515 77.7342C331.724 77.9342 331.933 78.1343 332.148 78.3404C333.077 79.2461 333.933 80.1793 334.747 81.1882C335.536 80.4076 336.32 79.6214 337.102 78.8329C341.305 74.6084 341.305 74.6084 343.695 72.7999C343.961 72.5854 344.227 72.3701 344.492 72.1541C349.263 68.2951 354.864 65.1409 360.598 62.9312C360.805 62.8512 361.012 62.7713 361.226 62.6889C361.895 62.4349 362.566 62.1882 363.239 61.9443C363.448 61.8664 363.657 61.7886 363.873 61.7084C365.039 61.2996 365.832 61.1077 367.06 61.4509Z" fill="#9B2226"/>
<path d="M334.5 24.2246C334.582 24.2246 334.664 24.2246 334.749 24.2246C334.794 24.4603 334.839 24.6959 334.886 24.9387C336.377 32.5534 339.613 38.907 346.223 43.3626C350.652 46.2081 355.4 47.5421 360.6 48.1562C360.6 48.2376 360.6 48.319 360.6 48.4029C360.293 48.4392 359.986 48.4754 359.67 48.5128C353.73 49.269 348.176 51.2478 343.697 55.311C343.489 55.4824 343.282 55.6538 343.068 55.8305C339.12 59.1502 336.665 63.7103 335.463 68.6646C335.421 68.8315 335.379 68.9985 335.336 69.1705C335.097 70.138 334.9 71.1031 334.749 72.0878C334.667 72.0878 334.585 72.0878 334.5 72.0878C334.481 71.9256 334.463 71.7634 334.444 71.5963C333.508 64.8787 329.971 58.4705 324.52 54.3251C319.57 50.8721 314.369 49.1826 308.4 48.4029C308.4 48.3215 308.4 48.2401 308.4 48.1562C308.713 48.1171 309.026 48.078 309.348 48.0377C315.107 47.2771 320.562 45.5386 325.054 41.7415C325.27 41.5641 325.486 41.3866 325.709 41.2038C330.744 36.9091 333.815 30.7548 334.5 24.2246Z" fill="#9B2226"/>
<path d="M334.508 0C334.672 0 334.836 0 335.005 0C335.933 5.49068 336.231 11.0795 334.757 16.5301C334.593 16.5301 334.429 16.5301 334.26 16.5301C333.099 11.0975 333.094 5.39863 334.508 0Z" fill="#9B2226"/>
<path d="M334.499 0C334.663 0 334.827 0 334.996 0C335.535 2.01784 335.515 3.95771 335.431 6.02916C335.421 6.28931 335.412 6.54946 335.402 6.8175C335.342 8.03496 335.254 8.99146 334.747 10.1154C334.583 9.87116 334.419 9.62691 334.25 9.37526C334.168 10.108 334.086 10.8408 334.002 11.5957C333.92 11.5957 333.838 11.5957 333.753 11.5957C333.734 10.5391 333.721 9.48263 333.712 8.42592C333.708 8.06827 333.703 7.71064 333.697 7.35303C333.651 4.799 333.892 2.48816 334.499 0Z" fill="#9B2226"/>
<path d="M334.007 3.94336C334.089 3.94336 334.171 3.94336 334.256 3.94336C334.256 4.35044 334.256 4.75753 334.256 5.17695C334.42 5.17695 334.584 5.17695 334.753 5.17695C335.263 6.69675 335.528 8.04949 335.001 9.61786C334.919 9.78069 334.837 9.94353 334.753 10.1113C334.589 9.86704 334.425 9.62279 334.256 9.37114C334.174 10.1039 334.092 10.8366 334.007 11.5916C333.925 11.5916 333.843 11.5916 333.759 11.5916C333.751 10.6407 333.747 9.68983 333.743 8.73893C333.741 8.47098 333.739 8.20304 333.737 7.92698C333.733 6.57131 333.762 5.27819 334.007 3.94336Z" fill="#9B2226"/>
<path d="M334.506 12.0879C334.588 12.0879 334.67 12.0879 334.754 12.0879C335.132 13.5411 335.17 15.0832 334.754 16.5288C334.59 16.5288 334.426 16.5288 334.257 16.5288C334.02 15.7312 333.968 15 333.962 14.1696C333.958 13.9352 333.955 13.7008 333.951 13.4593C334.008 12.828 334.008 12.828 334.506 12.0879Z" fill="#9B2226"/>
<path d="M334 14.8008C334.328 14.8008 334.656 14.8008 334.994 14.8008C334.912 15.3707 334.83 15.9406 334.746 16.5278C334.582 16.5278 334.418 16.5278 334.249 16.5278C334.167 15.9579 334.085 15.388 334 14.8008Z" fill="#9B2226"/>
<path d="M365.374 16.7197C365.49 16.8357 365.606 16.9517 365.725 17.0712C362.499 21.6097 358.758 25.7723 353.861 28.584C353.745 28.468 353.629 28.3519 353.51 28.2324C356.53 23.5701 360.556 19.5367 365.374 16.7197Z" fill="#9B2226"/>
<path d="M365.37 16.7193C365.486 16.8353 365.602 16.9513 365.721 17.0709C364.676 18.8792 363.29 20.2362 361.766 21.6417C361.575 21.8189 361.384 21.9961 361.188 22.1786C360.285 22.9972 359.546 23.6112 358.393 24.0478C358.45 23.7591 358.506 23.4703 358.565 23.1729C357.989 23.633 357.412 24.0931 356.819 24.5672C356.761 24.5092 356.703 24.4512 356.643 24.3914C357.377 23.631 358.115 22.8745 358.856 22.1211C359.106 21.8656 359.355 21.6091 359.603 21.3516C361.377 19.5134 363.182 18.05 365.37 16.7193Z" fill="#9B2226"/>
<path d="M362.227 19.1563C362.285 19.2143 362.343 19.2723 362.402 19.3321C362.115 19.6199 361.827 19.9078 361.53 20.2044C361.646 20.3204 361.762 20.4364 361.882 20.5559C361.168 21.9915 360.399 23.1353 358.917 23.8719C358.744 23.929 358.571 23.9861 358.393 24.045C358.449 23.7563 358.506 23.4676 358.564 23.1701C357.988 23.6302 357.412 24.0904 356.819 24.5644C356.761 24.5064 356.703 24.4484 356.643 24.3887C357.31 23.7111 357.979 23.0357 358.649 22.3605C358.837 22.1696 359.025 21.9787 359.219 21.7819C360.174 20.8204 361.109 19.9269 362.227 19.1563Z" fill="#9B2226"/>
<path d="M356.826 25.2651C356.884 25.3231 356.942 25.3811 357.001 25.4409C356.241 26.7356 355.178 27.8531 353.861 28.5811C353.745 28.4651 353.629 28.349 353.51 28.2295C353.906 27.4976 354.386 26.9438 354.969 26.3526C355.132 26.1843 355.296 26.0161 355.464 25.8428C355.951 25.4369 355.951 25.4369 356.826 25.2651Z" fill="#9B2226"/>
<path d="M354.551 26.832C354.783 27.064 355.015 27.2961 355.254 27.5351C354.793 27.8801 354.332 28.2251 353.857 28.5805C353.741 28.4645 353.625 28.3485 353.505 28.229C353.85 27.768 354.195 27.307 354.551 26.832Z" fill="#9B2226"/>
<path d="M304.433 16.8467C304.549 16.7307 304.665 16.6147 304.784 16.4952C309.323 19.7217 313.485 23.4629 316.297 28.3595C316.181 28.4755 316.065 28.5915 315.945 28.711C311.283 25.6906 307.25 21.6645 304.433 16.8467Z" fill="#9B2226"/>
<path d="M304.432 16.849C304.548 16.733 304.664 16.617 304.784 16.4975C306.592 17.5429 307.949 18.9292 309.355 20.4532C309.532 20.6439 309.709 20.8346 309.891 21.0312C310.71 21.9343 311.324 22.673 311.761 23.8259C311.472 23.7692 311.183 23.7125 310.886 23.6541C311.346 24.2302 311.806 24.8064 312.28 25.4C312.222 25.458 312.164 25.516 312.104 25.5757C311.344 24.8419 310.587 24.1043 309.834 23.3633C309.578 23.113 309.322 22.8637 309.064 22.6155C307.226 20.8417 305.763 19.0372 304.432 16.849Z" fill="#9B2226"/>
<path d="M306.865 19.9863C306.923 19.9283 306.981 19.8703 307.041 19.8105C307.329 20.0984 307.617 20.3862 307.913 20.6828C308.029 20.5668 308.145 20.4508 308.265 20.3312C309.7 21.045 310.844 21.8142 311.581 23.2957C311.638 23.4688 311.695 23.642 311.754 23.8204C311.465 23.7637 311.176 23.7069 310.879 23.6485C311.339 24.2247 311.799 24.8008 312.273 25.3944C312.215 25.4524 312.157 25.5104 312.098 25.5702C311.42 24.9029 310.745 24.2336 310.069 23.564C309.879 23.376 309.688 23.188 309.491 22.9943C308.529 22.0387 307.636 21.1034 306.865 19.9863Z" fill="#9B2226"/>
<path d="M312.978 25.397C313.036 25.339 313.094 25.281 313.154 25.2213C314.448 25.9816 315.566 27.045 316.294 28.3615C316.178 28.4775 316.062 28.5935 315.942 28.713C315.21 28.3169 314.657 27.8366 314.065 27.2535C313.897 27.0902 313.729 26.927 313.556 26.7588C313.15 26.2719 313.15 26.2719 312.978 25.397Z" fill="#9B2226"/>
<path d="M314.545 27.6719C314.777 27.4399 315.009 27.2078 315.248 26.9688C315.593 27.4298 315.938 27.8908 316.293 28.3658C316.177 28.4818 316.061 28.5978 315.942 28.7173C315.481 28.3723 315.02 28.0273 314.545 27.6719Z" fill="#9B2226"/>
<path d="M288 48.4702C288 48.3061 288 48.142 288 47.973C293.491 47.0453 299.079 46.7474 304.53 48.2216C304.53 48.3856 304.53 48.5497 304.53 48.7187C299.097 49.8797 293.399 49.8849 288 48.4702Z" fill="#9B2226"/>
<path d="M288 48.4758C288 48.3118 288 48.1477 288 47.9787C290.018 47.4392 291.958 47.4599 294.029 47.5437C294.289 47.5533 294.549 47.5629 294.817 47.5728C296.035 47.6325 296.991 47.7207 298.115 48.2273C297.871 48.3913 297.627 48.5554 297.375 48.7244C298.108 48.8064 298.841 48.8885 299.596 48.973C299.596 49.055 299.596 49.137 299.596 49.2216C298.539 49.2403 297.482 49.2537 296.426 49.2625C296.068 49.2662 295.711 49.2713 295.353 49.2778C292.799 49.3234 290.488 49.0822 288 48.4758Z" fill="#9B2226"/>
<path d="M291.943 48.9675C291.943 48.8855 291.943 48.8035 291.943 48.7189C292.35 48.7189 292.758 48.7189 293.177 48.7189C293.177 48.5549 293.177 48.3908 293.177 48.2218C294.697 47.7114 296.049 47.4465 297.618 47.9732C297.781 48.0553 297.943 48.1373 298.111 48.2218C297.867 48.3859 297.623 48.5499 297.371 48.7189C298.104 48.801 298.837 48.883 299.591 48.9675C299.591 49.0495 299.591 49.1316 299.591 49.2161C298.641 49.2234 297.69 49.2277 296.739 49.2316C296.471 49.2337 296.203 49.2358 295.927 49.2379C294.571 49.2421 293.278 49.2126 291.943 48.9675Z" fill="#9B2226"/>
<path d="M300.088 48.469C300.088 48.387 300.088 48.3049 300.088 48.2204C301.541 47.8426 303.083 47.8043 304.529 48.2204C304.529 48.3845 304.529 48.5485 304.529 48.7176C303.731 48.955 303 49.0071 302.17 49.0128C301.935 49.0163 301.701 49.0198 301.459 49.0234C300.828 48.9661 300.828 48.9661 300.088 48.469Z" fill="#9B2226"/>
<path d="M302.803 48.9727C302.803 48.6445 302.803 48.3164 302.803 47.9784C303.373 48.0604 303.943 48.1424 304.53 48.2269C304.53 48.391 304.53 48.5551 304.53 48.7241C303.96 48.8061 303.39 48.8881 302.803 48.9727Z" fill="#9B2226"/>
<path d="M363.471 48.4702C363.471 48.3061 363.471 48.142 363.471 47.973C368.961 47.0453 374.55 46.7474 380 48.2216C380 48.3856 380 48.5497 380 48.7187C374.568 49.8797 368.869 49.8849 363.471 48.4702Z" fill="#9B2226"/>
<path d="M363.471 48.4758C363.471 48.3118 363.471 48.1477 363.471 47.9787C365.489 47.4392 367.428 47.4599 369.5 47.5437C369.76 47.5533 370.02 47.5629 370.288 47.5728C371.506 47.6325 372.462 47.7207 373.586 48.2273C373.342 48.3913 373.097 48.5554 372.846 48.7244C373.579 48.8064 374.311 48.8885 375.066 48.973C375.066 49.055 375.066 49.137 375.066 49.2216C374.01 49.2403 372.953 49.2537 371.896 49.2625C371.539 49.2662 371.181 49.2713 370.824 49.2778C368.27 49.3234 365.959 49.0822 363.471 48.4758Z" fill="#9B2226"/>
<path d="M367.41 48.9675C367.41 48.8855 367.41 48.8035 367.41 48.7189C367.817 48.7189 368.224 48.7189 368.644 48.7189C368.644 48.5549 368.644 48.3908 368.644 48.2218C370.164 47.7114 371.516 47.4465 373.085 47.9732C373.247 48.0553 373.41 48.1373 373.578 48.2218C373.334 48.3859 373.089 48.5499 372.838 48.7189C373.571 48.801 374.303 48.883 375.058 48.9675C375.058 49.0495 375.058 49.1316 375.058 49.2161C374.107 49.2234 373.157 49.2277 372.206 49.2316C371.938 49.2337 371.67 49.2358 371.394 49.2379C370.038 49.2421 368.745 49.2126 367.41 48.9675Z" fill="#9B2226"/>
<path d="M375.553 48.469C375.553 48.387 375.553 48.3049 375.553 48.2204C377.006 47.8426 378.548 47.8043 379.994 48.2204C379.994 48.3845 379.994 48.5485 379.994 48.7176C379.196 48.955 378.465 49.0071 377.634 49.0128C377.4 49.0163 377.166 49.0198 376.924 49.0234C376.293 48.9661 376.293 48.9661 375.553 48.469Z" fill="#9B2226"/>
<path d="M378.271 48.9727C378.271 48.6445 378.271 48.3164 378.271 47.9784C378.841 48.0604 379.411 48.1424 379.998 48.2269C379.998 48.391 379.998 48.5551 379.998 48.7241C379.429 48.8061 378.859 48.8881 378.271 48.9727Z" fill="#9B2226"/>
</svg>
